<?xml version="1.0" encoding="UTF-8"?>
<!DOCTYPE svg PUBLIC "-//W3C//DTD SVG 1.1//EN" "http://www.w3.org/Graphics/SVG/1.1/DTD/svg11.dtd">
<svg version="1.1" xmlns="http://www.w3.org/2000/svg" xmlns:xlink="http://www.w3.org/1999/xlink" x="0" y="0" width="442" height="440" viewBox="0, 0, 442, 440">
  <g id="Layer_1">
    <path d="M319.009,439.96 L304.519,439.96 C304.739,438.6 305.979,438.75 306.849,438.51 C310.849,437.44 314.849,436.51 318.849,435.44 C320.729,434.95 321.549,433.93 320.509,431.95 C319.724,430.302 319.22,428.534 319.019,426.72 C318.689,424.55 317.649,423.72 315.409,424.24 C296.909,428.6 278.199,431.97 259.599,435.86 C257.599,436.27 255.949,435.75 255.149,433.66 C254.759,432.66 254.369,431.66 254.079,430.66 C249.909,415.92 245.799,401.16 241.579,386.44 C238.579,376.08 235.479,365.78 232.479,355.44 C230.939,350.11 229.649,344.71 228.059,339.44 C226.839,335.38 223.539,333.44 219.659,334.21 C217.659,334.61 216.739,335.46 217.349,337.84 C219.709,346.93 222.959,355.72 225.819,364.64 C226.049,365.37 226.919,366.43 226.109,366.88 C224.539,367.74 225.289,369.04 225.109,370.16 C223.499,366.95 223.109,363.39 222.159,359.98 C220.209,352.81 217.859,345.75 215.929,338.56 C214.629,333.72 213.539,328.8 211.569,324.15 C210.339,321.71 210.269,318.97 209.569,316.38 Q207.827,308.426 203.757,292.586 C203.277,290.426 200.549,280.37 200.079,278.21 C201.499,277.21 201.159,278.8 201.289,279.21 C204.289,287.63 206.719,296.21 209.099,304.85 C210.489,309.85 211.789,314.91 213.259,319.85 C213.849,321.85 214.949,323.04 217.519,322.27 C224.909,320.07 231.989,317.02 239.339,314.74 C243.339,313.5 247.269,311.84 251.549,311.63 C252.449,313.12 251.209,313.63 250.279,313.94 C248.71,314.461 247.101,314.853 245.469,315.11 C243.829,315.38 242.739,315.88 243.379,317.84 C244.019,319.8 243.119,320.7 241.379,321.08 C239.639,321.46 237.799,321.73 236.029,322.16 C232.029,323.16 228.029,324.08 224.029,325.16 C221.419,325.89 222.029,328.02 222.299,329.9 C222.639,332.13 224.389,331.74 225.779,331.52 C234.498,330.034 243.296,329.056 252.129,328.59 C253.332,328.696 254.492,328.116 255.129,327.09 C256.639,327.24 256.899,328.44 257.129,329.58 C257.989,334.19 258.859,338.81 259.619,343.44 C260.079,346.2 260.729,346.81 263.359,346.02 C265.989,345.23 268.659,344.13 271.359,343.27 C274.469,342.27 274.779,341.6 273.189,338.71 C271.369,335.42 271.739,332.31 274.329,329.71 C275.454,328.372 276.725,327.165 278.119,326.11 C280.219,324.74 281.019,323.02 279.819,320.43 C278.057,316.504 276.952,312.315 276.549,308.03 C277.429,306.24 276.319,305.88 274.979,306.1 C273.439,306.34 271.979,306.97 270.429,307.3 C269.429,307.52 268.109,308.21 267.539,306.52 C268.181,305.861 269.068,305.498 269.989,305.52 C270.582,305.528 271.147,305.273 271.534,304.823 C271.92,304.373 272.087,303.775 271.989,303.19 C271.839,301.7 271.559,300.02 270.289,299.19 C268.409,297.93 267.919,296.19 267.459,294.19 C266.779,291.19 265.219,288.55 264.699,285.52 C264.577,284.69 264.131,283.942 263.459,283.44 C261.799,282.56 261.939,281.16 262.059,279.77 C262.569,274.21 260.479,269.25 258.129,264.5 C257.072,262.762 256.518,260.764 256.529,258.73 C256.799,254.46 255.139,250.52 253.419,246.88 C252.419,244.77 251.419,242.98 251.489,240.6 C251.489,239.06 250.289,238.6 248.879,238.6 Q252.229,232.12 255.579,225.66 C256.739,225.78 257.979,225.32 259.039,226.15 L259.039,226.15 C260.269,233.09 262.429,239.77 264.409,246.52 C267.469,256.91 269.929,267.52 273.259,277.79 C276.589,288.06 277.939,298.86 282.339,308.79 C282.377,308.866 282.408,308.947 282.429,309.03 C283.349,315.03 285.849,320.6 287.229,326.48 C288.859,333.39 291.869,339.94 292.569,347.1 C292.689,348.28 293.269,349.01 294.569,348.1 C296.709,348.1 298.569,346.97 300.569,346.55 C301.249,346.55 302.029,346.62 301.909,345.6 C301.795,344.037 301.557,342.486 301.199,340.96 C299.199,334.03 297.199,327.13 295.199,320.21 Q283.289,278.51 271.449,236.8 C270.069,231.95 268.449,227.18 267.599,222.18 C268.439,221.82 269.269,221.43 270.119,221.18 Q299.639,210.72 329.179,200.33 C331.879,199.39 334.509,197.94 337.539,198.23 C337.989,200.16 338.429,202.09 338.899,204.01 C341.529,214.75 345.799,225.01 348.809,235.59 C351.519,245.17 354.759,254.59 357.749,264.1 C359.989,271.22 362.189,278.36 364.409,285.49 C364.749,286.57 364.939,288.16 366.549,287.49 C368.599,286.7 370.969,286.49 372.549,284.63 C374.269,284.18 373.549,282.97 373.259,282.04 C370.309,272.27 367.369,262.5 364.319,252.77 C362.599,247.24 362.529,247.3 368.059,245.4 Q392.059,237.15 416.059,228.88 C420.839,227.25 425.669,226.35 430.689,228.02 C434.307,229.266 438.125,229.826 441.949,229.67 L441.949,318.6 C435.559,320.37 429.119,321.93 422.819,323.96 C413.249,327.03 403.419,329.17 393.899,332.45 C390.169,333.74 386.189,334.31 382.329,335.21 C380.829,335.56 379.629,336.21 380.009,338.06 C380.459,340.646 381.564,343.073 383.219,345.11 C386.899,349.42 391.599,350.49 396.919,349.99 C397.319,350.1 397.719,350.19 398.109,350.33 C405.109,352.89 411.629,356.96 419.509,356.33 C419.579,356.33 419.659,356.4 419.739,356.4 C424.039,356.52 428.329,356.83 432.619,356.22 C435.895,355.813 439.052,354.73 441.889,353.04 L441.889,373.04 C440.299,372.57 440.449,370.95 439.889,369.86 C437.897,365.669 433.84,362.84 429.219,362.42 C424.809,361.9 420.429,362.13 416.039,362.05 C410.604,362.124 405.317,360.279 401.109,356.84 C399.193,355.245 396.833,354.277 394.349,354.07 C392.877,353.839 391.423,353.505 389.999,353.07 C388.999,352.83 387.929,351.92 386.999,352.94 C386.069,353.96 386.999,354.94 387.229,355.74 C391.009,368.19 393.829,380.88 397.059,393.47 C399.849,404.392 403.374,415.113 407.609,425.56 C408.609,428 409.999,428.66 412.469,427.89 C413.683,427.628 414.874,427.267 416.029,426.81 C417.569,426 420.089,426.21 420.029,423.44 C421.409,423.18 422.669,423.92 424.029,423.94 C424.229,426.39 423.369,428.06 420.839,428.83 C418.979,429.4 417.219,430.28 415.409,431.03 C424.409,430.03 433.339,429.39 442.009,426.93 L442.009,430.93 C438.68,431.89 435.274,432.559 431.829,432.93 C426.369,433.71 420.829,434.24 415.599,436.23 C413.709,436.94 412.869,437.94 413.029,439.87 L408.529,439.87 C405.293,429.428 401.518,419.161 397.219,409.11 C396.469,407.32 395.219,406.84 393.219,407.28 C380.389,410.09 367.529,412.76 354.689,415.53 C344.839,417.65 334.999,419.85 325.159,422.02 C324.492,422.095 323.883,422.435 323.469,422.963 C323.055,423.492 322.871,424.164 322.959,424.83 C323.061,427.392 323.396,429.939 323.959,432.44 C324.179,433.59 324.639,433.75 325.839,433.64 C329.042,433.249 332.196,432.525 335.249,431.48 C339.249,430.24 343.709,430.89 347.399,429.48 C352.549,427.48 357.949,427.57 363.089,426.07 C363.979,425.761 364.957,425.825 365.8,426.246 C366.644,426.668 367.281,427.412 367.569,428.31 C369.039,432.081 370.167,435.977 370.939,439.95 L355.479,439.95 C355.384,438.047 354.868,436.189 353.969,434.51 C353.817,433.939 353.414,433.467 352.873,433.23 C352.332,432.992 351.712,433.014 351.189,433.29 C346.989,434.79 342.719,436.12 338.479,437.53 C337.319,437.91 336.309,438.45 336.479,439.95 L328.979,439.95 C328.579,438.1 329.169,435.74 326.509,435.01 C324.789,435.784 323.005,436.41 321.179,436.88 C319.219,437.24 318.769,438.25 319.009,439.96 z M249.519,329.9 C243.979,330.82 238.429,331.67 232.929,332.73 C231.329,333.03 230.539,334.13 230.979,336.08 C233.349,346.6 236.729,356.83 239.839,367.08 C243.359,378.73 246.689,390.44 250.089,402.13 C252.729,411.2 255.369,420.26 257.949,429.34 C258.509,431.34 259.419,431.92 261.549,431.48 C272.219,429.28 282.939,427.29 293.629,425.13 C300.099,423.82 306.549,422.37 312.999,420.92 C315.889,420.28 317.279,418.83 316.939,416.65 C316.279,412.5 315.599,408.33 314.639,404.24 C313.239,398.24 311.409,392.42 310.069,386.45 C307.541,375.199 303.82,364.251 298.969,353.79 C298.439,352.145 296.766,351.154 295.069,351.48 C291.929,351.86 289.849,350.08 288.229,347.76 C285.229,343.42 283.909,342.89 278.949,344.58 C273.299,346.5 267.669,348.5 262.009,350.42 C258.289,351.69 257.009,350.94 256.199,347.13 C255.289,342.59 254.359,338.06 253.619,333.5 C253.219,331.11 252.219,329.69 249.519,329.9 z M348.789,355.11 C345.719,355.17 342.659,355.27 339.599,355.47 C329.764,356.192 320.072,358.244 310.789,361.57 C308.029,362.57 307.429,363.69 308.269,366.57 C308.799,368.31 309.529,370 310.019,371.75 C314.089,386.25 317.849,400.84 321.019,415.57 C321.539,417.98 323.019,418.87 325.409,418.34 C331.619,416.95 337.819,415.52 344.029,414.14 C354.129,411.91 364.229,409.74 374.319,407.51 Q383.169,405.51 391.979,403.51 C394.119,403.01 395.459,401.94 394.519,399.44 C394.323,398.724 394.172,397.995 394.069,397.26 C390.659,383.18 387.209,369.11 383.069,355.26 C381.999,351.67 381.069,350.89 377.559,351.92 C368.139,354.55 358.459,354.75 348.789,355.11 z M403.579,242.74 C403.449,242.74 402.899,242.94 402.349,243.12 C398.169,244.47 394.009,245.9 389.799,247.12 C384.089,248.83 378.349,250.4 372.609,252.02 C371.459,252.34 370.159,252.62 370.509,254.22 C371.624,259.652 373.121,264.999 374.989,270.22 C375.709,272.15 376.739,272.48 378.799,271.81 C388.019,268.81 397.319,266.11 406.599,263.34 C409.219,262.56 410.289,263.05 410.869,265.53 C411.299,267.36 412.529,267.39 413.689,267.04 C418.609,265.59 423.639,264.54 428.459,262.72 C429.819,262.21 429.949,261.58 429.569,260.28 C427.939,254.81 426.449,249.28 424.849,243.82 C424.479,242.53 423.689,242 422.199,242.45 C418.479,243.58 414.679,244.45 410.979,245.62 C409.049,246.24 407.669,246.28 406.639,244.24 C406.123,243.057 404.836,242.409 403.579,242.7 z M307.419,358.5 C307.929,358.61 308.419,358.27 308.969,358.06 C318.529,354.39 328.539,352.69 338.659,351.56 C346.989,350.62 355.409,351.56 363.729,350.5 C368.219,349.92 372.659,348.98 377.129,348.21 C378.829,347.92 379.069,347.14 378.299,345.6 C377.529,344.06 376.519,342.31 376.609,340.72 C376.819,337.39 375.029,337.29 372.669,337.55 C372.099,337.61 371.529,337.7 370.959,337.8 C368.467,338.356 365.942,338.747 363.399,338.97 C359.719,339.061 356.06,339.557 352.489,340.45 C350.673,341.012 348.796,341.348 346.899,341.45 C339.819,341.45 333.009,343.36 326.059,344.24 C320.159,344.99 314.289,345.86 308.379,346.46 C305.589,346.74 304.519,349.46 302.219,350.32 C302.049,350.38 302.019,351.11 302.119,351.48 C302.801,353.792 303.966,355.933 305.539,357.76 C305.986,358.328 306.704,358.611 307.419,358.5 z" fill="#FCFCFC"/>
    <path d="M0.07,346.04 L0.07,331.04 C1.58,330.981 3.011,330.348 4.07,329.27 C5.166,328.267 6.39,327.413 7.71,326.73 C10.596,325.119 13.367,323.308 16,321.31 C16.76,320.78 17.56,320.05 16.72,319.07 C15.88,318.09 15.09,318.44 14.31,319.13 C13.498,319.951 12.603,320.684 11.64,321.32 C7.95,323.4 4.09,323.39 0.12,322.56 L0.12,269.56 C1.27,269.747 2.282,270.426 2.89,271.42 C3.89,272.73 4.14,274.31 4.89,275.68 C7.95,281.1 11.43,286.27 14.17,291.88 C14.89,293.37 15.81,294.76 16.66,296.19 C16.97,296.72 17.43,297.19 18.07,296.88 C18.71,296.57 18.26,296.03 18.13,295.59 C18.032,295.186 17.909,294.788 17.76,294.4 C14.76,287.54 10.49,281.4 7.02,274.77 C6.02,272.87 4.2,271.24 3.76,269.27 C3.533,267.338 2.02,265.808 0.09,265.56 L0.09,254.11 C1.51,254.21 1.96,255.34 2.47,256.38 C4.62,260.79 7.09,265 9.56,269.23 C13.7,276.31 18.56,282.98 21.81,290.55 C22.281,291.706 22.959,292.767 23.81,293.68 C24.2,294.1 24.48,294.8 25.16,294.37 C25.84,293.94 25.37,293.37 25.16,292.8 C24.084,289.927 22.642,287.205 20.87,284.7 C18.29,280.81 17.01,276.26 14.12,272.42 C10.75,267.95 8.42,262.72 5.41,257.95 C3.87,255.51 3.24,252.28 0.05,251.11 L0.05,179.17 C2.18,180 2.81,182.06 3.83,183.8 C9.65,193.75 15.4,203.75 21.33,213.64 C22.99,216.41 24.05,219.51 26.11,222.08 C26.312,222.481 26.692,222.762 27.134,222.837 C27.576,222.912 28.028,222.772 28.35,222.46 C30.99,220.82 31.92,220.97 33.43,223.52 C35.55,227.08 37.43,230.8 39.64,234.3 C42.49,238.83 44.27,244.06 48.48,247.72 C49.27,248.41 49.6,248.42 50.48,247.94 C52.18,247.06 53.4,245.63 54.95,244.62 C56.047,244.384 57.142,245.027 57.47,246.1 C60.3,252.31 64.63,257.68 67.41,263.93 C68.23,265.76 69.59,266.45 71.64,265.28 C75.75,262.94 79.96,260.78 84.11,258.5 C85.98,257.5 86.97,256.1 86.11,253.8 C85.768,253.115 85.748,252.314 86.055,251.613 C86.362,250.912 86.965,250.383 87.7,250.17 C89.027,249.488 90.303,248.713 91.52,247.85 Q109.1,237.05 126.68,226.24 Q137.39,219.68 148.18,213.24 C149.96,212.18 150.73,210.79 149.72,208.92 C147.53,204.84 145.27,200.8 143.47,196.52 C142.67,194.61 141.47,194.47 139.47,195.24 C134.56,197.16 133.85,196.45 131.89,192.72 C130.21,189.51 130.12,189.56 126.89,191.32 C126.53,191.51 126.1,191.58 125.73,191.75 C121.58,193.67 116.86,193.85 112.83,196.15 C105.1,200.55 97.16,204.54 89.21,208.52 C87.06,209.59 85.04,210.91 82.96,212.12 C81.96,212.7 81.14,213.36 81.96,214.67 C83.03,216.38 82.11,217.55 80.74,218.41 C79.113,219.56 77.354,220.51 75.5,221.24 C72.6,222.16 72.41,223.54 73.98,226.39 C74.98,228.14 76.03,229.82 76.91,231.6 C78.1,233.99 77.68,234.66 75.09,234.6 C73.09,234.53 71.09,234.37 69.45,233.12 C68.79,232.25 69.14,230.99 68.27,230.18 C65.93,228 65.27,224.81 63.52,222.24 C60.19,217.4 58.26,211.69 54.45,207.11 C54.702,206.074 55.211,205.118 55.93,204.33 C56.78,203.02 57.07,201.67 54.93,201.15 C52.73,194.56 48.5,189.05 45.3,182.99 C44.13,180.79 43.06,180.69 41.1,182.28 C40.214,183.111 39.155,183.736 38,184.11 C37.08,184.33 35.68,184.61 35.35,183.45 C34.63,180.86 32.96,178.89 31.59,176.71 C31.701,175.506 31.12,174.344 30.09,173.71 L29.59,172.71 C29.465,171.439 28.715,170.314 27.59,169.71 L27.59,168.65 Q44.59,158.59 61.47,148.52 C62.29,148.03 63.81,147.78 62.58,146.25 C62.066,144.082 61.15,142.03 59.88,140.2 C58.09,137.45 56.34,134.66 54.66,131.83 C53.37,129.65 54.01,128.42 56.48,128.26 C57.55,128.19 58.48,128.1 58.58,126.75 C59.58,126.92 60.31,126.27 61.05,125.75 C63.83,123.8 66.47,121.63 69.38,119.9 C78.38,114.55 87.18,109.02 95.69,102.97 C99.18,100.5 102.88,98.31 106.25,95.69 C108.04,94.3 109.77,93.27 112.04,93.27 C112.101,94.284 111.566,95.241 110.67,95.72 C109.31,96.72 107.67,96.99 106.17,97.72 C105.48,98.06 104.35,98.23 104.68,99.36 C105.48,102.14 103.45,103.22 101.68,104.36 C100.17,105.36 98.44,106.03 96.94,107.05 C93.63,109.3 89.83,111.13 89.18,115.8 C89.035,116.627 88.595,117.374 87.94,117.9 C86.75,118.79 86.94,119.7 87.55,120.7 C89.09,123.34 90.63,125.98 92.28,128.55 C92.96,129.62 93.45,130.66 92.65,131.74 C91.54,133.23 92.36,133.98 93.54,134.74 C93.73,136 94.54,135.89 95.38,135.52 C99.3,133.65 103.14,131.63 106.03,128.24 L106.03,128.24 L106.54,127.73 L106.54,125.73 C109.54,124.68 112.07,122.73 114.78,121.19 C123.23,116.28 131.6,111.19 140.01,106.24 C140.879,106.73 141.591,107.459 142.06,108.34 C146.27,115.96 151.12,123.19 155.63,130.62 C158.85,135.93 162.14,141.2 165.37,146.5 C166.12,147.74 166.45,148.88 164.78,149.84 C162.59,151.1 162.46,152.29 163.99,154.43 C165.72,156.84 165.38,158.13 162.81,159.56 C159.63,161.33 156.52,163.24 153.32,164.99 C151.45,165.99 151.2,167.2 152.15,169.06 C154.444,173.466 157.121,177.662 160.15,181.6 C162.35,184.46 162.37,184.43 165.15,182.38 C165.561,182.123 165.989,181.892 166.43,181.69 C166.844,181.699 167.256,181.638 167.65,181.51 Q174.06,177.97 180.43,174.35 C181.19,173.932 181.594,173.072 181.43,172.22 C181.43,169.82 183.43,169.79 184.96,169.22 C185.587,169.457 185.99,170.07 185.96,170.74 C179.693,177.835 175.78,186.699 174.76,196.11 C169.803,199.053 165.037,202.306 160.49,205.85 C159.875,206.268 159.404,206.865 159.14,207.56 C158.65,209.82 161.88,213.56 164.26,213.56 C167.82,213.56 171.38,213.39 174.6,215.39 C175.48,215.93 176.27,216.85 177.51,216.53 C179.89,223.04 182.86,229.3 185.83,235.53 C184.916,235.468 184.01,235.73 183.27,236.27 C178.72,238.69 174.27,241.27 169.55,243.39 C156.89,249.09 144.55,255.39 132.28,261.9 C119.9,268.52 107.66,275.39 95.62,282.62 Q67.42,299.54 40.85,318.95 C29.27,327.42 17.21,335.25 5.32,343.3 C3.71,344.49 2.17,345.86 0.07,346.04 z M48,167.85 C48.065,168.353 48.2,168.844 48.4,169.31 C50.45,173.01 52.55,176.68 54.65,180.36 C55.18,181.28 55.95,181.27 56.79,180.78 C57.93,180.1 59.09,179.45 60.19,178.72 C60.704,178.452 61.077,177.974 61.211,177.41 C61.345,176.846 61.228,176.251 60.89,175.78 C59.109,172.22 57.143,168.755 55,165.4 C54.45,164.55 54,162.66 52.61,163.6 C50.9,164.68 48.12,164.74 48,167.85 z" fill="#FEFEFE"/>
    <path d="M185.91,170.69 C185.94,170.02 185.537,169.407 184.91,169.17 L184.4,167.68 C189.7,164.44 195.04,161.24 200.29,157.93 C203.65,155.81 206.93,153.37 210.4,151.69 C216.33,148.81 221.82,145.3 227.4,141.93 C230.4,140.1 230.55,139.35 228.4,136.42 C225.34,132.19 222.12,128.06 219.46,123.56 C218.31,121.63 217.03,121.56 215.1,122.16 C211.59,123.3 208.71,125.69 205.2,126.81 C203.423,127.246 201.762,128.061 200.33,129.2 C199.929,129.163 199.541,129.357 199.33,129.7 C198,130.08 196.66,130.45 195.83,131.7 L195.83,131.7 C195.167,131.686 194.566,132.085 194.32,132.7 C193.918,132.645 193.523,132.839 193.32,133.19 C191.32,134.14 189.79,133.63 188.8,131.62 C187.08,128.15 184.28,125.5 181.88,122.55 C176.8,116.33 171.38,110.37 166.57,103.96 C161.09,96.66 154.64,90.2 149.22,82.88 C148.841,82.211 148.139,81.79 147.37,81.77 C146.13,79.64 144.99,77.44 143.61,75.4 C141.85,72.79 140.9,72.59 138.34,74.51 C129.68,80.98 120.09,86.14 111.89,93.25 C109.62,93.25 107.89,94.25 106.1,95.67 C102.73,98.29 99.03,100.48 95.54,102.95 C87.03,109 78.19,114.53 69.23,119.88 C66.32,121.61 63.68,123.78 60.9,125.73 C60.16,126.24 59.46,126.89 58.43,126.73 C57.21,122.232 54.791,118.149 51.43,114.92 C49.455,113.017 48.066,110.588 47.43,107.92 C46.024,102.633 45.684,97.119 46.43,91.7 C47.504,81.707 53.341,72.849 62.1,67.92 C68.46,64.12 75.18,61.03 81.73,57.6 C87.51,54.6 91.62,50.18 92.66,43.4 C93.16,40.17 92.81,36.94 92.93,33.71 C92.828,31.992 93.22,30.282 94.06,28.78 C94.581,29.331 94.849,30.074 94.8,30.83 C94.93,36.32 97.43,40.77 100.45,45.17 C102.73,48.5 105.64,51.49 106.93,55.46 C108.51,60.31 109.57,60.97 114.59,60.19 C115.578,60.065 116.544,59.802 117.46,59.41 C119.84,58.26 121.16,58.88 122.78,61.1 C125.47,64.79 129.05,66.67 132.31,64.45 C135.123,62.683 136.839,59.602 136.86,56.28 C136.86,54.22 136.45,52.15 136.36,50.09 C136.229,44.256 133.319,38.835 128.53,35.5 C125.585,33.32 122.864,30.851 120.41,28.13 C117.912,25.239 114.226,23.655 110.41,23.83 C107.203,23.928 104.113,22.62 101.95,20.25 C100.14,18.37 99,16.03 97.51,13.94 C97.1,13.36 96.77,12.79 95.98,12.94 C95.19,13.09 94.98,13.69 94.89,14.41 C94.74,15.41 94.43,16.34 94.2,17.3 C93,16.62 92.99,15.3 92.98,14.3 C92.9,10.17 91.41,6.47 89.81,2.79 C89.46,1.98 88.71,1.32 88.9,0.31 L150.35,0.31 C150.253,1.152 150.51,1.996 151.06,2.64 C156.97,9.89 162.55,17.41 169.75,23.53 C178.17,30.517 187.098,36.868 196.46,42.53 C206.56,48.79 216.51,54.94 224.02,64.53 C232.73,75.69 241.61,86.71 249.78,98.27 C261.13,114.35 270.54,131.64 281.02,148.27 C287.91,159.21 294.73,170.19 302.14,180.8 C303.81,183.19 303.57,184.19 300.84,185.16 C289.98,189.02 279.1,192.82 268.34,196.96 C266.13,197.81 264.01,199.12 261.51,199.13 C261.46,198.71 261.39,198.3 261.37,197.89 C260.798,185.125 254.617,173.264 244.481,165.483 C234.345,157.701 221.29,154.794 208.81,157.54 C199.83,159.5 192.33,164.11 185.91,170.69 z" fill="#E0E0E0"/>
    <path d="M86,439.96 L30.54,439.96 L30.54,438.96 C31.54,437.24 32.69,435.6 34.7,434.85 C35.197,434.686 35.505,434.188 35.43,433.67 C35.34,433.02 34.8,432.95 34.3,432.97 C31.62,433.09 30.51,431.29 29.68,429.18 C28.96,427.33 28.4,425.41 27.57,423.61 C26.57,421.49 24.63,421.27 23.28,423.15 C22.365,424.327 21.164,425.25 19.79,425.83 C16.35,427.47 12.87,429.04 9.38,430.56 C7.45,431.39 7.1,432.39 8.38,434.18 C9.66,435.97 10.95,437.67 11.09,439.95 C7.84,439.95 4.59,439.9 1.35,439.95 C0.27,439.95 0.04,439.74 0.06,438.66 C0.15,434.92 0.06,431.17 0.06,427.42 C1.203,427.434 2.331,427.159 3.34,426.62 C10.66,423.27 17.47,418.75 25.61,417.24 C28.07,416.78 29.23,417.4 30.05,419.47 C30.69,421.09 31.33,422.71 32.05,424.32 C32.23,424.77 32.5,425.32 33.05,425.15 C33.6,424.98 33.52,424.34 33.51,423.88 C33.466,423.21 33.385,422.542 33.27,421.88 C32.85,419.942 32.599,417.971 32.52,415.99 C32.52,414.99 32.79,414.32 33.92,414.42 C36.08,414.61 36.34,413.61 35.59,411.87 C35.17,410.87 34.91,409.82 34.48,408.87 C29.48,397.38 24.91,385.72 20.48,374.02 C18.8,369.62 17.48,365.02 15.07,360.95 C20.7,356.59 26.53,352.5 32.37,348.42 C55.37,332.31 78.42,316.11 102.29,301.21 C114.41,293.65 126.91,286.74 139.51,279.99 C151.16,273.75 163.07,267.99 174.88,262.11 Q178.67,276.11 182.47,290.11 Q189.35,315.78 196.22,341.44 C202.62,365.26 208.9,389.12 215.51,412.89 C217.77,421.02 218.51,429.52 221.68,437.42 C221.878,438.221 221.959,439.046 221.92,439.87 L211.92,439.87 C210.86,433.61 209.92,427.32 208.68,421.09 C208.39,419.6 208.68,418.62 209.77,417.87 C210.86,417.12 210.84,416.54 210.54,415.38 Q207.92,405.16 205.54,394.88 C205.254,393.238 204.297,391.789 202.9,390.88 C201.199,389.931 200.048,388.232 199.8,386.3 C199.6,384.081 199.242,381.879 198.73,379.71 C198.37,378.32 198.55,377.61 199.84,376.92 C200.532,376.603 201.058,376.008 201.287,375.282 C201.516,374.556 201.426,373.766 201.04,373.11 C200.4,371.666 199.882,370.17 199.49,368.64 C198.02,362.64 196.77,356.54 195.19,350.54 C189.98,330.68 184.58,310.87 179.44,290.99 C178.44,286.99 177.12,283.81 172.73,282.87 C172.325,282.766 171.949,282.571 171.63,282.3 C166.85,278.51 162.06,279.16 157.03,281.94 C146.49,287.75 135.87,293.42 125.25,299.09 C115.95,304.09 106.59,308.92 97.25,313.87 C93.87,315.67 93.69,316.41 95.92,319.59 C102.68,329.24 107.47,339.9 112,350.7 C116.26,360.88 120.59,371.02 124.86,381.19 C126.79,385.78 128.67,390.38 130.55,394.99 C130.81,395.63 131.41,396.54 130.27,396.84 C127.32,397.61 127.96,399.25 129.05,401.13 C129.272,401.66 129.417,402.219 129.48,402.79 Q133.48,421.33 137.48,439.87 L95.48,439.87 C95.327,438.384 94.863,436.946 94.12,435.65 C92.12,431.35 89.94,427.14 88.23,422.73 C79.76,400.88 69,380.07 59.38,358.73 C57.24,353.98 53.99,349.73 52.19,344.81 C51.859,344.043 51.331,343.377 50.66,342.88 C50.523,342.72 50.327,342.621 50.117,342.606 C49.906,342.591 49.699,342.661 49.54,342.8 C49.18,343.09 48.99,343.53 49.33,343.88 C50.63,345.23 50.58,347.2 51.78,348.69 C53.567,350.989 55.031,353.523 56.13,356.22 C59.59,364.31 63.6,372.14 67.34,380.1 C69.71,385.1 72.13,390.1 74.34,395.24 C79.04,405.95 83.59,416.72 88.26,427.44 C90.09,431.62 92.06,435.73 93.97,439.87 L88.47,439.87 C88.47,438.02 87.35,436.58 86.53,435.08 C81.95,426.69 78.48,417.78 74.37,409.18 C70.05,400.11 66.14,390.84 61.63,381.87 C57.63,373.94 54.1,365.8 50.37,357.75 C48.58,353.88 46.7,350.05 44.86,346.2 L44.2,346.44 C44.63,349.95 45.13,353.44 47.51,356.36 C49.36,358.61 50.83,360.9 50.51,363.97 C50.502,364.567 50.791,365.129 51.28,365.47 C52.499,366.734 53.401,368.269 53.91,369.95 C58.53,381.8 64.29,393.15 70.03,404.45 C73.46,411.23 75.03,418.88 79.71,425.03 C80.33,425.84 80.39,427.03 80.8,428.03 C81.284,429.44 81.903,430.8 82.65,432.09 C84.203,434.506 85.335,437.166 86,439.96 z" fill="#FEFEFE"/>
    <path d="M441.69,63.76 L441.69,140.2 C439.972,140.411 438.29,140.851 436.69,141.51 C420.45,147.35 404.23,153.22 387.98,159 C385.82,159.77 383.73,161 381.28,160.6 L380.84,159.68 C380.67,158.26 381.16,156.91 380.4,155.39 Q360.51,115.63 340.79,75.78 C340.79,74.42 342.14,74.3 342.79,73.53 C343.09,73.17 343.64,72.88 343.44,72.34 C343.24,71.8 342.7,71.76 342.2,71.76 L338.79,71.76 L335.79,65.76 L334.79,64.23 C334.45,63.39 334.16,62.53 333.79,61.72 Q319.23,32.43 304.69,3.11 C304.25,2.23 303.62,1.41 303.8,0.32 L316.29,0.32 C316.267,1.669 315.648,2.94 314.6,3.79 C313.737,4.471 313.302,5.562 313.46,6.65 C313.896,9.368 315.077,11.912 316.87,14 C318.63,15.94 320.19,18.65 323.7,17.87 C324.89,17.6 325.7,18.71 326.15,19.68 C327.35,22.05 328.47,24.45 329.56,26.88 C331.21,30.53 331.72,34.16 329.19,37.69 C328.47,38.69 328.86,39.39 329.96,39.77 L332.09,40.46 C338,42.46 341.19,46.97 341.32,53.13 C341.292,55.288 340.747,57.407 339.73,59.31 C338.73,61.31 339.48,63.03 340.54,64.68 C341.6,66.33 343.31,66.08 344.6,65.63 C346.6,64.91 347.75,65.81 348.87,67.14 C349.482,67.814 350.034,68.54 350.52,69.31 C350.789,69.881 351.311,70.291 351.93,70.417 C352.548,70.543 353.189,70.37 353.66,69.95 C356.04,68.05 358.86,67.25 361.61,66.24 C364.36,65.23 364.76,64.05 363.76,61.24 C362.19,56.77 359.19,53 357.76,48.45 C357.168,46.684 355.878,45.238 354.19,44.45 C351.01,42.87 348.19,36.53 348.98,32.94 C349.719,29.768 348.173,26.506 345.25,25.07 C343.27,24.176 341.706,22.559 340.88,20.55 C340.21,19.04 339.17,17.69 338.54,16.17 C336.39,11.06 331.64,6.71 333.8,0.31 L403.24,0.31 C403.2,1.882 403.543,3.44 404.24,4.85 C405.83,8.85 407.53,8.4 410.32,6.7 C412.948,5.151 415.734,3.887 418.63,2.93 C419.97,2.46 420.81,1.82 420.72,0.31 L432.72,0.31 C432.714,0.724 432.761,1.138 432.86,1.54 Q436.34,10.54 439.86,19.61 C440.17,20.39 440.43,21.44 441.69,21.3 L441.69,49.3 C440.69,49.3 440.42,48.55 440.07,47.72 C438.31,43.52 436.59,39.31 435.16,34.99 C434.34,32.5 433.21,31.99 430.83,32.86 Q425.39,34.95 420,37.19 C417.25,38.34 416.91,39.25 418.05,41.97 C419.35,45.1 420.68,48.22 421.96,51.36 C422.48,52.64 423.24,53.95 421.38,54.95 C420.5,55.43 420.76,56.31 421.12,57.16 C422.18,59.68 423.2,62.21 424.12,64.78 C425.5,68.61 426.12,69 429.93,67.63 C433.74,66.26 437.53,64.31 441.69,63.76 z M394.08,59.76 C391.69,59.92 390.08,60.97 388.31,61.76 C385.51,62.95 385.04,64.39 386.64,66.97 C387.96,69.09 387.71,69.97 385.4,70.84 C383.068,71.686 380.796,72.688 378.6,73.84 C375.01,75.75 373.35,75.18 371.88,71.42 C371.17,69.58 370.11,69.12 368.44,69.84 C364.93,71.34 361.44,72.9 357.96,74.45 C356.975,74.768 356.316,75.695 356.34,76.73 C356.46,80.91 359.19,82.6 363.03,80.9 C363.48,80.7 363.93,80.47 364.37,80.25 C367.66,78.63 368.26,78.84 369.93,82.18 C370.2,82.7 370.48,83.18 370.72,83.74 C371.95,86.47 371.25,87.99 368.37,88.74 C365.13,89.64 364.77,90.41 366.14,93.51 C368.03,97.75 369.87,102.02 371.82,106.24 C374.9,112.87 378.05,119.46 381.17,126.07 C381.81,127.43 382.61,127.84 384.12,127.07 C386.86,125.7 389.72,124.56 392.52,123.3 C395.52,121.98 396.03,120.53 394.64,117.55 Q388,103.32 381.41,89.11 C379.99,86.11 380.52,84.81 383.77,83.7 C389.44,81.7 394.58,78.61 400.1,76.31 C401.58,75.69 402.03,74.67 401.17,73.12 C399.16,69.392 397.451,65.51 396.06,61.51 C395.66,60.38 395,59.57 394.08,59.72 z M422.22,7.26 C417.33,8.543 412.625,10.449 408.22,12.93 C407.5,13.34 407.68,14.08 407.93,14.72 Q411.37,23.66 414.84,32.59 C414.956,33.086 415.301,33.496 415.77,33.694 C416.239,33.891 416.774,33.853 417.21,33.59 C421.47,31.97 425.76,30.39 430.04,28.82 C431.47,28.29 432.04,27.17 431.58,25.87 C429.35,20.15 427,14.48 424.65,8.81 C424.286,7.797 423.294,7.148 422.22,7.22 z M412.9,38.32 C410.556,38.424 408.346,39.44 406.74,41.15 C405.27,42.67 407.21,44.04 407.36,45.52 C407.443,45.924 407.574,46.317 407.75,46.69 C409.75,52.85 410.34,53.07 416.27,50.03 L416.94,49.7 C417.619,49.465 418.154,48.934 418.393,48.256 C418.633,47.579 418.55,46.829 418.17,46.22 C417.17,44.11 416.11,42.05 415.33,39.87 C415.232,39.33 414.917,38.853 414.457,38.552 C413.997,38.252 413.434,38.153 412.9,38.28 z M437.9,127.92 C436.18,122.99 434.57,118.33 432.9,113.68 C432.71,113.14 432.74,112.1 431.76,112.44 C430.78,112.78 431.47,113.53 431.59,114.12 C432.51,118.6 435.15,122.46 436.09,126.93 C436.2,127.49 436.72,127.83 437.87,127.88 z" fill="#FDFDFD"/>
    <path d="M154.93,0.31 L209.93,0.31 C210.108,1.204 210.495,2.044 211.06,2.76 C213.48,6.76 216.79,10.27 218.6,14.68 C220.78,19.98 225.02,23.87 228.03,28.6 C228.49,29.32 229.28,30.25 230.28,29.51 C231.78,28.4 233.63,28.11 235.19,27.15 C239.4,24.55 239.41,24.57 242.4,28.29 C242.4,28.785 242.488,29.276 242.66,29.74 C245.36,34.12 247.27,38.88 249.56,43.46 C253.29,50.94 257.25,58.3 260.64,65.94 C262.143,69.343 263.898,72.629 265.89,75.77 C266.83,78.04 266.5,80.93 269.08,82.47 C269.455,81.949 269.527,81.268 269.27,80.68 C268.49,78.68 269.53,77.48 271.13,76.68 C275.05,74.68 279.01,72.68 282.95,70.74 C284.66,69.89 285.95,70.12 286.76,72.03 C288.25,75.37 289.87,78.65 291.43,81.95 C296.43,92.46 301.43,102.95 306.31,113.5 C307.2,115.41 308.63,115.71 310.17,114.98 C317.52,111.52 324.81,107.93 332.1,104.35 C335.54,102.66 335.79,102.71 337.7,106.05 C337.871,106.336 338.015,106.637 338.13,106.95 C341.28,116.2 346.13,124.64 350.37,133.4 C350.99,134.71 351.79,136.15 353.11,136.47 C354.83,136.9 355.29,138.1 355.84,139.36 C358.45,145.36 361.28,151.3 364.26,157.15 C365.56,159.71 365.35,160.25 362.5,161.2 C358.57,162.51 354.6,163.73 350.66,165.01 C339.4,168.69 327.94,171.72 316.72,175.57 C315.36,176.04 314.78,176.52 314.82,177.92 C314.92,181.06 312.24,181.23 310.24,181.92 C308.6,182.505 306.777,181.826 305.92,180.31 C302.12,174.58 298.31,168.85 294.57,163.07 C285.92,149.7 277.63,136.07 269.47,122.43 C262.37,110.53 255.08,98.76 246.66,87.74 C240.88,80.18 234.87,72.79 229.14,65.19 C226.29,61.42 223.57,57.53 220.14,54.3 C213.72,48.3 205.93,44.3 198.59,39.64 C185.32,31.25 171.98,22.96 161.99,10.5 C159.35,7.28 156.34,4.33 154.93,0.31 z M303.69,152.58 C303.735,152.228 303.735,151.872 303.69,151.52 C302.55,148.41 302.86,147.8 305.78,146.43 C307.95,145.43 310.01,144.13 312.15,143.06 C313.45,142.41 313.49,141.57 312.91,140.41 C309.71,134.03 306.53,127.63 303.32,121.24 C302.62,119.85 301.56,119.3 300.05,120.11 C296.5,122.01 293.23,124.84 288.32,123.05 C288.99,124.45 289.39,125.26 289.77,126.05 C293.15,133.35 297.47,140.21 300.11,147.86 C300.757,149.782 302.014,151.439 303.69,152.58 z M288.35,122.58 C288.76,116 283.28,112.18 282,106.7 C281.81,105.87 281.3,104.98 279.46,104.98 z M277.35,98.66 C277.33,96.692 276.557,94.806 275.19,93.39 C274.94,93.08 274.55,92.76 274.19,93.11 C274.005,93.368 273.953,93.698 274.05,94 C274.526,95.891 275.688,97.538 277.31,98.62 z M279.75,103.88 C280.029,102.736 279.726,101.527 278.94,100.65 C278.53,100.12 277.94,99.5 277.28,99.99 C276.62,100.48 276.79,101.38 277.37,101.99 C278.118,102.646 278.899,103.263 279.71,103.84 z" fill="#EFEFEF"/>
    <path d="M137.45,439.96 Q133.45,421.42 129.45,402.88 C129.387,402.309 129.242,401.75 129.02,401.22 C127.93,399.34 127.29,397.7 130.24,396.93 C131.38,396.63 130.78,395.72 130.52,395.08 C128.64,390.47 126.76,385.87 124.83,381.28 C120.56,371.11 116.23,360.97 111.97,350.79 C107.44,339.99 102.65,329.33 95.89,319.68 C93.66,316.5 93.84,315.76 97.22,313.96 C106.54,308.96 115.9,304.15 125.22,299.18 C135.84,293.51 146.46,287.84 157,282.03 C162,279.25 166.82,278.6 171.6,282.39 C171.919,282.661 172.295,282.856 172.7,282.96 C177.09,283.9 178.39,287.13 179.41,291.08 C184.55,310.96 189.95,330.77 195.16,350.63 C196.74,356.63 197.99,362.71 199.46,368.73 C199.852,370.26 200.37,371.756 201.01,373.2 C201.396,373.856 201.486,374.646 201.257,375.372 C201.028,376.098 200.502,376.693 199.81,377.01 C198.52,377.7 198.34,378.41 198.7,379.8 C199.212,381.969 199.57,384.171 199.77,386.39 C200.018,388.322 201.169,390.021 202.87,390.97 C204.267,391.879 205.224,393.328 205.51,394.97 Q207.88,405.26 210.51,415.47 C210.81,416.63 210.75,417.28 209.74,417.96 C208.73,418.64 208.36,419.69 208.65,421.18 C209.86,427.41 210.83,433.7 211.89,439.96 L200.39,439.96 C200.408,437.717 199.955,435.496 199.06,433.44 C198.49,432.15 197.81,430.56 195.76,431.27 C193.46,432.06 192.3,431.03 191.95,428.8 C191.62,426.74 190.8,425.66 188.4,426.35 C186.29,426.96 184.96,426.27 184.31,423.76 C182.47,416.63 181.48,409.29 178.97,402.33 C178.012,399.945 178.679,397.214 180.63,395.54 C181.304,394.901 181.533,393.921 181.21,393.05 C180.374,389.503 178.735,386.195 176.42,383.38 C174.36,380.86 174.24,378.07 175.93,376.61 C179.14,373.82 176.24,371.7 175.33,369.39 C174.42,367.08 172.55,367.92 171.04,368.27 C164.34,369.78 157.67,371.41 151.04,373.01 C147.43,373.88 146.78,375.06 148.26,378.49 C149.89,382.26 150.53,386.27 151.41,390.22 C151.62,391.16 151.8,392.41 150.64,392.87 C147.23,394.23 147.7,397.08 148.18,399.63 C149.03,404.18 150.18,408.69 151.33,413.16 C153.66,422.03 154.91,431.16 157.48,439.96 z M139.37,351.11 C139.8,350.98 140.27,350.82 140.75,350.71 C149.06,348.9 157.18,346.21 165.64,345.02 C168.41,344.64 169.35,343.02 168.7,340.14 C166.97,332.66 164.92,325.22 163.64,317.66 C162.81,312.72 158.85,309.46 153.28,312.45 C145.6,316.57 137.97,320.77 130.28,324.91 C129.61,325.15 129.076,325.669 128.815,326.331 C128.554,326.994 128.593,327.737 128.92,328.37 Q132.7,338.76 136.37,349.21 C136.92,350.63 138,350.89 139.37,351.11 z" fill="#EFEFEF"/>
    <path d="M89,0.31 C88.81,1.31 89.56,1.98 89.91,2.79 C91.51,6.47 93,10.17 93.08,14.3 C93.08,15.3 93.08,16.64 94.29,17.3 C92.47,21.09 94.35,24.94 94.12,28.76 C93.28,30.268 92.891,31.987 93,33.71 C92.88,36.94 93.23,40.17 92.73,43.4 C91.73,50.18 87.58,54.58 81.8,57.6 C75.25,61.03 68.53,64.12 62.17,67.92 C53.411,72.849 47.574,81.707 46.5,91.7 C45.754,97.119 46.094,102.633 47.5,107.92 C48.136,110.588 49.525,113.017 51.5,114.92 C54.861,118.149 57.28,122.232 58.5,126.73 C58.4,128.08 57.5,128.17 56.4,128.24 C53.93,128.4 53.29,129.63 54.58,131.81 C56.26,134.64 58.01,137.43 59.8,140.18 C61.07,142.01 61.986,144.062 62.5,146.23 C58.724,148.022 55.051,150.025 51.5,152.23 C43.5,156.83 35.5,161.53 27.5,166.23 C26.23,166.98 26.13,167.84 27.5,168.63 L27.5,169.69 C27.62,171.05 27.76,172.4 29.5,172.69 L30,173.69 C29.711,174.921 30.342,176.183 31.5,176.69 C32.87,178.87 34.5,180.84 35.26,183.43 C35.59,184.59 36.99,184.31 37.91,184.09 C39.114,183.751 40.226,183.142 41.16,182.31 C43.16,180.72 44.16,180.82 45.36,183.02 C48.56,189.08 52.79,194.59 54.99,201.18 C55.094,202.153 54.778,203.125 54.12,203.85 C53.12,204.97 53.02,206.19 54.47,207.14 C58.28,211.72 60.21,217.43 63.54,222.27 C65.3,224.84 65.95,228.03 68.29,230.21 C69.16,231.02 68.81,232.28 69.47,233.15 C69.98,235.56 68.47,236.84 66.6,237.46 C64.3,238.24 62.6,239.89 60.4,240.91 C58.55,241.81 56.17,242.54 54.97,244.64 C53.42,245.64 52.2,247.08 50.5,247.96 C49.58,248.44 49.25,248.43 48.5,247.74 C44.29,244.08 42.5,238.85 39.66,234.32 C37.44,230.82 35.57,227.1 33.45,223.54 C31.94,220.99 31.01,220.84 28.37,222.48 C28.048,222.792 27.596,222.932 27.154,222.857 C26.712,222.782 26.332,222.501 26.13,222.1 C24.07,219.53 23.01,216.43 21.35,213.66 C15.42,203.77 9.67,193.77 3.85,183.82 C2.85,182.08 2.2,180.02 0.07,179.19 L0.07,130.19 C2.23,131.39 2.48,133.82 3.52,135.71 C5.38,139.08 6.82,139.56 10.19,137.62 Q15.69,134.46 21.19,131.35 C25.55,128.9 29.85,126.4 32.95,122.35 C35.03,119.426 37.798,117.059 41.01,115.46 C43.93,114.07 44.55,112.65 43.81,109.46 C42.48,104.517 42.003,99.383 42.4,94.28 C43.233,86.157 46.389,78.446 51.49,72.07 C53.49,69.51 53.59,67.78 51.05,65.67 C47.926,62.941 44.543,60.523 40.95,58.45 C39.46,57.56 37.73,57.158 36,57.3 C36.11,56.09 37.43,55.21 37,53.84 C42.68,54.45 47.35,57.68 51,61.4 C55.78,66.34 60.19,65.71 64.24,63.5 C69.12,60.85 73.84,57.92 78.99,55.75 C82.63,54.22 86.42,52.64 87.99,48.42 C89.56,44.2 89.73,40 89.99,35.74 C90.26,30.74 90.18,25.74 89.99,20.74 C89.785,16.195 88.915,11.704 87.41,7.41 C86.56,4.88 84.41,3.04 84.03,0.31 z" fill="#F8F8F8"/>
    <path d="M154.93,0.31 C156.34,4.31 159.35,7.31 161.93,10.48 C171.93,22.94 185.26,31.23 198.53,39.62 C205.87,44.27 213.66,48.3 220.08,54.28 C223.54,57.51 226.26,61.4 229.08,65.17 C234.81,72.77 240.82,80.17 246.6,87.72 C255.02,98.72 262.31,110.51 269.41,122.41 C277.57,136.08 285.86,149.68 294.51,163.05 C298.25,168.83 302.06,174.56 305.86,180.29 C306.717,181.806 308.54,182.485 310.18,181.9 C312.18,181.21 314.86,181.04 314.76,177.9 C314.76,176.5 315.3,176.02 316.66,175.55 C327.88,171.7 339.34,168.67 350.6,164.99 C354.54,163.71 358.51,162.49 362.44,161.18 C365.29,160.23 365.5,159.69 364.2,157.13 C361.2,151.28 358.39,145.36 355.78,139.34 C355.23,138.08 354.78,136.88 353.05,136.45 C351.73,136.13 350.93,134.69 350.31,133.38 C346.11,124.62 341.22,116.18 338.07,106.93 C337.955,106.617 337.811,106.316 337.64,106.03 C335.73,102.69 335.48,102.64 332.04,104.33 C324.75,107.91 317.46,111.5 310.11,114.96 C308.57,115.69 307.11,115.39 306.25,113.48 C301.34,102.94 296.34,92.48 291.37,81.93 C289.81,78.63 288.19,75.35 286.7,72.01 C285.85,70.1 284.6,69.87 282.89,70.72 C278.95,72.72 274.99,74.64 271.07,76.66 C269.47,77.48 268.43,78.66 269.21,80.66 C269.467,81.248 269.395,81.929 269.02,82.45 C266.44,80.91 266.77,78.02 265.83,75.75 C267.499,75.937 269.184,75.587 270.64,74.75 C274.4,72.4 278.55,70.93 282.54,69.11 C289.18,66.11 295.82,63.06 302.49,60.11 C304.49,59.2 305.28,57.98 304.39,55.8 C302.82,51.96 301.13,48.16 299.91,44.21 C297.374,36.403 294.2,28.817 290.42,21.53 C290.13,20.94 289.87,20.2 289,20.44 C287.51,20.88 287.22,19.84 286.74,18.83 C284.64,14.48 282.49,10.17 280.34,5.83 C279.66,4.45 278.67,3.83 277.1,4.59 C275.53,5.35 274.93,6.24 275.87,7.93 C276.64,9.32 276.65,10.64 274.87,11.43 C270.79,13.28 266.75,15.22 262.64,16.98 C261.927,17.386 261.072,17.458 260.302,17.177 C259.531,16.896 258.923,16.29 258.64,15.52 C257.91,14.03 256.94,12.66 256.25,11.15 C255.56,9.64 254.68,9.52 253.25,10.15 C250.48,11.46 247.67,12.68 244.85,13.88 C242.03,15.08 241.73,15.6 243.17,18.52 C243.46,19.12 243.78,19.7 244.03,20.32 C244.41,21.32 244.31,22.23 243.26,22.62 C241.1,23.41 240.99,24.67 242.06,26.46 C242.23,27.013 242.291,27.594 242.24,28.17 C239.24,24.45 239.24,24.43 235.03,27.03 C233.47,28.03 231.62,28.28 230.12,29.39 C229.12,30.13 228.33,29.2 227.87,28.48 C224.87,23.75 220.62,19.86 218.44,14.56 C216.63,10.15 213.32,6.67 210.9,2.64 C210.335,1.924 209.948,1.084 209.77,0.19 L221.26,0.19 C221.48,1.97 221.94,3.74 223.94,4.13 C225.94,4.52 229.32,2.26 230.25,0.19 L246.73,0.19 C246.54,3.09 247.97,5.11 250.21,6.69 C250.46,9.19 252.14,8.28 253.31,7.83 C257.31,6.26 260.77,3.56 264.84,2.1 C265.666,1.831 266.224,1.059 266.22,0.19 L290.7,0.19 C290.724,1.197 291.052,2.173 291.64,2.99 C294.35,8.31 297.12,13.61 299.8,18.99 Q333.59,86.51 367.37,153.99 C369.05,157.33 370.63,160.72 372.26,164.09 C371.983,164.267 371.692,164.421 371.39,164.55 Q347.12,173.06 322.83,181.55 C307.04,187.12 291.29,192.81 275.47,198.3 C270.79,199.92 266.26,202.03 261.35,202.95 C261.35,201.64 261.44,200.33 261.48,199.02 C263.98,199.02 266.1,197.7 268.31,196.85 C279.07,192.71 289.95,188.91 300.81,185.05 C303.54,184.05 303.81,183.05 302.11,180.69 C294.7,170.08 287.88,159.1 280.99,148.16 C270.51,131.53 261.1,114.24 249.75,98.16 C241.58,86.6 232.7,75.58 223.99,64.42 C216.48,54.79 206.53,48.64 196.43,42.42 C187.068,36.758 178.14,30.407 169.72,23.42 C162.52,17.3 156.94,9.78 151.03,2.53 C150.48,1.886 150.223,1.042 150.32,0.2 z M293.93,78.26 C294.437,78.197 294.936,78.083 295.42,77.92 Q302.77,74.92 310.1,71.83 C312.51,70.83 312.9,69.52 311.68,67.11 C310.293,64.31 306.945,63.102 304.09,64.37 C302.94,64.84 301.8,65.37 300.62,65.74 C298.493,66.28 296.723,67.749 295.8,69.74 C295.21,70.972 293.976,71.765 292.61,71.79 C291.26,71.94 289.84,72.17 289.87,73.99 C289.838,75.094 290.247,76.166 291.007,76.967 C291.767,77.769 292.816,78.234 293.92,78.26 z M240.34,3.26 C240.003,3.26 239.667,3.3 239.34,3.38 C234.276,5.684 229.375,8.33 224.67,11.3 C224.231,11.567 223.934,12.016 223.859,12.524 C223.783,13.032 223.938,13.547 224.28,13.93 C224.739,14.623 225.146,15.348 225.5,16.1 C226.02,17.23 226.82,17.61 227.9,16.99 C232.56,14.29 237.78,12.69 242.29,9.68 C243.48,8.89 244.24,8.06 243.7,6.68 C243.246,5.037 241.969,3.748 240.33,3.28 z M313.6,82.26 C316.522,82.369 319.325,81.099 321.17,78.83 C322.5,77.27 321.49,75.53 320.73,73.99 C320.588,73.683 320.3,73.468 319.965,73.419 C319.63,73.371 319.293,73.495 319.07,73.75 C317.47,75.34 315.27,75.68 313.32,76.53 C312.47,76.9 310.9,77.02 311.55,78.64 C312.2,80.26 312.07,82.3 313.59,82.28 z" fill="#FEFEFE"/>
    <path d="M174.84,262.11 C163,268.11 151.12,273.79 139.47,280.03 C126.87,286.78 114.37,293.69 102.25,301.25 C78.38,316.15 55.38,332.35 32.33,348.46 C26.49,352.54 20.66,356.63 15.03,360.99 C12.718,362.605 10.314,364.085 7.83,365.42 C5.18,366.69 3.42,369.64 0.07,369.52 L0.07,346.04 C2.17,345.86 3.71,344.49 5.32,343.4 C17.21,335.4 29.32,327.52 40.85,319.05 Q67.43,299.64 95.62,282.72 C107.62,275.49 119.9,268.62 132.28,262 C144.51,255.45 156.89,249.19 169.55,243.49 C174.24,241.38 178.72,238.79 183.27,236.37 C184.01,235.83 184.916,235.568 185.83,235.63 Q190.59,243.27 195.32,250.91 C195.47,251.14 195.4,251.51 195.42,251.81 C195.31,252.69 194.49,252.76 193.94,253.13 C192.74,253.62 192.6,251.96 191.7,251.87 C191.376,252.415 191.357,253.088 191.65,253.65 C193.27,259.17 194.86,264.71 196.52,270.22 C196.74,270.92 196.69,271.97 197.82,272.12 L197.95,273.12 C197.63,273.627 197.544,274.247 197.715,274.822 C197.885,275.396 198.295,275.87 198.84,276.12 L199.4,278.12 C198.978,280.471 199.681,282.884 201.3,284.64 Q205.3,300.48 209.37,316.32 C210.03,318.91 210.1,321.65 211.37,324.09 L210.42,324.59 C210.31,324.47 210.14,324.37 210.1,324.23 Q204.1,302.96 198.1,281.69 Q194.49,268.91 190.94,256.1 C190.46,254.4 189.94,253.7 188.11,255 C184.68,257.44 181.11,259.62 177.5,261.85 C176.785,262.14 176.368,262.889 176.5,263.65 C175.76,263.3 176,261.94 174.84,262.11 z M181.84,256.53 C180.413,256.806 179.211,257.762 178.62,259.09 C180.32,258.32 181.44,257.89 181.92,256.63 C182.37,256.53 182.92,256.73 183.16,256.12 C183.157,255.977 183.082,255.845 182.96,255.77 C182.41,255.72 182.14,256.16 181.88,256.57 z" fill="#C0C0C0"/>
    <path d="M261.47,203.11 C266.38,202.19 270.91,200.11 275.59,198.46 C291.41,192.97 307.16,187.28 322.95,181.71 Q347.22,173.16 371.51,164.71 C371.812,164.581 372.103,164.427 372.38,164.25 L374.22,164.25 C374.23,164.407 374.23,164.563 374.22,164.72 C374.22,165.44 374.14,166.25 375.04,166.51 C375.59,166.67 375.63,166.13 375.72,165.76 C377.83,164.35 381.95,165.11 381.22,160.65 C383.67,161.04 385.76,159.82 387.92,159.05 C404.17,153.27 420.39,147.4 436.63,141.56 C438.23,140.901 439.912,140.461 441.63,140.25 L441.63,161.25 L411.08,171.79 L346.22,194.23 C344.78,194.75 344.29,192.82 343.44,192.9 C341.45,193 339.523,193.632 337.86,194.73 C336.62,195.6 337.47,197.04 337.21,198.2 C334.21,197.91 331.55,199.36 328.85,200.3 Q299.36,210.59 269.85,221.11 C269,221.41 268.17,221.8 267.33,222.11 L265.85,222.11 C265.32,220.65 264.35,220.37 262.85,220.8 C259.74,221.72 258.93,222.7 258.79,226.12 C257.73,225.29 256.49,225.75 255.33,225.63 C255.28,224.688 255.612,223.765 256.25,223.07 C256.71,223.64 257.25,223.83 258.05,223.21 L256.25,223.08 C258.59,216.58 260.84,210.05 261.47,203.11 z" fill="#C0C0C0"/>
    <path d="M37,53.81 C37.45,55.18 36.13,56.06 36,57.27 L35.5,57.77 C33,59.57 33.67,62.25 36.99,63.77 C39.53,66.4 40.07,70.02 41.63,73.14 C43.09,76.06 41.63,81.75 38.74,83.36 C31.89,87.22 25.02,91.06 18.18,94.94 C14.5,97.02 11.18,96.32 8.62,92.94 C6.929,90.495 5.516,87.869 4.41,85.11 C3.41,82.76 2.66,80.11 0.07,78.74 L0.07,61.27 C2.17,61.77 4.97,61.64 4.98,64.7 C5.047,67.016 5.675,69.28 6.81,71.3 C9.123,75.795 11.722,80.137 14.59,84.3 C14.72,85.81 15.53,85.84 16.59,85.22 C21.59,82.37 26.59,79.54 31.59,76.66 C32.37,76.22 32.81,75.66 31.53,75.19 C30.95,72.73 29.59,70.64 28.4,68.46 C25.24,62.7 22.22,56.89 16.57,53.03 C15.256,52.229 14.467,50.789 14.5,49.25 C15.5,48.06 16.5,46.89 17.39,45.69 C18.28,44.49 17.82,43.96 16.52,43.78 C16.52,42.72 15.7,42.17 15.04,41.58 C11.39,38.36 7.68,35.2 4.04,31.97 C2.96,30.97 1.74,30.12 2.54,28.21 C3.63,25.63 3.1,25.02 0.05,24.8 C0.05,17.33 0.14,9.86 -0.02,2.39 C-0.02,0.45 0.56,0.28 2.21,0.29 C20.81,0.35 39.4,0.29 58,0.29 C56.57,2.61 57.2,4.56 58.9,6.47 C59.811,7.541 60.609,8.704 61.28,9.94 C62.34,11.63 63.859,12.982 65.66,13.84 C71.66,17.13 72.56,23.6 75.06,29.06 C75.06,29.12 75.06,29.21 75,29.29 C74.8,31.88 73.25,33.19 71,34.36 C67.3,36.31 63.72,38.48 59.92,40.23 C58.85,40.23 57.7,40.48 56.92,39.46 C53.72,35.2 50.03,31.26 48.92,25.74 C48.35,22.95 47.46,20.13 44.48,18.74 C44.4,18.25 44.23,17.5 43.64,18.01 C40.77,20.46 37.46,22.52 35.92,26.23 C34.32,27.1 34.33,29.15 33,30.23 C32.52,30.33 31.91,30.28 31.58,30.56 C28.319,33.519 25.308,36.743 22.58,40.2 C22.31,40.53 21.79,41.07 22.31,41.5 C23.02,42.09 23.55,41.5 23.96,40.95 C24.96,39.71 25.48,37.95 27.48,37.72 C27.229,40.128 27.981,42.534 29.56,44.37 C31.17,46.56 32.75,48.77 34.35,50.97 C35.16,52.05 35.69,53.31 37,53.81 z" fill="#FEFEFE"/>
    <path d="M176.45,263.62 C176.318,262.859 176.735,262.11 177.45,261.82 C181.02,259.59 184.63,257.41 188.06,254.97 C189.9,253.67 192.125,252.837 192.605,254.537 Q196.658,270.185 200.258,282.965 Q205.192,303.68 211.192,324.949 C211.192,325.09 210.26,324.44 210.37,324.56 C212.13,332.48 214.62,340.2 216.8,348.01 C221.31,364.1 225.8,380.2 230.43,396.26 C231.66,400.53 232.51,404.92 234.38,408.99 C234.571,409.339 234.731,409.704 234.86,410.08 C236.19,415.59 237.05,421.22 239.35,426.46 C239.383,427.281 239.507,428.096 239.72,428.89 C240.34,432.65 242.26,436.09 242.35,439.96 L223.87,439.96 C223.893,439.051 223.792,438.142 223.57,437.26 Q221.25,429.01 219.04,420.74 Q207.79,378.74 196.55,336.74 C191.09,316.36 185.67,295.96 180.13,275.59 C179,271.6 178.47,267.38 176.45,263.62 z" fill="#E2E2E2"/>
    <path d="M346.28,194.17 L411.14,171.73 L441.69,161.19 L441.69,172.19 C439.4,172.71 437.02,172.97 435.19,174.67 C433.65,175.03 434.19,176.14 434.41,177.04 Q437.31,187.61 440.28,198.17 C440.48,198.87 440.71,199.65 441.69,199.67 L441.69,219.67 C438.85,219.94 435.69,220.12 433.35,218.92 C428.48,216.41 423.79,217 418.94,218.16 C407.94,220.77 397.49,225.16 386.79,228.68 C378.91,231.29 371.13,234.19 363.27,236.86 C359.98,237.98 358.96,237.32 357.97,234.03 C356.98,230.74 355.92,227.37 354.97,224.03 C352.12,214.24 348.34,204.73 346.22,194.73 z M355.79,203.41 C355.759,204.504 355.876,205.598 356.14,206.66 C356.79,210.28 358.42,213.57 359.49,217.05 C360.49,220.31 360.98,220.49 364.13,219.44 C374.99,215.82 385.86,212.24 396.69,208.56 C398.76,207.86 399.84,208.36 400.39,210.42 C400.74,211.7 401.29,212.92 401.65,214.19 C402.01,215.46 402.65,215.77 403.86,215.37 C405.51,214.85 407.23,214.57 408.86,214.11 C412.44,213.11 416.15,212.55 419.56,210.96 C420.78,210.39 421.16,209.79 420.84,208.27 C419.29,200.73 417.28,193.27 415.16,185.93 C414.895,184.305 413.466,183.128 411.82,183.18 C410.331,183.077 408.835,183.236 407.4,183.65 Q398.91,186.48 390.4,189.17 C379.89,192.49 369.65,196.58 359.06,199.66 C357.24,200.19 355.22,200.78 355.79,203.41 z" fill="#FEFEFE"/>
    <path d="M44.52,18.8 C47.52,20.15 48.39,22.97 48.96,25.8 C50.09,31.32 53.78,35.26 56.96,39.52 C57.72,40.52 58.87,40.31 59.96,40.29 C60.96,41.23 61.96,40.86 62.96,40.35 C66.19,38.68 69.44,37.04 72.61,35.26 C75.18,33.81 75.92,31.82 75.05,29.35 C75.05,29.27 75.14,29.18 75.11,29.12 C72.61,23.66 71.75,17.19 65.71,13.9 C63.909,13.042 62.39,11.69 61.33,10 C60.659,8.764 59.861,7.601 58.95,6.53 C57.25,4.62 56.62,2.67 58.05,0.35 L84.05,0.35 C84.4,3.08 86.58,4.92 87.43,7.45 C88.928,11.731 89.794,16.209 90,20.74 C90.17,25.74 90.25,30.74 90,35.74 C89.76,40 89.54,44.32 88,48.42 C86.46,52.52 82.65,54.22 79,55.75 C73.85,57.92 69.13,60.85 64.25,63.5 C60.2,65.71 55.79,66.34 51.01,61.4 C47.41,57.68 42.74,54.45 37.01,53.84 C35.68,53.34 35.15,52.08 34.39,51.04 C32.79,48.84 31.21,46.63 29.6,44.44 C28.021,42.604 27.269,40.198 27.52,37.79 L27.52,37.79 L28.64,37.71 L28.64,37.41 L27.55,37.32 C27.55,36.26 28.33,35.74 28.95,35.13 C30.533,33.718 31.904,32.084 33.02,30.28 C34.35,29.22 34.34,27.17 35.94,26.28 C36.508,26.219 37.043,25.981 37.47,25.6 C40.35,23.86 41.72,20.59 44.52,18.8 z" fill="#E0E0E0"/>
    <path d="M157.43,439.96 C154.86,431.15 153.61,422.03 151.28,413.16 C150.1,408.69 148.98,404.16 148.13,399.63 C147.65,397.08 147.18,394.23 150.59,392.87 C151.75,392.41 151.59,391.16 151.36,390.22 C150.48,386.22 149.84,382.22 148.21,378.49 C146.73,375.06 147.38,373.88 150.99,373.01 C157.67,371.41 164.34,369.78 170.99,368.27 C172.5,367.92 174.41,367.19 175.28,369.39 C176.15,371.59 179.09,373.82 175.88,376.61 C174.19,378.07 174.31,380.86 176.37,383.38 C178.685,386.195 180.324,389.503 181.16,393.05 C181.483,393.921 181.254,394.901 180.58,395.54 C178.629,397.214 177.962,399.945 178.92,402.33 C181.43,409.33 182.42,416.63 184.26,423.76 C184.91,426.27 186.26,426.96 188.35,426.35 C190.75,425.66 191.57,426.74 191.9,428.8 C192.25,431.03 193.41,432.06 195.71,431.27 C197.76,430.56 198.44,432.15 199.01,433.44 C199.905,435.496 200.358,437.717 200.34,439.96 z" fill="#FDFDFD"/>
    <path d="M419.72,423.48 C419.79,426.25 417.27,426.04 415.72,426.85 C414.565,427.307 413.374,427.668 412.16,427.93 C409.69,428.7 408.29,428.04 407.3,425.6 C403.065,415.153 399.54,404.432 396.75,393.51 C393.52,380.92 390.7,368.23 386.92,355.78 C386.66,354.93 385.86,353.87 386.69,352.98 C387.52,352.09 388.69,352.87 389.69,353.11 C391.115,353.545 392.568,353.879 394.04,354.11 C396.524,354.317 398.885,355.285 400.8,356.88 C405.009,360.319 410.295,362.164 415.73,362.09 C420.12,362.17 424.5,361.94 428.91,362.46 C433.542,362.863 437.616,365.685 439.62,369.88 C440.21,370.97 440.06,372.59 441.62,373.06 L441.62,376.06 C440.85,376.07 440.154,376.521 439.83,377.22 C438.713,379.201 436.84,380.644 434.64,381.22 C431.491,382.247 428.575,383.885 426.06,386.04 C424.3,387.48 423.24,389.04 423.99,391.36 C424.458,392.583 423.899,393.96 422.71,394.51 C418.597,397.274 416.466,402.177 417.25,407.07 C417.94,410.5 416.83,414.07 418.4,417.49 C418.68,418.08 417.92,419.17 417.63,420.02 C417.08,420.96 417.63,421.35 418.42,421.65 C419.265,421.826 419.832,422.624 419.72,423.48 z" fill="#E0E0E0"/>
    <path d="M35.54,57.77 L36.04,57.27 C37.77,57.128 39.5,57.53 40.99,58.42 C44.583,60.493 47.966,62.911 51.09,65.64 C53.63,67.75 53.53,69.48 51.53,72.04 C46.429,78.416 43.273,86.127 42.44,94.25 C42.043,99.353 42.52,104.487 43.85,109.43 C44.59,112.64 43.97,114.06 41.05,115.43 C37.838,117.029 35.07,119.396 32.99,122.32 C29.89,126.4 25.59,128.9 21.23,131.32 Q15.7,134.43 10.23,137.59 C6.86,139.53 5.42,139.05 3.56,135.68 C2.56,133.79 2.27,131.36 0.11,130.16 L0.11,78.75 C2.7,80.08 3.41,82.75 4.45,85.12 C5.569,87.881 6.995,90.507 8.7,92.95 C11.22,96.32 14.58,97.02 18.26,94.95 C25.1,91.07 31.97,87.23 38.82,83.37 C41.67,81.76 43.17,76.07 41.71,73.15 C40.15,70.03 39.61,66.41 37.07,63.78 C37.121,62.79 36.759,61.823 36.07,61.11 C35.223,60.212 35.013,58.886 35.54,57.77 z" fill="#E0E0E0"/>
    <path d="M239.36,426.46 C237.06,421.22 236.2,415.59 234.87,410.08 C234.741,409.704 234.581,409.339 234.39,408.99 C234.414,408.321 234.37,407.651 234.26,406.99 C232.13,399.1 230.53,391.08 228.26,383.21 C227.01,378.86 225.37,374.59 224.86,370.05 C225.07,368.93 224.32,367.63 225.86,366.77 C226.67,366.32 225.8,365.26 225.57,364.53 C222.71,355.61 219.46,346.82 217.1,337.73 C216.49,335.35 217.38,334.5 219.41,334.1 C223.29,333.34 226.59,335.27 227.81,339.33 C229.4,344.64 230.69,350.04 232.23,355.33 C235.23,365.67 238.37,375.97 241.33,386.33 C245.55,401.05 249.66,415.81 253.83,430.55 C254.12,431.55 254.51,432.55 254.9,433.55 C255.7,435.64 257.35,436.16 259.35,435.75 C277.95,431.86 296.66,428.49 315.16,424.13 C317.4,423.6 318.44,424.44 318.77,426.61 C318.971,428.424 319.475,430.192 320.26,431.84 C321.26,433.84 320.48,434.84 318.6,435.33 C314.6,436.33 310.6,437.33 306.6,438.4 C305.73,438.64 304.49,438.49 304.27,439.85 L247.85,439.85 C246.96,433.3 246.85,433.71 242.92,433.85 C241.791,432.201 240.962,430.367 240.47,428.43 C240.304,427.677 239.918,426.992 239.36,426.46 z" fill="#E6E6E6"/>
    <path d="M370.75,439.96 C369.979,435.987 368.851,432.091 367.38,428.32 C367.086,427.428 366.446,426.691 365.604,426.275 C364.761,425.859 363.787,425.8 362.9,426.11 C357.76,427.61 352.36,427.55 347.21,429.52 C343.52,430.93 339.05,430.28 335.06,431.52 C332.007,432.565 328.853,433.289 325.65,433.68 C324.45,433.79 323.99,433.68 323.77,432.48 C323.207,429.979 322.872,427.432 322.77,424.87 C322.683,424.204 322.866,423.532 323.28,423.003 C323.694,422.475 324.303,422.135 324.97,422.06 C334.81,419.89 344.65,417.69 354.5,415.57 C367.34,412.8 380.2,410.13 393.03,407.32 C395.03,406.88 396.29,407.32 397.03,409.15 C401.294,419.229 405.033,429.523 408.23,439.99 z" fill="#E0E0E0"/>
    <path d="M0.07,369.52 C3.42,369.64 5.18,366.69 7.83,365.42 C10.314,364.085 12.718,362.605 15.03,360.99 C17.45,365.09 18.76,369.66 20.44,374.06 C24.92,385.76 29.44,397.42 34.44,408.91 C34.87,409.91 35.13,410.96 35.55,411.91 C36.3,413.65 36.04,414.65 33.88,414.46 C32.75,414.36 32.52,415.05 32.48,416.03 C32.559,418.011 32.81,419.982 33.23,421.92 C33.345,422.582 33.426,423.25 33.47,423.92 C33.47,424.38 33.65,425.02 33.01,425.19 C32.37,425.36 32.14,424.81 32.01,424.36 C31.34,422.75 30.7,421.13 30.01,419.51 C29.19,417.44 28.01,416.82 25.57,417.28 C17.43,418.79 10.57,423.28 3.3,426.66 C2.291,427.199 1.163,427.474 0.02,427.46 z" fill="#EFEFEF"/>
    <path d="M346.28,194.17 L346.19,194.7 C344.84,194.45 344.37,194.92 344.78,196.29 C345.41,198.42 345.85,200.63 346.6,202.72 C348.6,208.26 350.11,213.94 351.83,219.57 C353.64,225.51 355.49,231.44 357.25,237.4 C357.86,239.48 358.95,240 360.96,239.17 C362.72,238.43 364.56,237.92 366.38,237.33 C383.57,231.74 400.32,224.88 417.76,220.05 C422.29,218.79 426.76,217.85 431.37,219.72 C434.621,221.13 438.149,221.786 441.69,221.64 L441.69,228.11 C438.116,228.387 434.529,227.786 431.24,226.36 C426.86,224.55 422.56,224.83 418.16,226.36 Q391.16,235.78 364.16,245.07 C361.33,246.07 360.61,247.19 361.51,249.95 C365.26,261.44 368.9,272.95 372.28,284.57 C370.73,286.43 368.36,286.64 366.28,287.43 C364.67,288.05 364.48,286.43 364.14,285.43 C361.92,278.3 359.72,271.16 357.48,264.04 C354.48,254.54 351.25,245.11 348.54,235.53 C345.54,224.91 341.26,214.69 338.63,203.95 C338.16,202.03 337.72,200.1 337.27,198.17 C337.53,197.01 336.68,195.57 337.92,194.7 C339.583,193.602 341.51,192.97 343.5,192.87 C344.35,192.76 344.84,194.69 346.28,194.17 z" fill="#F3F3F3"/>
    <path d="M381.25,160.6 C381.98,165.06 377.86,164.3 375.75,165.7 L374.25,164.7 C374.25,164.55 374.25,164.39 374.25,164.23 C374.18,162.898 373.793,161.602 373.12,160.45 C369.12,152.24 365.19,143.97 360.96,135.88 C355.81,126.05 352.39,115.28 345.37,106.43 L306.37,28.36 C306.11,27.84 305.59,26.96 305.74,26.81 C307.74,24.81 305.95,23.05 305.23,21.49 C304.32,19.49 304.23,16.49 300.76,16.65 C300.57,16.65 300.3,16.2 300.16,15.91 C297.71,10.65 294.38,5.83 292.36,0.34 L301.86,0.34 C302.23,1.26 302.54,2.21 302.98,3.09 C307.32,11.8 311.83,20.42 315.98,29.22 C321.3,40.51 327.12,51.55 332.56,62.78 C333.04,63.78 333.63,64.45 334.83,64.29 C335.16,64.8 335.48,65.29 335.83,65.82 C334.75,66.35 334.74,67.12 335.25,68.07 C335.98,69.46 336.67,70.87 337.37,72.27 C336.37,72.34 335.13,72.04 334.96,73.42 C334.896,74.945 335.565,76.41 336.76,77.36 C337.82,78.36 338.53,77.13 339.37,76.78 C339.556,76.938 339.718,77.124 339.85,77.33 C342.68,83.68 346.85,89.43 348.39,96.33 C348.82,98.26 350.87,98.7 351.48,100.59 C352.38,103.38 353.7,106.07 354.83,108.79 C357.29,114.69 360.26,120.37 363.04,126.13 Q370.69,141.97 378.36,157.79 C378.88,158.88 379.36,159.93 380.89,159.69 z" fill="#E2E2E2"/>
    <path d="M333.78,0.31 C331.62,6.71 336.37,11.06 338.52,16.17 C339.15,17.69 340.19,19.04 340.86,20.55 C341.686,22.559 343.25,24.176 345.23,25.07 C348.153,26.506 349.699,29.768 348.96,32.94 C348.2,36.53 350.96,42.87 354.17,44.45 C355.858,45.238 357.148,46.684 357.74,48.45 C359.19,53 362.19,56.77 363.74,61.24 C364.74,64.06 364.35,65.24 361.59,66.24 C358.83,67.24 356.02,68.05 353.64,69.95 C353.169,70.37 352.528,70.543 351.91,70.417 C351.291,70.291 350.769,69.881 350.5,69.31 C350.014,68.54 349.462,67.814 348.85,67.14 C347.73,65.81 346.62,64.91 344.58,65.63 C343.29,66.08 341.53,66.27 340.52,64.68 C339.51,63.09 338.74,61.34 339.71,59.31 C340.727,57.407 341.272,55.288 341.3,53.13 C341.17,46.97 337.98,42.45 332.07,40.46 L329.94,39.77 C328.84,39.39 328.45,38.7 329.17,37.69 C331.7,34.16 331.17,30.53 329.54,26.88 C328.45,24.45 327.33,22.05 326.13,19.68 C325.64,18.68 324.87,17.6 323.68,17.87 C320.17,18.65 318.61,15.94 316.85,14 C315.057,11.912 313.876,9.368 313.44,6.65 C313.282,5.562 313.717,4.471 314.58,3.79 C315.628,2.94 316.247,1.669 316.27,0.32 z" fill="#F8F8F8"/>
    <path d="M441.69,353.03 C438.853,354.72 435.697,355.803 432.42,356.21 C428.13,356.82 423.84,356.51 419.54,356.39 C419.46,356.39 419.38,356.31 419.31,356.32 C411.43,357 404.88,352.93 397.91,350.32 C397.52,350.18 397.12,350.09 396.72,349.98 C396.55,348.14 395.05,347.2 393.97,345.98 C392.546,344.484 392.032,342.34 392.623,340.361 C393.214,338.382 394.819,336.87 396.83,336.4 C401.11,335.42 405.286,334.031 409.3,332.25 C413.92,330.02 418.66,329.25 423.75,330.86 C425.84,331.506 428.115,331.013 429.75,329.56 C433.2,326.79 437.08,324.74 441.67,324.56 z" fill="#F5F5F5"/>
    <path d="M14.53,49.24 C14.497,50.779 15.286,52.219 16.6,53.02 C22.25,56.88 25.27,62.69 28.43,68.45 C29.62,70.63 30.98,72.72 31.56,75.18 L14.56,84.29 C11.692,80.127 9.093,75.785 6.78,71.29 C5.645,69.27 5.017,67.006 4.95,64.69 C4.95,61.63 2.14,61.76 0.04,61.26 L0.04,24.79 C3.09,25.01 3.62,25.62 2.53,28.2 C1.73,30.11 2.95,31 4.03,31.96 C7.68,35.19 11.39,38.35 15.03,41.57 C15.69,42.16 16.51,42.71 16.51,43.77 C15.978,44.961 15.197,46.025 14.22,46.89 C13.53,47.7 12.78,48.66 14.53,49.24 z" fill="#EFEFEF"/>
    <path d="M441.69,63.76 C437.53,64.31 433.81,66.19 429.93,67.6 C426.05,69.01 425.5,68.6 424.12,64.75 C423.2,62.18 422.18,59.65 421.12,57.13 C420.76,56.28 420.5,55.4 421.38,54.92 C423.24,53.92 422.48,52.61 421.96,51.33 C420.68,48.19 419.35,45.07 418.05,41.94 C416.91,39.22 417.25,38.31 420,37.16 Q425.38,34.92 430.83,32.83 C433.21,31.92 434.34,32.47 435.16,34.96 C436.59,39.28 438.31,43.49 440.07,47.69 C440.42,48.52 440.65,49.25 441.69,49.27 z" fill="#F5F5F5"/>
    <path d="M441.69,324.56 C437.1,324.78 433.22,326.83 429.77,329.56 C428.135,331.013 425.86,331.506 423.77,330.86 C418.68,329.21 413.94,330.02 409.32,332.25 C405.306,334.031 401.13,335.42 396.85,336.4 C394.839,336.87 393.234,338.382 392.643,340.361 C392.052,342.34 392.566,344.484 393.99,345.98 C395.07,347.21 396.57,348.15 396.74,349.98 C391.42,350.48 386.74,349.41 383.04,345.1 C381.351,343.046 380.225,340.59 379.77,337.97 C379.39,336.07 380.59,335.47 382.09,335.12 C385.95,334.22 389.93,333.65 393.66,332.36 C403.18,329.08 413.01,326.94 422.58,323.87 C428.88,321.87 435.32,320.28 441.71,318.51 z" fill="#E0E0E0"/>
    <path d="M292.31,0.31 C294.31,5.8 297.66,10.62 300.11,15.88 C300.25,16.17 300.52,16.63 300.71,16.62 C304.15,16.42 304.27,19.47 305.18,21.46 C305.9,23.02 307.71,24.78 305.69,26.78 C305.54,26.93 306.06,27.78 306.32,28.33 L345.32,106.4 C352.32,115.25 355.76,126.02 360.91,135.85 C365.14,143.94 369.07,152.21 373.07,160.42 C373.743,161.572 374.13,162.868 374.2,164.2 L372.35,164.2 C370.72,160.83 369.14,157.44 367.46,154.1 Q333.7,86.57 299.89,19.1 C297.21,13.76 294.44,8.46 291.73,3.1 C291.142,2.283 290.814,1.307 290.79,0.3 z" fill="#E2E2E2"/>
    <path d="M441.69,382.01 L441.69,402.49 C441.607,402.474 441.523,402.474 441.44,402.49 C438.63,404.11 436.44,407.17 432.5,406.14 C432.34,406.14 432.1,406.39 431.9,406.53 C428.25,409.1 425.81,408.66 423.47,404.98 C423.15,404.48 422.89,403.98 422.2,403.98 C422.248,401.62 423.066,399.341 424.53,397.49 C426.14,395.24 427.61,393.03 427.7,390.16 C427.81,386.62 428.44,385.93 431.93,386.02 C435.02,386.1 437.88,385.93 439.7,382.88 C440.192,382.296 440.927,381.974 441.69,382.01 z" fill="#F5F5F5"/>
    <path d="M419.72,423.48 C419.86,422.631 419.325,421.817 418.49,421.61 C417.72,421.31 417.15,420.92 417.7,419.98 C420.12,419.42 420.7,417.49 419.24,414.58 C417.65,411.34 417.84,411.04 421.46,410.99 C423.04,410.99 424.72,411.1 425.2,408.99 C427.013,409.557 428.93,409.711 430.81,409.44 C434.57,409.05 438.58,407.19 441.45,411.44 C441.45,411.44 441.6,411.44 441.69,411.44 L441.69,421.44 C438.26,424.14 434.25,424.11 430.19,423.95 C428.03,423.87 425.87,423.95 423.71,423.95 C422.36,423.96 421.1,423.22 419.72,423.48 z" fill="#F5F5F5"/>
    <path d="M176.45,263.62 C178.45,267.38 179.04,271.62 180.13,275.62 C185.67,295.99 191.13,316.39 196.55,336.77 Q207.79,378.77 219.04,420.77 Q221.26,429.03 223.57,437.29 C223.792,438.172 223.893,439.081 223.87,439.99 L221.87,439.99 C221.909,439.166 221.828,438.341 221.63,437.54 C218.47,429.64 217.72,421.14 215.46,413.01 C208.85,389.24 202.57,365.38 196.17,341.56 Q189.28,315.89 182.42,290.23 Q178.64,276.23 174.83,262.23 C176,261.94 175.76,263.3 176.45,263.62 z" fill="#E2E2E2"/>
    <path d="M11.06,439.96 C10.92,437.68 9.58,435.96 8.35,434.19 C7.12,432.42 7.45,431.4 9.35,430.57 C12.84,429.05 16.35,427.48 19.76,425.84 C21.134,425.26 22.335,424.337 23.25,423.16 C24.6,421.28 26.54,421.5 27.54,423.62 C28.37,425.42 28.93,427.34 29.65,429.19 C30.48,431.3 31.59,433.1 34.27,432.98 C34.77,432.98 35.27,432.98 35.4,433.68 C35.475,434.198 35.167,434.696 34.67,434.86 C32.67,435.61 31.55,437.25 30.51,438.97 C29.4,437.44 28.2,435.97 27.2,434.36 C25.79,432.13 24.13,432.24 22.2,433.53 C19.87,435.08 17.51,436.59 15.2,438.15 C14.42,438.67 13.2,438.68 13.06,439.96 z" fill="#F8F8F8"/>
    <path d="M86,439.96 C85.337,437.215 84.222,434.599 82.7,432.22 C81.953,430.93 81.334,429.57 80.85,428.16 C80.44,427.16 80.38,425.93 79.76,425.16 C75.06,419.01 73.51,411.36 70.08,404.58 C64.34,393.28 58.58,381.93 53.96,370.08 C53.451,368.399 52.549,366.864 51.33,365.6 C50.841,365.259 50.552,364.697 50.56,364.1 C50.86,361.03 49.39,358.74 47.56,356.49 C45.18,353.61 44.68,350.08 44.25,346.57 L44.91,346.33 C46.75,350.18 48.63,354.01 50.42,357.88 C54.15,365.88 57.68,374.07 61.68,382 C66.19,391 70.1,400.24 74.42,409.31 C78.53,417.91 82,426.82 86.58,435.21 C87.4,436.71 88.52,438.15 88.52,440 z" fill="#EFEFEF"/>
    <path d="M94,439.96 C92.09,435.82 90.12,431.71 88.29,427.53 C83.62,416.81 79.07,406.04 74.37,395.33 C72.14,390.23 69.72,385.22 67.37,380.19 C63.63,372.19 59.62,364.4 56.16,356.31 C55.061,353.613 53.597,351.079 51.81,348.78 C50.61,347.29 50.66,345.32 49.36,343.97 C49.02,343.62 49.21,343.18 49.57,342.89 C49.729,342.751 49.936,342.681 50.147,342.696 C50.357,342.711 50.553,342.81 50.69,342.97 C51.361,343.467 51.889,344.133 52.22,344.9 C54.02,349.9 57.27,354.07 59.41,358.82 C69.03,380.16 79.79,400.97 88.26,422.82 C89.97,427.23 92.16,431.44 94.15,435.74 C94.893,437.036 95.357,438.474 95.51,439.96 z" fill="#EFEFEF"/>
    <path d="M425.2,408.99 C424.72,411.1 423.04,410.99 421.46,410.99 C417.84,410.99 417.65,411.34 419.24,414.58 C420.67,417.49 420.12,419.42 417.7,419.98 C417.99,419.13 418.75,418.04 418.47,417.45 C416.9,414.07 418.01,410.45 417.32,407.03 C416.536,402.137 418.667,397.234 422.78,394.47 C423.969,393.92 424.528,392.543 424.06,391.32 C423.31,388.96 424.37,387.44 426.13,386 C428.645,383.845 431.561,382.207 434.71,381.18 C436.91,380.604 438.783,379.161 439.9,377.18 C440.223,376.481 440.92,376.03 441.69,376.02 L441.69,382.02 C440.922,381.983 440.182,382.309 439.69,382.9 C437.87,385.95 435.01,386.12 431.92,386.04 C428.43,385.95 427.8,386.64 427.69,390.18 C427.6,393.05 426.13,395.26 424.52,397.51 C423.056,399.361 422.238,401.64 422.19,404 C421.661,404.267 421.268,404.744 421.109,405.315 C420.949,405.886 421.036,406.497 421.35,407 C422.068,408.426 423.621,409.23 425.2,408.99 z" fill="#FCFCFC"/>
    <path d="M412.71,439.96 C412.55,438.03 413.39,437.03 415.28,436.32 C420.53,434.32 426.05,433.8 431.51,433.02 C434.955,432.649 438.361,431.98 441.69,431.02 C441.69,433.52 441.61,436.02 441.69,438.51 C441.75,439.77 441.41,440.06 440.16,440.05 C431,439.94 421.87,439.96 412.71,439.96 z" fill="#E6E6E6"/>
    <path d="M334.78,64.26 C333.58,64.42 332.99,63.75 332.51,62.75 C327.07,51.52 321.25,40.48 315.93,29.19 C311.78,20.39 307.27,11.77 302.93,3.06 C302.49,2.18 302.18,1.23 301.81,0.31 L303.81,0.31 C303.63,1.4 304.26,2.22 304.7,3.1 Q319.22,32.42 333.76,61.75 C334.15,62.56 334.44,63.42 334.78,64.26 z" fill="#E2E2E2"/>
    <path d="M423.71,423.98 C425.87,423.98 428.03,423.91 430.19,423.98 C434.25,424.14 438.26,424.17 441.69,421.47 L441.69,426.96 C433.02,429.42 424.06,430.07 415.09,431.06 C416.9,430.31 418.66,429.43 420.52,428.86 C423.05,428.11 423.91,426.43 423.71,423.98 z" fill="#E6E6E6"/>
    <path d="M0.07,251.11 C3.26,252.28 3.89,255.51 5.43,257.95 C8.43,262.72 10.77,267.95 14.14,272.42 C17.03,276.26 18.31,280.81 20.89,284.7 C22.662,287.205 24.104,289.927 25.18,292.8 C25.36,293.35 25.79,293.97 25.18,294.37 C24.57,294.77 24.18,294.1 23.83,293.68 C22.979,292.767 22.301,291.706 21.83,290.55 C18.56,282.98 13.72,276.31 9.58,269.23 C7.11,265 4.64,260.79 2.49,256.38 C1.98,255.38 1.49,254.21 0.11,254.11 z" fill="#EFEFEF"/>
    <path d="M420.7,0.31 C420.79,1.82 419.95,2.46 418.61,2.93 C415.714,3.887 412.928,5.151 410.3,6.7 C407.51,8.4 405.81,8.85 404.22,4.85 C403.523,3.44 403.18,1.882 403.22,0.31 z" fill="#EFEFEF"/>
    <path d="M336.28,439.96 C336.09,438.46 337.1,437.96 338.28,437.54 C342.52,436.13 346.79,434.8 350.99,433.3 C351.513,433.024 352.133,433.002 352.674,433.24 C353.215,433.477 353.619,433.949 353.77,434.52 C354.669,436.199 355.185,438.057 355.28,439.96 z" fill="#F5F5F5"/>
    <path d="M435.19,174.66 C437.02,172.96 439.4,172.66 441.69,172.18 L441.69,195.18 C440.4,195.05 440.5,193.88 440.28,193.11 C438.54,186.96 436.88,180.81 435.19,174.66 z" fill="#F5F5F5"/>
    <path d="M0.07,322.56 C4.07,323.39 7.9,323.4 11.59,321.32 C12.554,320.678 13.449,319.938 14.26,319.11 C15.04,318.42 15.96,318.22 16.67,319.05 C17.38,319.88 16.67,320.76 15.95,321.29 C13.326,323.29 10.566,325.105 7.69,326.72 C6.37,327.403 5.146,328.257 4.05,329.26 C2.991,330.338 1.56,330.971 0.05,331.03 z" fill="#EFEFEF"/>
    <path d="M0.07,265.6 C2,265.848 3.513,267.378 3.74,269.31 C4.18,271.31 6,272.91 7,274.81 C10.47,281.41 14.74,287.58 17.74,294.44 C17.889,294.828 18.012,295.226 18.11,295.63 C18.24,296.07 18.7,296.63 18.05,296.92 C17.4,297.21 16.95,296.76 16.64,296.23 C15.79,294.8 14.87,293.41 14.15,291.92 C11.41,286.31 7.93,281.14 4.87,275.72 C4.09,274.35 3.81,272.77 2.87,271.46 C2.262,270.466 1.25,269.787 0.1,269.6 z" fill="#EFEFEF"/>
    <path d="M13.05,439.96 C13.18,438.68 14.41,438.67 15.19,438.15 C17.53,436.59 19.89,435.08 22.19,433.53 C24.13,432.24 25.79,432.13 27.19,434.36 C28.19,435.96 29.39,437.44 30.5,438.97 L30.5,439.97 z" fill="#EFEFEF"/>
    <path d="M250.33,6.81 C248.09,5.23 246.66,3.21 246.85,0.31 L261.85,0.31 C261.99,1.066 261.697,1.837 261.09,2.31 C257.86,4.67 254.45,6.59 250.33,6.81 z" fill="#F3F3F3"/>
    <path d="M425.2,408.99 C423.622,409.223 422.073,408.416 421.36,406.99 C421.046,406.487 420.959,405.876 421.119,405.305 C421.279,404.734 421.671,404.257 422.2,403.99 C422.89,403.99 423.15,404.51 423.47,404.99 C425.81,408.67 428.25,409.11 431.9,406.54 C432.1,406.4 432.34,406.11 432.5,406.15 C436.41,407.15 438.63,404.15 441.44,402.5 C441.523,402.484 441.607,402.484 441.69,402.5 L441.69,411.5 C441.6,411.5 441.48,411.5 441.45,411.5 C438.58,407.23 434.57,409.09 430.81,409.5 C428.925,409.751 427.008,409.577 425.2,408.99 z" fill="#EBEBEB"/>
    <path d="M435.19,0.31 C437.36,0.31 440.37,-0.53 441.45,0.55 C442.53,1.63 441.69,4.64 441.69,6.81 L441.69,15.81 C441.179,15.803 440.725,15.481 440.55,15 C438.233,10.313 436.436,5.387 435.19,0.31 z" fill="#E2E2E2"/>
    <path d="M435.19,0.31 C436.436,5.384 438.234,10.307 440.55,14.99 C440.725,15.471 441.179,15.793 441.69,15.8 L441.69,21.3 C440.43,21.44 440.17,20.39 439.86,19.61 Q436.29,10.61 432.86,1.54 C432.761,1.138 432.714,0.724 432.72,0.31 z" fill="#C0C0C0"/>
    <path d="M435.19,174.66 C436.88,180.81 438.54,186.96 440.28,193.09 C440.5,193.86 440.4,195.03 441.69,195.16 L441.69,199.66 C440.69,199.66 440.48,198.86 440.28,198.16 Q437.28,187.6 434.41,177.03 C434.16,176.11 433.65,175.02 435.19,174.66 z" fill="#E2E2E2"/>
    <path d="M318.79,439.96 C318.55,438.25 319,437.24 320.98,436.89 C322.807,436.42 324.59,435.794 326.31,435.02 C326.18,436.76 327.01,438.31 327.31,439.96 z" fill="#F3F3F3"/>
    <path d="M250.33,6.81 C254.45,6.59 257.86,4.67 261.08,2.3 C261.687,1.827 261.98,1.056 261.84,0.3 L266.34,0.3 C266.344,1.169 265.786,1.941 264.96,2.21 C260.89,3.67 257.44,6.37 253.43,7.94 C252.26,8.4 250.58,9.31 250.33,6.81 z" fill="#EFEFEF"/>
    <path d="M230.37,0.31 C229.44,2.38 226.1,4.65 224.06,4.25 C222.02,3.85 221.6,2.09 221.38,0.31 z" fill="#EBEBEB"/>
    <path d="M242.92,434.01 C246.92,433.82 246.92,433.41 247.85,440.01 L244.36,440.01 z" fill="#FDFDFD"/>
    <path d="M242.92,434.01 L244.36,440.01 L242.36,440.01 C242.27,436.14 240.36,432.7 239.73,428.94 C239.517,428.146 239.393,427.331 239.36,426.51 C239.947,427.084 240.335,427.83 240.47,428.64 C240.967,430.559 241.796,432.377 242.92,434.01 z" fill="#E2E2E2"/>
    <path d="M327.28,439.96 C327.01,438.31 326.18,436.76 326.28,435.02 C328.94,435.75 328.35,438.11 328.75,439.96 z" fill="#E2E2E2"/>
    <path d="M249.3,329.9 C252,329.69 253,331.08 253.4,333.55 C254.14,338.11 255.07,342.64 255.98,347.18 C256.75,350.99 258.07,351.74 261.79,350.47 C267.45,348.55 273.08,346.55 278.73,344.63 C283.73,342.94 284.97,343.47 288.01,347.81 C289.63,350.13 291.71,351.91 294.85,351.53 C296.547,351.204 298.22,352.195 298.75,353.84 C303.601,364.301 307.322,375.249 309.85,386.5 C311.19,392.5 313.02,398.33 314.42,404.29 C315.42,408.38 316.06,412.55 316.72,416.7 C317.06,418.88 315.67,420.33 312.78,420.97 C306.33,422.42 299.88,423.87 293.41,425.18 C282.72,427.34 272,429.33 261.33,431.53 C259.2,431.97 258.33,431.37 257.73,429.39 C255.15,420.31 252.51,411.25 249.87,402.18 C246.47,390.49 243.14,378.78 239.62,367.13 C236.51,356.83 233.13,346.6 230.76,336.13 C230.32,334.13 231.11,333.08 232.71,332.78 C238.21,331.67 243.76,330.82 249.3,329.9 z" fill="#E0E0E0"/>
    <path d="M348.57,355.11 C358.24,354.79 367.92,354.59 377.34,351.82 C380.83,350.82 381.78,351.57 382.85,355.16 C386.99,369.05 390.44,383.16 393.85,397.16 C393.954,397.895 394.104,398.624 394.3,399.34 C395.24,401.84 393.9,402.91 391.76,403.41 Q382.94,405.41 374.1,407.41 C364.01,409.64 353.91,411.81 343.81,414.04 C337.6,415.42 331.4,416.85 325.19,418.24 C322.83,418.77 321.32,417.88 320.8,415.47 C317.63,400.74 313.87,386.15 309.8,371.65 C309.31,369.9 308.58,368.21 308.05,366.47 C307.21,363.63 307.81,362.47 310.57,361.47 C319.854,358.144 329.545,356.092 339.38,355.37 C342.44,355.23 345.5,355.11 348.57,355.11 z" fill="#E0E0E0"/>
    <path d="M256.3,223.11 C255.662,223.805 255.33,224.728 255.38,225.67 Q252.03,232.13 248.68,238.61 C239.835,253.559 229.61,267.647 218.14,280.69 C211.06,272.82 204.89,264.47 198.72,256.12 C197.72,254.64 197.06,252.85 195.42,251.83 C195.42,251.53 195.47,251.16 195.32,250.93 Q190.6,243.28 185.83,235.65 C182.83,229.39 179.89,223.13 177.51,216.65 C175.63,209.96 174.34,203.19 174.76,196.19 C175.75,186.756 179.646,177.863 185.91,170.74 C192.33,164.19 199.83,159.55 208.91,157.63 C221.39,154.884 234.445,157.791 244.581,165.573 C254.717,173.354 260.898,185.215 261.47,197.98 C261.47,198.39 261.56,198.8 261.61,199.22 C261.61,200.53 261.52,201.84 261.48,203.15 C260.85,210.1 258.6,216.63 256.31,223.15 z M218,261.21 C222.57,256.46 234.12,239.36 239.3,229.78 C242.97,222.97 246.24,215.99 248.05,208.43 C250.89,196.58 248.34,186.06 239.47,177.58 C230.92,169.4 220.57,167.05 209.24,170.27 C194,174.62 182.79,191.11 188.69,210.38 C192.43,222.59 198.77,233.46 205.69,244.05 Q211.44,252.9 218,261.21 z" fill="#000000"/>
    <path d="M198.72,256.11 C204.89,264.46 211.06,272.81 218.14,280.68 C229.61,267.637 239.835,253.549 248.68,238.6 C250.09,238.6 251.32,239.08 251.29,240.6 C251.23,242.98 252.22,244.77 253.22,246.88 C254.94,250.52 256.6,254.46 256.33,258.73 C256.32,260.764 256.873,262.762 257.93,264.5 C260.28,269.25 262.37,274.21 261.86,279.77 C261.74,281.16 261.6,282.56 263.26,283.44 C263.932,283.942 264.378,284.69 264.5,285.52 C265.02,288.52 266.58,291.23 267.26,294.19 C267.72,296.19 268.21,297.94 270.09,299.19 C271.36,300.03 271.64,301.71 271.79,303.19 C271.888,303.775 271.721,304.373 271.335,304.823 C270.949,305.273 270.383,305.528 269.79,305.52 C268.87,305.498 267.982,305.861 267.34,306.52 C261.82,307.52 256.68,309.82 251.34,311.52 C247.06,311.73 243.15,313.39 239.13,314.63 C231.78,316.91 224.7,319.96 217.31,322.16 C214.74,322.93 213.64,321.75 213.05,319.74 C211.58,314.74 210.28,309.74 208.89,304.74 C206.51,296.12 204.08,287.52 201.08,279.1 C200.95,278.72 201.29,277.1 199.87,278.1 L199.39,278.1 C199.2,277.44 199.02,276.78 198.83,276.1 L198.89,274.57 C199.59,274.01 199.35,273.22 199.38,272.5 C199.453,268.729 198.916,264.97 197.79,261.37 C197.28,259.54 196.58,257.54 198.72,256.11 z" fill="#EFEFEF"/>
    <path d="M403.36,242.7 C404.61,242.405 405.894,243.038 406.42,244.21 C407.42,246.21 408.83,246.21 410.76,245.59 C414.46,244.4 418.26,243.59 421.98,242.42 C423.47,241.97 424.26,242.5 424.63,243.79 C426.23,249.27 427.72,254.79 429.35,260.25 C429.73,261.55 429.6,262.18 428.24,262.69 C423.42,264.51 418.39,265.56 413.47,267.01 C412.31,267.36 411.08,267.33 410.65,265.5 C410.07,263.02 409,262.5 406.38,263.31 C397.1,266.08 387.8,268.82 378.58,271.78 C376.52,272.45 375.49,272.12 374.77,270.19 C372.903,264.969 371.406,259.622 370.29,254.19 C369.94,252.59 371.24,252.31 372.39,251.99 C378.13,250.37 383.87,248.8 389.58,247.09 C393.79,245.84 397.95,244.41 402.13,243.09 C402.68,242.9 403.23,242.74 403.36,242.7 z" fill="#EFEFEF"/>
    <path d="M258.84,226.11 C258.98,222.69 259.84,221.71 262.9,220.79 C264.35,220.36 265.32,220.64 265.9,222.1 C265.941,222.592 266.018,223.08 266.13,223.56 Q271.71,243.4 277.33,263.23 Q285.33,291.54 293.33,319.85 C295.83,328.68 298.71,337.42 300.33,346.48 C298.33,346.9 296.48,348.07 294.33,348.03 C294.24,347.54 294.2,347.03 294.07,346.57 C290.5,334.16 286.89,321.77 283.37,309.35 Q275,280.01 266.8,250.61 C264.74,243.21 262.11,235.96 260.8,228.36 C260.62,227.31 260.26,226.2 258.8,226.14 z" fill="#E2E2E2"/>
    <path d="M307.2,358.5 C306.491,358.618 305.774,358.347 305.32,357.79 C303.748,355.963 302.582,353.822 301.9,351.51 C301.8,351.14 301.83,350.41 302,350.35 C304.3,349.46 305.37,346.77 308.16,346.49 C314.07,345.89 319.94,345.02 325.84,344.27 C332.84,343.39 339.6,341.52 346.68,341.48 C348.577,341.378 350.455,341.042 352.27,340.48 C355.841,339.587 359.5,339.091 363.18,339 C365.723,338.777 368.249,338.386 370.74,337.83 C371.31,337.73 371.88,337.64 372.45,337.58 C374.81,337.32 376.6,337.42 376.39,340.75 C376.3,342.34 377.3,344.09 378.08,345.63 C378.86,347.17 378.61,347.95 376.91,348.24 C372.44,349.01 368,349.95 363.51,350.53 C355.19,351.6 346.77,350.65 338.44,351.59 C328.32,352.72 318.31,354.42 308.75,358.09 C308.2,358.27 307.71,358.61 307.2,358.5 z" fill="#E0E0E0"/>
    <path d="M276.33,308.11 C276.733,312.395 277.838,316.584 279.6,320.51 C280.8,323.1 280,324.82 277.9,326.19 C276.481,327.202 275.18,328.369 274.02,329.67 C271.43,332.31 271.02,335.42 272.88,338.67 C274.47,341.56 274.16,342.24 271.05,343.23 C268.37,344.09 265.76,345.23 263.05,345.98 C260.34,346.73 259.77,346.16 259.31,343.4 C258.55,338.77 257.68,334.15 256.82,329.54 C256.6,328.4 256.34,327.2 254.82,327.05 C253.11,324.05 252.66,320.39 250.23,317.77 C248.83,316.26 249.66,315.54 251.04,315.09 C257.81,312.88 264.6,310.74 271.37,308.55 C272.986,308.122 274.664,307.973 276.33,308.11 z" fill="#E0E0E0"/>
    <path d="M276.33,308.11 C274.671,307.99 273.004,308.152 271.4,308.59 C264.63,310.78 257.84,312.92 251.07,315.13 C249.69,315.58 248.86,316.3 250.26,317.81 C252.69,320.43 253.14,324.08 254.85,327.09 C254.213,328.116 253.053,328.696 251.85,328.59 C243.017,329.056 234.219,330.034 225.5,331.52 C224.11,331.74 222.36,332.13 222.02,329.9 C221.73,328.02 221.14,325.9 223.75,325.16 C227.75,324.05 231.75,323.1 235.75,322.16 C237.52,321.73 239.32,321.46 241.1,321.08 C242.88,320.7 243.73,319.71 243.1,317.84 C242.47,315.97 243.55,315.38 245.19,315.11 C246.823,314.853 248.431,314.461 250,313.94 C250.93,313.61 252.17,313.12 251.27,311.63 C256.58,309.93 261.72,307.63 267.27,306.63 C267.84,308.32 269.12,307.63 270.16,307.41 C271.69,307.08 273.16,306.41 274.71,306.21 C276.1,305.92 277.21,306.28 276.33,308.11 z" fill="#F8F8F8"/>
    <path d="M300.33,346.51 C298.7,337.45 295.82,328.71 293.33,319.88 Q285.33,291.56 277.33,263.26 Q271.72,243.43 266.13,223.59 C266.018,223.11 265.941,222.622 265.9,222.13 L267.38,222.13 C268.19,227.13 269.85,231.9 271.23,236.75 Q283.04,278.48 294.98,320.16 C296.98,327.08 299.05,333.98 300.98,340.91 C301.339,342.435 301.576,343.987 301.69,345.55 C301.79,346.58 301,346.51 300.33,346.51 z" fill="#E2E2E2"/>
    <path d="M258.82,226.11 C260.24,226.17 260.6,227.28 260.82,228.33 C262.15,235.93 264.82,243.18 266.82,250.58 Q275.01,280 283.4,309.35 C286.92,321.77 290.53,334.16 294.1,346.57 C294.23,347.04 294.27,347.57 294.36,348.03 C293.07,348.96 292.49,348.23 292.36,347.03 C291.66,339.87 288.65,333.32 287.02,326.41 C285.64,320.53 283.14,314.96 282.22,308.96 C282.199,308.877 282.169,308.796 282.13,308.72 C277.73,298.8 276.38,287.98 273.05,277.72 C269.72,267.46 267.26,256.84 264.2,246.45 C262.21,239.76 260.05,233.11 258.82,226.11 z" fill="#E2E2E2"/>
    <path d="M224.87,370.11 C225.38,374.65 227.02,378.92 228.27,383.27 C230.53,391.14 232.13,399.16 234.27,407.05 C234.38,407.711 234.424,408.381 234.4,409.05 C232.53,404.98 231.68,400.59 230.45,396.32 C225.83,380.26 221.33,364.16 216.82,348.07 C214.64,340.26 212.15,332.54 210.39,324.62 L211.34,324.12 C213.34,328.77 214.4,333.69 215.7,338.53 C217.63,345.72 219.98,352.78 221.93,359.95 C222.85,363.3 223.26,366.86 224.87,370.11 z" fill="#E2E2E2"/>
    <path d="M199.4,278.11 L199.88,278.11 C200.35,280.27 200.82,282.44 201.3,284.6 C199.69,282.851 198.988,280.451 199.4,278.11 z" fill="#E2E2E2"/>
    <path d="M184.41,167.68 L184.92,169.17 C183.39,169.78 181.37,169.81 181.39,172.17 C177,174.64 172.59,177.09 168.25,179.63 C167.543,180.201 166.927,180.876 166.42,181.63 C165.979,181.832 165.551,182.063 165.14,182.32 C162.33,184.37 162.31,184.4 160.14,181.54 C157.111,177.602 154.434,173.406 152.14,169 C151.14,167.14 151.44,165.94 153.31,164.93 C156.51,163.18 159.62,161.27 162.8,159.5 C165.37,158.07 165.71,156.78 163.98,154.37 C162.45,152.23 162.58,151.04 164.77,149.78 C166.44,148.78 166.11,147.68 165.36,146.44 C162.13,141.14 158.84,135.87 155.62,130.56 C151.11,123.13 146.26,115.9 142.05,108.28 C141.581,107.399 140.869,106.67 140,106.18 C140,104.71 139.52,104.36 138.21,105.18 C135.7,106.79 133.16,108.35 130.6,109.89 C123.09,114.41 115.83,119.38 107.93,123.25 C106.966,123.632 106.388,124.623 106.53,125.65 C106.53,126.31 106.53,126.98 106.53,127.65 L106.02,128.16 L106.02,128.16 C105.097,128.114 104.19,128.418 103.48,129.01 C100.326,131.167 96.998,133.057 93.53,134.66 C92.35,133.94 91.53,133.19 92.64,131.66 C93.44,130.58 92.95,129.54 92.27,128.47 C90.62,125.9 89.08,123.26 87.54,120.62 C86.95,119.62 86.74,118.71 87.93,117.82 C88.585,117.294 89.025,116.547 89.17,115.72 C89.82,111.05 93.62,109.22 96.93,106.97 C98.43,105.97 100.16,105.28 101.67,104.28 C103.42,103.11 105.45,102.03 104.67,99.28 C104.34,98.15 105.47,97.98 106.16,97.64 C107.63,96.91 109.3,96.64 110.66,95.64 C111.556,95.161 112.091,94.204 112.03,93.19 C120.23,86.08 129.82,80.92 138.48,74.45 C141.04,72.53 141.99,72.73 143.75,75.34 C145.13,77.34 146.27,79.58 147.51,81.71 C147.422,82.37 147.519,83.042 147.79,83.65 C149.72,86.74 151.47,89.99 154.14,92.52 C155.52,93.82 155.7,94.9 154.03,95.79 C151.93,96.91 152.25,98.72 152.7,100.33 C153.22,102.345 154.157,104.229 155.45,105.86 C158.05,109.01 159.88,112.65 161.99,116.12 Q169.58,128.66 177.3,141.12 C177.586,141.781 178.168,142.269 178.869,142.434 C179.57,142.599 180.309,142.424 180.86,141.96 C183.18,140.51 185.77,139.44 187.86,137.76 C189.75,136.27 192.38,135.6 193.43,133.11 C193.633,132.759 194.028,132.565 194.43,132.62 C195.16,132.62 195.9,132.62 195.94,131.62 L195.94,131.62 C197.42,131.49 198.81,131.22 199.44,129.62 C199.651,129.277 200.039,129.083 200.44,129.12 C202.04,129.99 202.93,128.38 204.15,127.99 C205.59,127.52 206.57,127.42 207.43,128.99 C208.65,131.23 210.13,133.33 211.51,135.47 C213.01,137.78 213.42,140.14 211.94,142.62 L211.43,143.12 L210.43,143.63 L209.91,144.12 L209.43,144.12 C207.89,143.97 207.13,145.01 206.43,146.12 C205.776,146.864 204.905,147.385 203.94,147.61 C202.01,148.17 199.94,148.61 198.94,150.61 L198.94,150.61 C197.56,150.7 196.24,150.86 195.94,152.61 L195.46,152.61 C194.09,152.72 192.73,152.86 192.46,154.61 L191.98,155.1 C189.8,155.27 187.92,155.92 186.98,158.1 C186.777,158.451 186.382,158.645 185.98,158.59 L185.47,158.09 C184.478,158.104 183.494,158.266 182.55,158.57 C181.145,158.597 180.016,159.735 180,161.14 C179.985,164.02 181.735,166.615 184.41,167.68 z" fill="#EFEFEF"/>
    <path d="M55,244.62 C56.2,242.52 58.58,241.79 60.43,240.89 C62.58,239.89 64.33,238.22 66.63,237.44 C68.45,236.82 70.01,235.54 69.5,233.13 C71.18,234.38 73.17,234.54 75.14,234.61 C77.73,234.69 78.14,234.02 76.96,231.61 C76.08,229.83 74.96,228.15 74.03,226.4 C72.46,223.55 72.65,222.17 75.55,221.25 C77.404,220.52 79.163,219.57 80.79,218.42 C82.16,217.56 83.08,216.42 82.01,214.68 C81.18,213.37 82.01,212.68 83.01,212.13 C85.09,210.92 87.11,209.6 89.26,208.53 C97.26,204.53 105.15,200.53 112.88,196.16 C116.88,193.86 121.63,193.68 125.78,191.76 C126.15,191.59 126.58,191.52 126.94,191.33 C130.18,189.57 130.27,189.52 131.94,192.73 C133.94,196.46 134.61,197.17 139.52,195.25 C141.52,194.48 142.72,194.62 143.52,196.53 C145.32,200.81 147.58,204.85 149.77,208.93 C150.77,210.8 150.01,212.19 148.23,213.25 Q137.46,219.68 126.73,226.25 Q109.13,237.02 91.57,247.86 C90.353,248.723 89.077,249.498 87.75,250.18 C87.015,250.393 86.412,250.922 86.105,251.623 C85.798,252.324 85.818,253.125 86.16,253.81 C87.02,256.11 86.03,257.49 84.16,258.51 C80.01,260.79 75.8,262.95 71.69,265.29 C69.69,266.46 68.28,265.77 67.46,263.94 C64.68,257.69 60.35,252.32 57.52,246.11 C57.196,245.033 56.1,244.385 55,244.62 z" fill="#EFEFEF"/>
    <path d="M174.76,196.11 C174.34,203.11 175.63,209.88 177.51,216.57 C176.27,216.89 175.51,215.97 174.6,215.43 C171.38,213.43 167.82,213.59 164.26,213.6 C161.88,213.6 158.65,209.82 159.14,207.6 C159.404,206.905 159.875,206.308 160.49,205.89 C165.036,202.333 169.802,199.066 174.76,196.11 z" fill="#E6E6E6"/>
    <path d="M48,167.85 C48.14,164.74 50.92,164.68 52.58,163.6 C54,162.66 54.42,164.55 54.97,165.4 C57.123,168.754 59.099,172.219 60.89,175.78 C61.228,176.251 61.345,176.846 61.211,177.41 C61.077,177.974 60.704,178.452 60.19,178.72 C59.09,179.45 57.93,180.1 56.79,180.78 C55.95,181.27 55.18,181.28 54.65,180.36 C52.55,176.68 50.45,173.01 48.4,169.31 C48.2,168.844 48.065,168.353 48,167.85 z" fill="#EFEFEF"/>
    <path d="M27.52,168.62 C26.14,167.83 26.24,166.97 27.52,166.22 C35.52,161.54 43.45,156.84 51.52,152.22 C55.071,150.015 58.744,148.012 62.52,146.22 C63.75,147.75 62.23,148 61.41,148.49 Q44.47,158.57 27.52,168.62 z" fill="#E2E2E2"/>
    <path d="M106.47,125.72 C106.328,124.693 106.906,123.702 107.87,123.32 C115.77,119.45 123.03,114.48 130.54,109.96 C133.1,108.42 135.64,106.86 138.15,105.25 C139.46,104.41 139.97,104.76 139.94,106.25 C131.53,111.25 123.16,116.25 114.71,121.2 C112,122.75 109.47,124.67 106.47,125.72 z" fill="#E2E2E2"/>
    <path d="M166.42,181.68 C166.927,180.926 167.543,180.251 168.25,179.68 C172.59,177.14 177,174.68 181.39,172.22 C181.554,173.072 181.15,173.932 180.39,174.35 Q174.01,177.96 167.61,181.51 C167.225,181.632 166.823,181.689 166.42,181.68 z" fill="#E2E2E2"/>
    <path d="M93.49,134.71 C96.958,133.107 100.286,131.217 103.44,129.06 C104.15,128.468 105.057,128.164 105.98,128.21 C103.09,131.6 99.25,133.62 95.33,135.49 C94.54,135.86 93.68,135.97 93.49,134.71 z" fill="#E2E2E2"/>
    <path d="M54.51,207.11 C53.06,206.16 53.17,204.94 54.16,203.82 C54.818,203.095 55.134,202.123 55.03,201.15 C57.13,201.67 56.84,203.02 56.03,204.33 C55.297,205.114 54.774,206.07 54.51,207.11 z" fill="#E2E2E2"/>
    <path d="M29.54,172.68 C27.8,172.39 27.66,171.04 27.54,169.68 C28.665,170.284 29.415,171.409 29.54,172.68 z" fill="#F3F3F3"/>
    <path d="M31.54,176.67 C30.382,176.163 29.751,174.901 30.04,173.67 C31.07,174.304 31.651,175.466 31.54,176.67 z" fill="#F3F3F3"/>
    <path d="M106,128.22 L106.51,127.71 z" fill="#E2E2E2"/>
    <path d="M94.11,28.78 C94.34,24.96 92.46,21.11 94.28,17.32 C94.52,16.32 94.83,15.41 94.98,14.43 C95.1,13.71 95.3,13.12 96.07,12.96 C96.84,12.8 97.19,13.36 97.6,13.96 C99.09,16.05 100.23,18.39 102.04,20.27 C104.203,22.64 107.293,23.948 110.5,23.85 C114.316,23.675 118.002,25.259 120.5,28.15 C122.954,30.871 125.675,33.34 128.62,35.52 C133.394,38.863 136.288,44.283 136.41,50.11 C136.5,52.17 136.93,54.24 136.91,56.3 C136.889,59.622 135.173,62.703 132.36,64.47 C129.1,66.69 125.52,64.81 122.83,61.12 C121.21,58.9 119.89,58.28 117.51,59.43 C116.594,59.822 115.628,60.085 114.64,60.21 C109.64,60.99 108.56,60.33 106.98,55.48 C105.69,51.48 102.78,48.48 100.5,45.19 C97.5,40.79 94.98,36.34 94.85,30.85 C94.904,30.087 94.636,29.336 94.11,28.78 z" fill="#C0C0C0"/>
    <path d="M193.4,133.19 C192.4,135.68 189.72,136.35 187.83,137.84 C185.71,139.52 183.12,140.59 180.83,142.04 C180.279,142.504 179.54,142.679 178.839,142.514 C178.138,142.349 177.556,141.861 177.27,141.2 Q169.58,128.72 161.96,116.2 C159.85,112.73 158.02,109.09 155.42,105.94 C154.127,104.309 153.19,102.425 152.67,100.41 C152.22,98.8 151.9,96.99 154,95.87 C155.67,94.98 155.49,93.87 154.11,92.6 C151.44,90.07 149.69,86.82 147.76,83.73 C147.489,83.122 147.392,82.45 147.48,81.79 C148.249,81.81 148.951,82.231 149.33,82.9 C154.75,90.22 161.2,96.68 166.68,103.98 C171.49,110.39 176.91,116.35 181.99,122.57 C184.39,125.52 187.19,128.17 188.91,131.64 C189.87,133.63 191.38,134.11 193.4,133.19 z" fill="#FEFEFE"/>
    <path d="M203.9,147.7 C204.865,147.475 205.736,146.954 206.39,146.21 C207.89,146.29 209.13,145.98 209.39,144.21 L209.87,144.21 L210.39,143.72 L211.39,143.21 L211.9,142.71 C213.38,140.23 212.97,137.87 211.47,135.56 C210.09,133.42 208.61,131.32 207.39,129.08 C206.53,127.51 205.55,127.61 204.11,128.08 C202.89,128.47 202,130.08 200.4,129.21 C201.832,128.071 203.493,127.256 205.27,126.82 C208.78,125.7 211.66,123.31 215.17,122.17 C217.1,121.54 218.38,121.64 219.53,123.57 C222.19,128.07 225.41,132.2 228.47,136.43 C230.59,139.36 230.47,140.11 227.47,141.94 C221.87,145.31 216.38,148.82 210.47,151.7 C207,153.38 203.72,155.82 200.36,157.94 C195.11,161.25 189.77,164.45 184.47,167.69 C181.801,166.66 180.027,164.11 179.99,161.25 C180.006,159.845 181.135,158.707 182.54,158.68 C183.484,158.376 184.468,158.214 185.46,158.2 L185.97,158.7 C186.372,158.755 186.767,158.561 186.97,158.21 C189.017,158.057 190.872,156.945 191.97,155.21 L192.45,154.72 C193.95,154.8 195.19,154.49 195.45,152.72 L195.93,152.72 C197.3,152.61 198.64,152.47 198.93,150.72 L198.93,150.72 C201.22,150.79 202.54,149.2 203.9,147.7 z" fill="#FEFEFE"/>
    <path d="M199.39,129.7 C198.76,131.31 197.39,131.58 195.89,131.7 C196.72,130.45 198.06,130.11 199.39,129.7 z" fill="#FEFEFE"/>
    <path d="M195.89,131.7 C195.89,132.7 195.11,132.7 194.38,132.7 C194.626,132.085 195.227,131.686 195.89,131.7 z" fill="#FEFEFE"/>
    <path d="M394.08,59.72 C395.02,59.57 395.66,60.38 396.08,61.49 C397.464,65.493 399.166,69.379 401.17,73.11 C402.03,74.66 401.58,75.68 400.1,76.3 C394.58,78.6 389.44,81.73 383.77,83.69 C380.52,84.8 379.99,86.07 381.41,89.1 Q388.04,103.32 394.64,117.56 C396.03,120.56 395.49,121.99 392.52,123.31 C389.72,124.57 386.86,125.71 384.12,127.08 C382.61,127.84 381.81,127.43 381.17,126.08 C378.05,119.47 374.9,112.88 371.82,106.25 C369.87,102.03 368.03,97.76 366.14,93.52 C364.77,90.42 365.14,89.65 368.37,88.75 C371.25,87.96 371.95,86.44 370.72,83.75 C370.48,83.22 370.2,82.75 369.93,82.19 C368.26,78.85 367.66,78.64 364.37,80.26 C363.93,80.48 363.48,80.71 363.03,80.91 C359.19,82.61 356.46,80.91 356.34,76.74 C356.316,75.705 356.975,74.778 357.96,74.46 C361.45,72.91 364.96,71.35 368.44,69.85 C370.11,69.13 371.17,69.59 371.88,71.43 C373.35,75.19 375.01,75.76 378.6,73.85 C380.796,72.698 383.068,71.696 385.4,70.85 C387.71,70 387.96,69.1 386.64,66.98 C385.04,64.4 385.51,62.98 388.31,61.77 C390.06,60.93 391.69,59.88 394.08,59.72 z" fill="#EFEFEF"/>
    <path d="M422.22,7.22 C423.281,7.141 424.269,7.766 424.65,8.76 C427,14.43 429.35,20.1 431.58,25.82 C432.09,27.12 431.47,28.24 430.04,28.77 C425.76,30.34 421.47,31.92 417.21,33.54 C416.774,33.803 416.239,33.841 415.77,33.644 C415.301,33.446 414.956,33.036 414.84,32.54 Q411.38,23.62 407.93,14.67 C407.68,14.03 407.5,13.29 408.22,12.88 C412.625,10.402 417.33,8.5 422.22,7.22 z" fill="#F5F5F5"/>
    <path d="M380.81,159.68 C379.31,159.92 378.81,158.87 378.28,157.78 Q370.63,141.94 363,126.11 C360.22,120.35 357.25,114.67 354.79,108.77 C353.66,106.05 352.34,103.36 351.44,100.57 C350.83,98.68 348.78,98.24 348.35,96.31 C346.84,89.39 342.64,83.64 339.81,77.31 C339.678,77.104 339.516,76.918 339.33,76.76 C339.518,76.118 340.134,75.7 340.8,75.76 Q360.57,115.57 380.41,155.37 C381.13,156.91 380.64,158.26 380.81,159.68 z" fill="#E2E2E2"/>
    <path d="M412.9,38.28 C413.429,38.152 413.986,38.246 414.445,38.538 C414.903,38.83 415.223,39.297 415.33,39.83 C416.11,42.01 417.2,44.07 418.17,46.18 C418.55,46.789 418.633,47.539 418.393,48.216 C418.154,48.894 417.619,49.425 416.94,49.66 L416.27,49.99 C410.34,52.99 409.78,52.81 407.75,46.65 C407.574,46.277 407.443,45.884 407.36,45.48 C407.21,44 405.27,42.63 406.74,41.11 C408.346,39.4 410.556,38.384 412.9,38.28 z" fill="#EFEFEF"/>
    <path d="M340.76,75.78 C340.094,75.72 339.478,76.138 339.29,76.78 C338.45,77.13 337.74,78.39 336.68,77.36 C335.485,76.41 334.816,74.945 334.88,73.42 C335.05,72.04 336.33,72.34 337.29,72.27 C337.83,72.27 338.39,72.36 338.75,71.8 L342.16,71.8 C342.66,71.8 343.16,71.86 343.4,72.38 C343.64,72.9 343.05,73.21 342.75,73.57 C342.11,74.3 340.73,74.42 340.76,75.78 z" fill="#EFEFEF"/>
    <path d="M437.87,127.88 C436.72,127.88 436.2,127.49 436.08,126.88 C435.14,122.41 432.5,118.55 431.58,114.07 C431.46,113.48 430.8,112.72 431.75,112.39 C432.7,112.06 432.7,113.09 432.89,113.63 C434.54,118.29 436.15,122.95 437.87,127.88 z" fill="#EFEFEF"/>
    <path d="M338.75,71.77 C338.39,72.33 337.83,72.24 337.29,72.24 C336.59,70.84 335.9,69.43 335.17,68.04 C334.66,67.09 334.67,66.32 335.75,65.79 z" fill="#E2E2E2"/>
    <path d="M242.36,28.29 C242.411,27.714 242.35,27.133 242.18,26.58 C241.11,24.79 241.18,23.53 243.38,22.74 C244.43,22.35 244.53,21.41 244.15,20.44 C243.9,19.82 243.58,19.24 243.29,18.64 C241.85,15.72 242.04,15.25 244.97,14 C247.9,12.75 250.6,11.58 253.37,10.27 C254.77,9.6 255.65,9.72 256.37,11.27 C257.09,12.82 258.03,14.15 258.76,15.64 C259.043,16.41 259.651,17.016 260.422,17.297 C261.192,17.578 262.047,17.506 262.76,17.1 C266.87,15.34 270.91,13.4 274.99,11.55 C276.74,10.76 276.73,9.44 275.99,8.05 C275.05,6.36 275.71,5.45 277.22,4.71 C278.73,3.97 279.78,4.57 280.46,5.95 C282.61,10.26 284.76,14.57 286.86,18.95 C287.34,19.95 287.63,20.95 289.12,20.56 C289.99,20.32 290.25,21.06 290.54,21.65 C294.32,28.937 297.494,36.523 300.03,44.33 C301.25,48.28 302.94,52.08 304.51,55.92 C305.4,58.1 304.65,59.32 302.61,60.23 C295.94,63.18 289.3,66.23 282.66,69.23 C278.66,71.05 274.52,72.52 270.76,74.87 C269.304,75.707 267.619,76.057 265.95,75.87 C263.958,72.729 262.203,69.443 260.7,66.04 C257.31,58.4 253.35,51.04 249.62,43.56 C247.33,38.98 245.42,34.22 242.72,29.84 C242.501,29.351 242.379,28.825 242.36,28.29 z" fill="#EFEFEF"/>
    <path d="M303.69,152.58 C302.017,151.451 300.757,149.808 300.1,147.9 C297.46,140.25 293.1,133.39 289.76,126.09 C289.38,125.26 288.98,124.45 288.31,123.09 C293.22,124.88 296.49,122.09 300.04,120.15 C301.55,119.34 302.61,119.89 303.31,121.28 C306.52,127.67 309.7,134.07 312.9,140.45 C313.48,141.61 313.44,142.45 312.14,143.1 C310,144.17 307.94,145.45 305.77,146.47 C302.85,147.84 302.54,148.47 303.68,151.56 C303.725,151.898 303.728,152.241 303.69,152.58 z" fill="#FEFEFE"/>
    <path d="M288.35,122.54 L279.46,104.94 C281.3,104.94 281.81,105.83 282,106.66 C283.28,112.11 288.76,115.96 288.35,122.54 z" fill="#FDFDFD"/>
    <path d="M277.31,98.62 C275.653,97.541 274.464,95.877 273.98,93.96 C273.883,93.658 273.935,93.328 274.12,93.07 C274.51,92.72 274.9,93.07 275.12,93.35 C276.498,94.761 277.282,96.648 277.31,98.62 z" fill="#FDFDFD"/>
    <path d="M279.71,103.84 C278.884,103.238 278.09,102.594 277.33,101.91 C276.75,101.34 276.51,100.48 277.24,99.91 C277.97,99.34 278.49,100.04 278.9,100.57 C279.7,101.456 280.004,102.683 279.71,103.84 z" fill="#FDFDFD"/>
    <path d="M139.37,351.11 C138.03,350.93 136.92,350.67 136.37,349.21 Q132.69,338.77 128.92,328.37 C128.593,327.737 128.554,326.994 128.815,326.331 C129.076,325.669 129.61,325.15 130.28,324.91 C137.94,320.77 145.57,316.57 153.28,312.45 C158.85,309.45 162.81,312.72 163.64,317.66 C164.92,325.22 166.97,332.66 168.7,340.14 C169.35,342.97 168.41,344.64 165.64,345.02 C157.18,346.21 149.06,348.9 140.75,350.71 C140.27,350.78 139.8,350.94 139.37,351.11 z" fill="#FEFEFE"/>
    <path d="M293.92,78.26 C292.81,78.237 291.756,77.77 290.993,76.964 C290.231,76.157 289.822,75.079 289.86,73.97 C289.86,72.15 291.25,71.92 292.6,71.77 C293.966,71.745 295.2,70.952 295.79,69.72 C296.713,67.729 298.483,66.26 300.61,65.72 C301.79,65.32 302.93,64.82 304.08,64.35 C306.935,63.082 310.283,64.29 311.67,67.09 C312.89,69.5 312.5,70.8 310.09,71.81 Q302.77,74.92 295.41,77.9 C294.927,78.07 294.428,78.191 293.92,78.26 z" fill="#F3F3F3"/>
    <path d="M240.33,3.28 C241.971,3.744 243.251,5.028 243.71,6.67 C244.25,8.08 243.49,8.91 242.3,9.67 C237.79,12.67 232.57,14.28 227.91,16.98 C226.83,17.6 226.03,17.22 225.51,16.09 C225.156,15.338 224.749,14.613 224.29,13.92 C223.948,13.537 223.793,13.022 223.869,12.514 C223.944,12.006 224.241,11.557 224.68,11.29 C229.385,8.32 234.286,5.674 239.35,3.37 C239.672,3.302 240.001,3.272 240.33,3.28 z" fill="#EFEFEF"/>
    <path d="M313.59,82.28 C312.07,82.28 312.14,80.15 311.59,78.66 C311.04,77.17 312.51,76.92 313.36,76.55 C315.31,75.7 317.51,75.36 319.11,73.77 C319.333,73.515 319.67,73.391 320.005,73.439 C320.34,73.488 320.628,73.703 320.77,74.01 C321.53,75.55 322.54,77.29 321.21,78.85 C319.355,81.133 316.529,82.405 313.59,82.28 z" fill="#F3F3F3"/>
    <path d="M198.72,256.11 C196.58,257.55 197.28,259.55 197.8,261.4 C198.926,265 199.463,268.759 199.39,272.53 C199.39,273.25 199.6,274.04 198.9,274.6 L198,273.11 C197.95,272.79 197.91,272.47 197.87,272.11 C197.56,270.76 197.24,269.4 196.93,268.05 C195.82,263.1 195.47,258 193.99,253.12 C194.54,252.75 195.36,252.68 195.47,251.8 C197.06,252.83 197.69,254.62 198.72,256.11 z" fill="#FCFCFC"/>
    <path d="M193.94,253.11 C195.42,257.99 195.77,263.11 196.88,268.04 C197.19,269.39 197.51,270.75 197.82,272.1 C196.69,271.95 196.74,270.9 196.52,270.2 C194.86,264.69 193.27,259.15 191.65,253.63 C191.357,253.068 191.376,252.395 191.7,251.85 C192.6,251.96 192.74,253.62 193.94,253.11 z" fill="#E2E2E2"/>
    <path d="M182,256.67 C181.52,257.93 180.4,258.36 178.7,259.13 C179.291,257.802 180.493,256.846 181.92,256.57 z" fill="#E2E2E2"/>
    <path d="M198,273.11 L198.95,274.62 L198.89,276.15 C198.333,275.901 197.914,275.421 197.743,274.836 C197.572,274.25 197.666,273.62 198,273.11 z" fill="#E2E2E2"/>
    <path d="M181.88,256.57 C182.14,256.16 182.41,255.72 183,255.81 C183.122,255.885 183.197,256.017 183.2,256.16 C182.98,256.77 182.41,256.57 181.96,256.67 z" fill="#E2E2E2"/>
    <path d="M374.25,164.67 L375.75,165.67 C375.66,166.05 375.62,166.59 375.07,166.43 C374.17,166.2 374.26,165.39 374.25,164.67 z" fill="#E2E2E2"/>
    <path d="M256.3,223.11 L258.1,223.24 C257.27,223.86 256.76,223.67 256.3,223.1 z" fill="#E2E2E2"/>
    <path d="M14.59,84.29 L31.59,75.18 C32.87,75.61 32.43,76.18 31.65,76.65 C26.65,79.53 21.65,82.36 16.65,85.21 C15.53,85.83 14.72,85.8 14.59,84.29 z" fill="#E2E2E2"/>
    <path d="M75,29.31 C75.87,31.78 75.13,33.77 72.56,35.22 C69.39,37 66.14,38.64 62.91,40.31 C61.91,40.82 60.91,41.19 59.91,40.25 C63.71,38.5 67.29,36.33 70.99,34.38 C73.27,33.21 74.82,31.9 75,29.31 z" fill="#E2E2E2"/>
    <path d="M33,30.27 C31.905,32.066 30.558,33.696 29,35.11 C28.38,35.72 27.55,36.24 27.6,37.29 C27.59,37.45 27.59,37.61 27.6,37.77 L27.6,37.77 C25.6,37.96 25.1,39.77 24.08,41 C23.67,41.51 23.14,42.14 22.43,41.55 C21.91,41.12 22.43,40.55 22.7,40.25 C25.428,36.793 28.439,33.569 31.7,30.61 C32,30.32 32.56,30.37 33,30.27 z" fill="#E2E2E2"/>
    <path d="M44.52,18.8 C41.72,20.59 40.35,23.86 37.52,25.61 C37.093,25.991 36.558,26.229 35.99,26.29 C37.53,22.58 40.84,20.52 43.71,18.07 C44.27,17.56 44.44,18.31 44.52,18.8 z" fill="#E2E2E2"/>
    <path d="M14.53,49.24 C12.78,48.66 13.53,47.7 14.26,46.89 C15.237,46.025 16.018,44.961 16.55,43.77 C17.85,43.95 18.36,44.5 17.42,45.68 C16.48,46.86 15.5,48.05 14.53,49.24 z" fill="#E2E2E2"/>
    <path d="M35.54,57.77 C35.02,58.886 35.234,60.206 36.08,61.1 C36.769,61.813 37.131,62.78 37.08,63.77 C33.71,62.25 33,59.57 35.54,57.77 z" fill="#F8F8F8"/>
    <path d="M355.79,203.41 C355.22,200.78 357.24,200.19 359.07,199.66 C369.66,196.58 379.9,192.49 390.41,189.17 Q398.95,186.48 407.41,183.65 C408.845,183.236 410.341,183.077 411.83,183.18 C413.476,183.128 414.905,184.305 415.17,185.93 C417.29,193.32 419.3,200.73 420.85,208.27 C421.17,209.79 420.79,210.39 419.57,210.96 C416.16,212.55 412.45,213.11 408.87,214.11 C407.2,214.57 405.48,214.85 403.87,215.37 C402.61,215.77 402.01,215.37 401.66,214.19 C401.31,213.01 400.75,211.7 400.4,210.42 C399.85,208.36 398.77,207.86 396.7,208.56 C385.87,212.24 375,215.82 364.14,219.44 C360.99,220.49 360.5,220.31 359.5,217.05 C358.43,213.57 356.8,210.28 356.15,206.66 C355.883,205.598 355.762,204.505 355.79,203.41 z" fill="#EFEFEF"/>
    <path d="M27.52,37.78 C27.51,37.62 27.51,37.46 27.52,37.3 L28.61,37.4 L28.61,37.7 z" fill="#FEFEFE"/>
    <path d="M218,261.21 Q211.4,252.9 205.63,244.05 C198.73,233.46 192.39,222.59 188.63,210.38 C182.73,191.1 193.96,174.62 209.22,170.27 C220.55,167.05 230.9,169.4 239.45,177.58 C248.32,186.06 250.87,196.58 248.03,208.43 C246.22,215.99 242.95,222.97 239.28,229.78 C234.16,239.36 222.61,256.46 218,261.21 z M202.65,196.64 C202.487,205.157 209.252,212.197 217.769,212.372 C226.286,212.548 233.336,205.793 233.523,197.276 C233.711,188.76 226.966,181.7 218.45,181.5 C214.347,181.398 210.373,182.941 207.413,185.784 C204.453,188.627 202.753,192.536 202.69,196.64 z" fill="#FDFDFD"/>
    <path d="M191.93,155.19 C190.832,156.925 188.977,158.037 186.93,158.19 C187.87,156.01 189.75,155.36 191.93,155.19 z" fill="#E2E2E2"/>
    <path d="M203.9,147.7 C202.54,149.2 201.22,150.79 198.9,150.7 C199.94,148.65 202,148.26 203.9,147.7 z" fill="#F5F5F5"/>
    <path d="M195.41,152.7 C195.15,154.47 193.91,154.78 192.41,154.7 C192.68,152.95 194,152.81 195.41,152.7 z" fill="#F5F5F5"/>
    <path d="M198.89,150.71 C198.6,152.44 197.26,152.58 195.89,152.71 C196.19,150.96 197.51,150.8 198.89,150.71 z" fill="#F5F5F5"/>
    <path d="M209.4,144.21 C209.13,145.98 207.89,146.29 206.4,146.21 C207.1,145.11 207.86,144.11 209.4,144.21 z" fill="#F5F5F5"/>
    <path d="M211.89,142.7 L211.38,143.2 z" fill="#F5F5F5"/>
    <path d="M210.4,143.71 L209.88,144.2 z" fill="#F5F5F5"/>
    <path d="M185.91,158.69 L185.4,158.19 z" fill="#F5F5F5"/>
    <path d="M202.69,196.64 C202.873,188.128 209.911,181.371 218.423,181.535 C226.935,181.698 233.708,188.721 233.564,197.233 C233.42,205.746 226.413,212.535 217.9,212.41 C213.777,212.382 209.839,210.693 206.976,207.726 C204.114,204.758 202.569,200.762 202.69,196.64 z" fill="#000000"/>
  </g>
</svg>
