<?xml version="1.0" encoding="UTF-8"?>
<!DOCTYPE svg PUBLIC "-//W3C//DTD SVG 1.1//EN" "http://www.w3.org/Graphics/SVG/1.1/DTD/svg11.dtd">
<svg version="1.1" xmlns="http://www.w3.org/2000/svg" xmlns:xlink="http://www.w3.org/1999/xlink" x="0" y="0" width="400" height="400" viewBox="0, 0, 400, 400">
  <g id="Layer_1">
    <path d="M271.9,239.8 C277,239.8 282.2,239.8 287.8,239.8 C287.8,245.2 287.8,250.2 287.8,256 C304.2,256 320.1,256 336,256 L335.9,255.9 C335.9,266.5 335.9,277 335.9,288 C347.1,288 357.6,288 368,288 L367.9,287.9 C367.9,298.5 367.9,309 367.9,320 C373.8,320 378.9,320 384,320 L383.9,319.9 C383.9,325.3 383.9,330.6 383.9,336 L384,335.9 C378.8,335.9 373.6,335.9 368.3,335.9 C368.3,341.6 368.3,346.6 368.3,352 C373.8,352 378.9,352 384,352 L383.9,351.9 C383.9,362.5 383.9,373 383.9,384 C389.7,384 394.8,384 400,384 C400,389.3 400,394.7 400,400 C357.3,400 314.7,400 272,400 C272,394.8 272,389.5 272,383.8 C283,383.8 293.3,383.8 303.9,383.8 C303.9,378.2 303.9,373.1 303.9,368 C314.5,368 325.1,368 336.2,368 C336.2,373.7 336.2,378.7 336.2,383.7 C341.7,383.7 346.6,383.7 351.6,383.7 C351.6,357.1 351.6,330.7 351.6,304.3 C346.3,304.3 341.4,304.3 335.9,304.3 C335.9,314.9 335.9,325.3 335.9,336.2 C330.3,336.2 325.2,336.2 319.8,336.2 C319.8,341.7 319.8,346.6 319.8,352.1 C314.4,352.1 309.3,352.1 304,352.1 C304,357.8 304,362.9 304,368.1 C277.5,368.1 250.9,368.1 223.9,368.1 C223.9,379.1 223.9,389.5 223.9,400 C213.2,400 202.6,400 191.9,400 C191.9,394.7 191.8,389.3 191.8,384 C197.1,384 202.3,384 207.6,384 C207.6,378.4 207.6,373.5 207.6,368.4 C202.3,368.4 197.3,368.4 191.9,368.4 C191.9,373.9 191.9,379 191.9,384.1 C186.7,384.1 181.4,384.1 175.8,384.1 C175.8,389.8 175.8,394.9 175.8,400 C170.5,400 165.1,400 159.8,400 C159.8,389.3 159.7,378.6 159.7,367.9 C165,367.9 170.2,367.9 175.7,367.9 C175.7,362.1 175.7,357 175.7,351.9 C180.9,351.9 186.2,351.9 191.7,351.9 C191.7,346.2 191.7,341 191.7,335.9 C197.1,335.9 202.5,335.9 207.9,335.9 C207.9,341.1 207.9,346.4 207.9,351.6 C218.8,351.6 229.2,351.6 239.7,351.6 C239.7,346.1 239.7,341 239.7,335.9 C245,335.9 250.2,335.9 255.5,335.9 C255.5,319.6 255.5,304.1 255.5,287.9 C239.5,287.9 223.8,287.9 207.7,287.9 C207.7,282.4 207.7,277.5 207.7,272 C202.3,272 197.2,272 191.7,272 C191.7,266.3 191.7,261.1 191.7,256 C197,256 202.2,256 207.5,256 C207.5,250.4 207.5,245.5 207.5,240.4 C202.2,240.4 197.2,240.4 191.8,240.4 C191.8,245.9 191.8,251 191.8,256.1 C186.4,256.1 181,256.1 175.6,256.1 C175.6,250.9 175.6,245.6 175.6,239.8 C169.9,239.8 164.9,239.8 159.5,239.8 C159.5,229 159.5,218.7 159.5,207.9 C154.1,207.9 149,207.9 144.1,207.9 C144.1,202.3 144.1,197.2 144.1,192 C154.9,192 165.4,192 175.8,192 L175.7,191.9 C175.7,202.5 175.7,213.1 175.7,223.7 C181.4,223.7 186.3,223.7 191.8,223.7 C191.8,218.4 191.8,213.3 191.8,207.9 C197.5,207.9 202.6,207.9 207.8,207.9 C207.8,213.2 207.8,218.4 207.8,223.7 C213.4,223.7 218.3,223.7 223.4,223.7 C223.4,218.4 223.4,213.4 223.4,208 C217.9,208 212.8,208 207.7,208 C207.7,202.7 207.7,197.5 207.7,192 C218.9,192 229.4,192 239.9,192 L239.8,191.9 C239.8,197.2 239.8,202.4 239.8,208 C245.5,208 250.5,208 256,208 C256,213.4 256,218.5 256,224 C261.7,224 266.8,224 272,224 L271.9,223.9 C272,229.3 272,234.6 272.1,240 C266.9,240 261.6,240 255.9,240 C255.9,245.7 255.9,250.8 255.9,255.9 C250.7,255.9 245.4,255.9 239.8,255.9 C239.8,250.3 239.8,245.3 239.8,240.4 C234.4,240.4 229.3,240.4 224.3,240.4 C224.3,251 224.3,261.3 224.3,271.6 C235,271.6 245.3,271.6 255.7,271.6 C255.7,266.1 255.7,261 255.7,255.8 C261.1,255.8 266.4,255.8 271.9,255.8 C271.9,250 271.9,244.9 271.9,239.8 z M272.4,272 C272.4,288.2 272.4,303.9 272.4,319.5 C288.4,319.5 304,319.5 319.6,319.5 C319.6,303.5 319.6,287.8 319.6,272 C303.7,272 288.3,272 272.4,272 z" fill="#000000"/>
    <path d="M112,-0.1 C112,37 112,74.1 112,111.9 C74.5,111.9 37.2,111.9 -0,111.9 C-0,74.6 -0,37.2 -0,-0.1 C37.3,-0.1 74.7,-0.1 112,-0.1 z M16.3,16.1 C16.3,42.9 16.3,69.2 16.3,95.4 C43,95.4 69.3,95.4 95.6,95.4 C95.6,68.8 95.6,42.5 95.6,16.1 C69.1,16.1 42.9,16.1 16.3,16.1 z" fill="#000000"/>
    <path d="M400,111.9 C362.9,111.9 325.8,111.9 288,111.9 C288,74.4 288,37.1 288,-0.1 C325.3,-0.1 362.7,-0.1 400,-0.1 C400,37.2 400,74.6 400,111.9 z M304.2,95.5 C331,95.5 357.4,95.5 383.7,95.5 C383.7,68.9 383.7,42.6 383.7,16.3 C357,16.3 330.7,16.3 304.2,16.3 C304.2,42.8 304.2,68.9 304.2,95.5 z" fill="#000000"/>
    <path d="M-0,287.9 C37.1,287.9 74.2,287.9 112,287.9 C112,325.4 112,362.7 112,399.9 C74.7,399.9 37.5,399.9 -0,399.9 C-0,362.6 -0,325.2 -0,287.9 z M95.6,383.7 C95.6,356.9 95.6,330.6 95.6,304.2 C69,304.2 42.7,304.2 16.4,304.2 C16.4,330.8 16.4,357.2 16.4,383.7 C42.9,383.7 69,383.7 95.6,383.7 z" fill="#000000"/>
    <path d="M256,-0.1 C256,10.3 256,20.8 256,31.6 C261.3,31.6 266.3,31.6 271.6,31.6 C271.6,42.4 271.6,52.7 271.6,63.7 C266.8,63.7 261.7,63.7 256.1,63.7 C256.1,69.3 256.1,74.4 256.1,79.6 C250.6,79.6 245.7,79.6 240.2,79.6 C240.2,63.9 240.2,48.2 240.2,32.2 C234.6,32.2 229.6,32.2 224.2,32.2 C224.2,37.3 224.2,42.2 224.2,47.5 C218.8,47.5 213.7,47.5 208,47.5 C208,36.9 208,26.3 208,15.7 C218.6,15.7 229.1,15.7 240.1,15.7 C240.1,10 240.1,4.9 240.1,-0.2 C245.3,-0.1 250.7,-0.1 256,-0.1 z" fill="#000000"/>
    <path d="M336.1,256 C336.1,250.9 336.1,245.8 336.1,240.3 C351.9,240.3 367.6,240.3 383.8,240.3 C383.8,245.1 383.8,250.2 383.8,256 C389.6,256 394.8,256 400,256 C400,266.7 400,277.3 400,288 C389.3,288 378.6,288 367.9,287.9 L368,288 C368,282.8 368,277.5 368,271.9 C362.3,271.9 357.3,271.9 351.8,271.9 C351.8,266.5 351.8,261.4 351.8,255.9 C346.1,255.9 341,255.9 335.8,255.9 L336.1,256 z" fill="#000000"/>
    <path d="M303.9,367.8 C303.9,372.9 303.9,378 303.9,383.6 C293.3,383.6 283,383.6 272,383.6 C272,389.3 272,394.6 272,399.8 C266.7,399.8 261.3,399.8 256,399.8 C256,394.6 256,389.3 256,384.1 C250.3,384.1 245.3,384.1 240,384.1 C240,389.6 240,394.7 240,399.8 C234.7,399.8 229.3,399.8 224,399.8 C224,389.4 224,378.9 224,367.9 C251,367.9 277.5,367.9 304.1,367.9 L303.9,367.8 z" fill="#FFFFFF"/>
    <path d="M176,-0.1 C176,5 176,10.2 176,15.9 C170.6,15.9 165.6,15.9 160.1,15.9 C160.1,21.4 160.1,26.3 160.1,31.6 C154.7,31.6 149.6,31.6 144,31.6 C144,26.6 144,21.5 144,16.1 C138.5,16.1 133.6,16.1 128,16.1 C128,10.5 128,5.2 128,0 C144,-0.1 160,-0.1 176,-0.1 z" fill="#000000"/>
    <path d="M367.9,287.8 C378.6,287.8 389.3,287.8 400,287.9 C400,293.2 400,298.6 400,303.9 C394.7,303.9 389.5,303.9 384.1,303.9 C384.1,309.7 384.1,314.8 384.1,320 C379,320 373.9,320 368,320 C367.9,309 367.9,298.4 367.9,287.8 z" fill="#FFFFFF"/>
    <path d="M400,383.9 C394.9,383.9 389.8,383.9 383.9,383.9 C383.9,372.9 383.9,362.4 383.9,351.8 C389.3,351.8 394.6,351.8 400,351.9 C400,362.6 400,373.2 400,383.9 z" fill="#FFFFFF"/>
    <path d="M240,-0.1 C240,5 240,10.1 240,15.8 C229,15.8 218.5,15.8 207.9,15.8 C207.9,15.8 208.1,16 208.1,16 C208.1,10.6 208,5.3 208,-0.1 C218.7,-0.1 229.3,-0.1 240,-0.1 z" fill="#FFFFFF"/>
    <path d="M16.1,207.8 C10.7,207.8 5.4,207.8 -0,207.9 C-0,202.6 -0,197.2 -0,191.9 C5.4,191.9 10.7,191.9 16.1,192 L16,191.9 C16,197.3 16,202.6 16,208 L16.1,207.8 z" fill="#000000"/>
    <path d="M16.1,192 C10.7,192 5.4,192 -0,191.9 C-0,186.6 -0,181.2 -0,175.9 C5.4,175.9 10.7,176 16.1,176 C16.1,176 15.9,175.8 15.9,175.8 C16,181.2 16,186.6 16.1,192 z" fill="#FFFFFF"/>
    <path d="M384.1,320 C384.1,314.9 384.1,309.7 384.1,303.9 C389.5,303.9 394.8,303.9 400,303.9 C400,309.2 400,314.6 400,319.9 C394.6,319.9 389.3,319.9 383.9,319.8 L384.1,320 z" fill="#000000"/>
    <path d="M208,-0.1 C208,5.3 208.1,10.6 208.1,16 C203,16 197.8,16 192,16 C192,10.4 192,5.2 192,-0.1 C197.3,-0.1 202.7,-0.1 208,-0.1 z" fill="#000000"/>
    <path d="M383.9,319.8 C389.3,319.8 394.6,319.8 400,319.9 C400,325.2 400,330.6 400,335.9 C394.6,335.9 389.3,335.9 383.9,336 C383.9,330.6 383.9,325.2 383.9,319.8 z" fill="#FFFFFF"/>
    <path d="M-0,127.9 C5.1,127.9 10.2,127.9 15.7,127.9 C15.7,133.2 15.7,138.2 15.7,143.9 C10.5,143.9 5.2,143.9 -0,143.9 C-0,138.6 -0,133.2 -0,127.9 z" fill="#000000"/>
    <path d="M16.1,176 C10.7,176 5.4,175.9 -0,175.9 C-0,170.6 -0,165.2 -0,159.9 C5.1,159.9 10.3,159.9 16.1,159.9 C16.1,165.5 16.1,170.7 16.1,176 z" fill="#000000"/>
    <path d="M383.9,335.9 C389.3,335.9 394.6,335.9 400,335.8 C400,341.1 400,346.5 400,351.8 C394.6,351.8 389.3,351.8 383.9,351.7 C383.9,351.7 384,351.8 384,351.8 C384,346.4 384,341.1 384,335.7 C384.1,335.8 383.9,335.9 383.9,335.9 z" fill="#000000"/>
    <path d="M400,143.9 C394.9,143.9 389.8,143.9 384.3,143.9 C384.3,138.6 384.3,133.6 384.3,127.9 C389.5,127.9 394.8,127.9 400,127.9 C400,133.2 400,138.6 400,143.9 z" fill="#000000"/>
    <path d="M128,399.9 C128,394.8 128,389.7 128,384.2 C133.3,384.2 138.3,384.2 144,384.2 C144,389.4 144,394.7 144,399.9 C138.7,399.9 133.3,399.9 128,399.9 z" fill="#000000"/>
    <path d="M191.9,383.8 C191.9,389.1 192,394.5 192,399.8 C186.7,399.8 181.3,399.8 176,399.8 C176,394.7 176,389.6 176,383.9 C181.6,383.9 186.8,383.9 192.1,383.9 L191.9,383.8 z" fill="#FFFFFF"/>
    <path d="M240,399.9 C240,394.8 240,389.7 240,384.2 C245.3,384.2 250.3,384.2 256,384.2 C256,389.4 256,394.7 256,399.9 C250.7,399.9 245.3,399.9 240,399.9 z" fill="#000000"/>
    <path d="M160.1,144 C149.7,144 139.2,144 128.2,144 C128.2,165.3 128.2,186.3 128.2,207.6 C117.3,207.6 107,207.6 96,207.6 C96,202.3 96,197.1 96,191.8 L95.9,191.9 C101.1,191.9 106.3,191.9 111.6,191.9 C111.6,186.2 111.6,181.2 111.6,175.8 C106.1,175.8 101,175.8 95.9,175.8 C95.9,175.8 96,175.9 96,175.9 C96,170.5 96,165.2 96,159.8 L95.9,159.9 C101.1,159.9 106.3,159.9 111.6,159.9 C111.6,154.2 111.6,149.2 111.6,143.8 C106.1,143.8 101,143.8 95.9,143.8 L96,143.9 C96,138.8 96,133.6 96,127.9 C106.6,127.9 116.9,127.9 127.8,127.9 C127.8,101 127.8,74.7 127.8,48 C133.4,48 138.4,48 143.9,48 C143.9,53.1 143.9,58.1 143.9,63.8 C149.5,63.8 154.8,63.8 160,63.8 L159.9,63.7 C159.9,69.1 159.9,74.4 159.9,79.8 L160,79.7 C154.8,79.7 149.5,79.7 144.3,79.7 C144.3,90.8 144.3,101.1 144.3,111.8 C149.8,111.8 154.9,111.8 160,111.8 L159.9,111.7 C160,122.5 160,133.3 160.1,144 z" fill="#000000"/>
    <path d="M320.1,207.8 C315,207.8 309.9,207.8 304.2,207.8 C304.2,213.3 304.2,218.3 304.2,223.8 C293.1,223.8 282.5,223.8 272,223.8 L272.1,223.9 C272.1,213.3 272.1,202.8 272.1,191.8 C260.9,191.8 250.4,191.8 240,191.8 C240,191.8 240.1,191.9 240.1,191.9 C240.1,186.7 240.1,181.4 240.1,175.6 C245.7,175.6 250.7,175.6 256.1,175.6 C256.1,170.1 256.1,165.2 256.1,160.1 C266.9,160.1 277.2,160.1 288.1,160.1 C288.1,170.7 288.1,181.1 288.1,192 C299,192 309.4,192 319.9,192 C319.9,197.7 319.9,202.8 319.9,207.9 L320.1,207.8 z" fill="#000000"/>
    <path d="M96.1,191.8 C85.7,191.8 75.2,191.8 64,191.8 C64,197.4 64,202.7 64,207.9 L64.1,207.8 C59,207.8 53.9,207.8 48.2,207.8 C48.2,223.9 48.2,239.6 48.2,255.6 C42.6,255.6 37.6,255.6 32.2,255.6 C32.2,245.2 32.2,234.9 32.2,224.1 C26.8,224.1 21.8,224.1 16.2,224.1 C16.2,218.3 16.2,213 16.2,207.8 C16.2,207.8 16.1,207.9 16.1,207.9 C21.3,207.9 26.6,207.9 32.2,207.9 C32.2,202 32.2,196.9 32.2,191.8 L32.1,191.9 C37.2,191.9 42.3,191.9 48.2,191.9 C48.2,180.9 48.2,170.3 48.2,159.8 L48.1,159.9 C53.5,159.9 58.8,159.9 64.2,159.9 L64.1,159.8 C64.1,165 64.1,170.3 64.1,175.9 C75.3,175.9 85.8,175.9 96.2,175.9 L96.1,175.8 C96.1,181.2 96.1,186.5 96.1,191.9 L96.1,191.8 z" fill="#000000"/>
    <path d="M271.9,128 C298.4,128 324.8,128 351.9,128 C351.9,133.5 351.9,138.7 351.9,144 L352,143.9 C346.8,143.9 341.5,143.9 335.9,143.9 C335.9,149.6 335.9,154.6 335.9,160.1 C330.5,160.1 325.4,160.1 319.8,160.1 C319.8,165.7 319.8,170.8 319.8,175.6 C314.2,175.6 309.1,175.6 303.7,175.6 C303.7,164.9 303.7,154.7 303.7,143.9 C292.9,143.9 282.6,143.9 272,143.9 C272,138.2 272,133.1 272,127.9 L271.9,128 z" fill="#000000"/>
    <path d="M351.9,143.9 C357,143.9 362.2,143.9 367.8,143.9 C367.8,154.4 367.8,164.8 367.8,175.7 C373.4,175.7 378.4,175.7 383.7,175.7 C383.7,181.2 383.7,186.1 383.7,191.6 C378.8,191.6 373.7,191.6 368.1,191.6 C368.1,197.2 368.1,202.2 368.1,207.8 C357,207.8 346.4,207.8 335.8,207.8 L335.9,207.9 C335.9,202.7 335.9,197.4 335.9,191.6 C341.5,191.6 346.5,191.6 351.9,191.6 C351.9,175.3 351.9,159.5 351.9,143.8 L351.9,143.9 z" fill="#000000"/>
    <path d="M207.9,112 C213.3,112 218.6,112 224,112 L223.9,111.9 C223.9,117.1 223.9,122.4 223.9,128 C229.8,128 234.9,128 240,128 C240,128 239.9,127.9 239.9,127.9 C239.9,133.1 239.9,138.4 239.9,144.1 C229,144.1 218.7,144.1 207.8,144.1 C207.8,149.6 207.8,154.7 207.8,159.9 C202.1,159.9 197,159.9 191.9,159.9 L192,160 C192,149.6 192,139.1 192,128.1 C197.1,128.1 202.2,128.1 208,128.1 C208,122.3 208,117.1 208,111.9 L207.9,112 z" fill="#000000"/>
    <path d="M64.1,160 C64.1,149.6 64.1,139.1 64.1,128.3 C69.2,128.3 74.3,128.3 79.9,128.3 C79.9,133.2 79.9,138.2 79.9,144 C85.7,144 90.9,144 96.1,144 C96.1,144 96,143.9 96,143.9 C96,149.3 96,154.6 96,160 L96.1,159.9 C85.4,159.9 74.7,159.9 64,159.9 L64.1,160 z" fill="#000000"/>
    <path d="M239.9,112 C245,112 250.1,112 255.8,112 C255.8,106.6 255.8,101.5 255.8,96.2 C261.4,96.2 266.4,96.2 271.9,96.2 C271.9,106.9 271.9,117.4 271.9,128 C271.9,128 272,127.9 272,127.9 C261.3,127.9 250.6,127.9 239.9,127.9 L240,128 C240,122.6 240,117.3 240,111.9 L239.9,112 z" fill="#000000"/>
    <path d="M176.1,192 C176.1,181.3 176,170.6 176,159.9 C181.4,159.9 186.8,160 192.1,160 C192.1,160 192,159.9 192,159.9 C192,170.5 192,181.1 192,191.9 C186.3,191.9 181.1,191.9 176,191.9 L176.1,192 z" fill="#000000"/>
    <path d="M159.9,79.9 C165,79.9 170.2,79.9 175.6,79.9 C175.6,90.5 175.6,100.8 175.6,111.8 C170.4,111.8 165.1,111.8 159.9,111.8 C159.9,111.8 160,111.9 160,111.9 C160,101.2 160,90.5 160,79.8 L159.9,79.9 z" fill="#000000"/>
    <path d="M335.9,207.8 C335.9,212.9 335.9,218.1 335.9,223.5 C330.7,223.5 325.6,223.5 320,223.5 C320,218.3 320,213 320,207.8 L319.9,207.9 C325.3,207.9 330.6,207.9 336,207.9 L335.9,207.8 z" fill="#000000"/>
    <path d="M224.1,112 C224.1,106.9 224.1,101.7 224.1,96.3 C229.3,96.3 234.4,96.3 240,96.3 C240,101.5 240,106.8 240,112 C240,112 240.1,111.9 240.1,111.9 C234.7,111.9 229.4,111.9 224,111.9 L224.1,112 z" fill="#000000"/>
    <path d="M48.1,159.8 C43,159.8 37.8,159.8 32.4,159.8 C32.4,154.6 32.4,149.5 32.4,144.2 C37.4,144.2 42.4,144.2 48,144.2 C48,149.5 48,154.7 48,160 C47.9,160 48.1,159.8 48.1,159.8 z" fill="#000000"/>
    <path d="M208.1,111.8 C203,111.8 197.8,111.8 192.4,111.8 C192.4,106.6 192.4,101.5 192.4,96.2 C197.4,96.2 202.4,96.2 208,96.2 C208,101.5 208,106.7 208,112 C207.9,112 208.1,111.8 208.1,111.8 z" fill="#000000"/>
    <path d="M192.3,64.1 C197.7,64.1 202.6,64.1 207.8,64.1 C207.8,69.3 207.8,74.2 207.8,79.5 C202.8,79.5 197.7,79.5 192.3,79.5 C192.3,74.6 192.3,69.5 192.3,64.1 z" fill="#000000"/>
    <path d="M16.1,192 C16.1,186.6 16,181.2 16,175.9 C21.2,175.9 26.4,175.9 32,175.9 C32,181.6 32,186.8 32,192 C32,192 32.1,191.9 32.1,191.9 C26.7,191.9 21.4,191.9 16,191.9 L16.1,192 z" fill="#000000"/>
    <path d="M160.1,63.9 C160.1,58.8 160.1,53.6 160.1,48.2 C165.3,48.2 170.4,48.2 175.7,48.2 C175.7,53.2 175.7,58.2 175.7,63.8 C170.4,63.8 165.2,63.8 159.9,63.8 C159.9,63.8 160.1,63.9 160.1,63.9 z" fill="#000000"/>
    <path d="M179.4,151.9 C179.4,158.196 174.296,163.3 168,163.3 C161.704,163.3 156.6,158.196 156.6,151.9 C156.6,145.604 161.704,140.5 168,140.5 C174.296,140.5 179.4,145.604 179.4,151.9 z" fill="#000000"/>
    <path d="M336.1,208 C330.7,208 325.4,208 320,208 C320,202.9 320,197.7 320,192.1 C309.5,192.1 299.1,192.1 288.2,192.1 C288.2,181.2 288.2,170.8 288.2,160.2 C277.3,160.2 266.9,160.2 256.2,160.2 C256.2,165.3 256.2,170.2 256.2,175.7 C250.8,175.7 245.7,175.7 240.2,175.7 C240.2,181.5 240.2,186.8 240.2,192 C229.7,192 219.3,192 208,192 C208,197.5 208,202.7 208,208 L208.2,207.8 C203.1,207.8 197.9,207.8 192.2,207.8 C192.2,213.2 192.2,218.3 192.2,223.6 C186.7,223.6 181.8,223.6 176.1,223.6 C176.1,213 176.1,202.4 176.1,191.8 C181.2,191.8 186.4,191.8 192.1,191.8 C192.1,181 192.1,170.4 192.1,159.8 C197.2,159.8 202.3,159.8 208,159.8 C208,154.6 208,149.6 208,144 C218.9,144 229.2,144 240.1,144 C240.1,138.3 240.1,133 240.1,127.8 C250.8,127.8 261.5,127.8 272.2,127.8 C272.2,132.9 272.2,138.1 272.2,143.8 C282.8,143.8 293.1,143.8 303.9,143.8 C303.9,154.6 303.9,164.9 303.9,175.5 C309.3,175.5 314.4,175.5 320,175.5 C320,170.6 320,165.6 320,160 C325.6,160 330.7,160 336.1,160 C336.1,154.5 336.1,149.6 336.1,143.8 C341.7,143.8 347,143.8 352.2,143.8 C352.2,159.6 352.2,175.3 352.2,191.6 C346.8,191.6 341.8,191.6 336.2,191.6 C336.1,197.5 336.1,202.7 336.1,208 z" fill="#FFFFFF"/>
    <path d="M175.9,256 C181.3,256 186.7,256 192.1,256 L191.9,255.8 C191.9,260.9 191.9,266.1 191.9,271.8 C197.4,271.8 202.4,271.8 207.9,271.8 C207.9,277.3 207.9,282.2 207.9,287.7 C224,287.7 239.7,287.7 255.7,287.7 C255.7,303.9 255.7,319.4 255.7,335.7 C250.5,335.7 245.2,335.7 239.9,335.7 L240.1,335.9 C240.1,325.3 240.1,314.8 240.1,304.1 C234.5,304.1 229.4,304.1 223.8,304.1 C223.8,309.4 223.8,314.5 223.8,319.8 C218.1,319.8 213,319.8 207.9,319.8 L208.1,320 C208.1,314.7 208.1,309.5 208.1,304.2 C202.4,304.2 197.3,304.2 191.9,304.2 C191.9,309.7 191.9,314.8 191.9,320 L192.1,319.8 C186.7,319.8 181.3,319.8 175.9,319.8 L176.1,320 C176.1,309.4 176.1,298.7 176.1,287.8 C170.2,287.8 165.1,287.8 159.9,287.8 L160.1,288 C160.1,282.6 160.1,277.2 160.1,271.8 L159.9,272 C165.1,272 170.3,272 176.1,272 C176.1,266.3 176.1,261.1 176.1,255.8 L175.9,256 z" fill="#FFFFFF"/>
    <path d="M272.4,272 C288.2,272 303.7,272 319.6,272 C319.6,287.8 319.6,303.5 319.6,319.5 C304,319.5 288.4,319.5 272.4,319.5 C272.4,303.9 272.4,288.2 272.4,272 z M303.9,288.2 C298.4,288.2 293.3,288.2 288.3,288.2 C288.3,293.6 288.3,298.6 288.3,303.5 C293.7,303.5 298.8,303.5 303.9,303.5 C303.9,298.3 303.9,293.5 303.9,288.2 z" fill="#FFFFFF"/>
    <path d="M335.9,255.8 C341,255.8 346.2,255.8 351.9,255.8 C351.9,261.3 351.9,266.4 351.9,271.8 C357.4,271.8 362.3,271.8 368.1,271.8 C368.1,277.4 368.1,282.7 368.1,287.9 C357.7,287.9 347.2,287.9 336,287.9 C335.9,277 335.9,266.4 335.9,255.8 z" fill="#FFFFFF"/>
    <path d="M239.9,191.8 C250.3,191.8 260.8,191.8 272,191.8 C272,202.8 272,213.4 272,223.9 C266.9,223.9 261.7,223.9 256,223.9 C256,218.4 256,213.3 256,207.9 C250.5,207.9 245.6,207.9 239.8,207.9 C239.9,202.3 239.9,197.1 239.9,191.8 z" fill="#FFFFFF"/>
    <path d="M255.7,255.7 C255.7,260.8 255.7,266 255.7,271.5 C245.3,271.5 234.9,271.5 224.3,271.5 C224.3,261.2 224.3,250.9 224.3,240.3 C229.3,240.3 234.3,240.3 239.8,240.3 C239.8,245.3 239.8,250.2 239.8,255.8 C245.4,255.8 250.7,255.8 255.9,255.8 C255.9,255.9 255.7,255.7 255.7,255.7 z" fill="#FFFFFF"/>
    <path d="M239.9,335.8 C239.9,340.9 239.9,346 239.9,351.5 C229.3,351.5 219,351.5 208.1,351.5 C208.1,346.3 208.1,341 208.1,335.8 L207.9,336 C218.6,336 229.3,336 240.1,336 L239.9,335.8 z" fill="#FFFFFF"/>
    <path d="M192.1,256 C192.1,250.9 192.1,245.7 192.1,240.3 C197.4,240.3 202.5,240.3 207.8,240.3 C207.8,245.4 207.8,250.3 207.8,255.9 C202.5,255.9 197.2,255.9 192,255.9 C191.9,255.8 192.1,256 192.1,256 z" fill="#FFFFFF"/>
    <path d="M271.9,239.8 C271.9,244.9 271.9,250 271.9,255.7 C266.4,255.7 261,255.7 255.7,255.7 C255.7,255.7 255.9,255.9 255.9,255.9 C255.9,250.8 255.9,245.7 255.9,240 C261.6,240 266.9,240 272.1,240 C272.1,239.9 271.9,239.8 271.9,239.8 z" fill="#FFFFFF"/>
    <path d="M207.9,207.9 C213,207.9 218.2,207.9 223.6,207.9 C223.6,213.2 223.6,218.3 223.6,223.6 C218.5,223.6 213.6,223.6 208,223.6 C208,218.3 208,213 208,207.8 C208,207.8 207.9,207.9 207.9,207.9 z" fill="#FFFFFF"/>
    <path d="M208.1,335.8 C202.7,335.8 197.3,335.8 191.9,335.8 L192.1,336 C192.1,330.6 192.1,325.2 192.1,319.8 L191.9,320 C197.3,320 202.7,320 208.1,320 L207.9,319.8 C207.9,325.2 207.9,330.6 207.9,336 L208.1,335.8 z" fill="#FFFFFF"/>
    <path d="M191.9,335.8 C191.9,340.9 191.9,346.1 191.9,351.8 C186.4,351.8 181.1,351.8 175.9,351.8 L176.1,352 C176.1,346.6 176.1,341.2 176.1,335.8 L175.9,336 C181.3,336 186.7,336 192.1,336 L191.9,335.8 z" fill="#FFFFFF"/>
    <path d="M384.1,335.8 C384.1,341.2 384.1,346.5 384.1,351.9 C379,351.9 373.9,351.9 368.4,351.9 C368.4,346.5 368.4,341.5 368.4,335.8 C373.6,335.8 378.8,335.8 384.1,335.8 z" fill="#FFFFFF"/>
    <path d="M175.9,351.8 C175.9,356.9 175.9,362.1 175.9,367.8 C170.4,367.8 165.1,367.8 159.9,367.8 C159.9,367.8 160.1,368 160.1,368 C160.1,362.8 160.1,357.5 160.1,352 C165.9,352 171,352 176.1,352 L175.9,351.8 z" fill="#FFFFFF"/>
    <path d="M192.1,384 C192.1,378.9 192.1,373.7 192.1,368.3 C197.4,368.3 202.5,368.3 207.8,368.3 C207.8,373.4 207.8,378.3 207.8,383.9 C202.5,383.9 197.2,383.9 192,383.9 C191.9,383.8 192.1,384 192.1,384 z" fill="#FFFFFF"/>
    <path d="M63.9,207.9 C69,207.9 74.2,207.9 79.6,207.9 C79.6,229.1 79.6,250.2 79.6,271.5 C74.6,271.5 69.5,271.5 64,271.5 C64,250.2 64,229 64,207.7 C64.1,207.8 63.9,207.9 63.9,207.9 z" fill="#000000"/>
    <path d="M160.1,271.8 C160.1,277.2 160.1,282.6 160.1,288 C155,288 149.9,288 144.2,288 C144.2,293.3 144.2,298.4 144.2,303.7 C138.6,303.7 133.6,303.7 128.3,303.7 C128.3,287.8 128.3,272.1 128.3,256.2 C133.5,256.2 138.4,256.2 143.9,256.2 C143.9,261.2 143.9,266.2 143.9,271.9 C149.6,271.8 154.8,271.8 160.1,271.8 z" fill="#000000"/>
    <path d="M176.1,352 C171,352 165.9,352 160.1,352 C160.1,357.5 160.1,362.8 160.1,368 C155,368 149.9,368 144.1,368 C144.1,357.1 144.1,346.5 144.1,335.9 L144,336 C154.7,336 165.4,335.9 176.1,335.9 C176.1,341.2 176.1,346.6 176.1,352 z" fill="#000000"/>
    <path d="M159.9,287.8 C165,287.8 170.1,287.8 176.1,287.8 C176.1,298.7 176.1,309.3 176.1,320 C171,320 165.9,320 159.9,320 C159.9,309.1 159.9,298.5 159.9,287.8 z" fill="#000000"/>
    <path d="M111.8,224.2 C111.8,229.4 111.8,234.3 111.8,239.6 C106.6,239.6 101.5,239.6 96.2,239.6 C96.2,234.5 96.2,229.6 96.2,224.2 C101.2,224.2 106.3,224.2 111.8,224.2 z" fill="#000000"/>
    <path d="M96.1,271.6 C96.1,266.3 96.1,261.5 96.1,256.3 C101.2,256.3 106.3,256.3 111.7,256.3 C111.7,261.2 111.7,266.3 111.7,271.6 C106.6,271.6 101.6,271.6 96.1,271.6 z" fill="#000000"/>
    <path d="M179.4,263.9 C179.4,270.196 174.296,275.3 168,275.3 C161.704,275.3 156.6,270.196 156.6,263.9 C156.6,257.604 161.704,252.5 168,252.5 C174.296,252.5 179.4,257.604 179.4,263.9 z" fill="#000000"/>
    <path d="M144.1,335.8 C139,335.8 133.8,335.8 128.4,335.8 C128.4,330.6 128.4,325.5 128.4,320.2 C133.4,320.2 138.4,320.2 144,320.2 C144,325.5 144,330.7 144,336 C143.9,336 144.1,335.8 144.1,335.8 z" fill="#000000"/>
    <path d="M195.4,327.9 C195.4,334.196 190.296,339.3 184,339.3 C177.704,339.3 172.6,334.196 172.6,327.9 C172.6,321.604 177.704,316.5 184,316.5 C190.296,316.5 195.4,321.604 195.4,327.9 z" fill="#000000"/>
    <path d="M16.3,16.1 C42.8,16.1 69.1,16.1 95.6,16.1 C95.6,42.5 95.6,68.8 95.6,95.4 C69.3,95.4 42.9,95.4 16.3,95.4 C16.3,69.2 16.3,43 16.3,16.1 z M32.3,32.1 C32.3,48.2 32.3,63.9 32.3,79.5 C48.4,79.5 64.1,79.5 79.7,79.5 C79.7,63.5 79.7,47.9 79.7,32.1 C63.9,32.1 48.3,32.1 32.3,32.1 z" fill="#FFFFFF"/>
    <path d="M304.2,95.5 C304.2,69 304.2,42.8 304.2,16.3 C330.7,16.3 357.1,16.3 383.7,16.3 C383.7,42.6 383.7,68.8 383.7,95.5 C357.4,95.5 331,95.5 304.2,95.5 z M320.2,79.6 C336.2,79.6 351.9,79.6 367.7,79.6 C367.7,63.6 367.7,47.9 367.7,32.2 C351.6,32.2 335.9,32.2 320.2,32.2 C320.2,48.2 320.2,63.8 320.2,79.6 z" fill="#FFFFFF"/>
    <path d="M95.6,383.7 C69,383.7 42.9,383.7 16.4,383.7 C16.4,357.2 16.4,330.8 16.4,304.2 C42.7,304.2 69,304.2 95.6,304.2 C95.6,330.6 95.6,356.9 95.6,383.7 z M32.2,367.6 C48.3,367.6 64,367.6 79.6,367.6 C79.6,351.5 79.6,335.8 79.6,320.2 C63.6,320.2 48,320.2 32.2,320.2 C32.2,336 32.2,351.6 32.2,367.6 z" fill="#FFFFFF"/>
    <path d="M15.9,191.8 C21.3,191.8 26.6,191.8 32,191.8 C32,196.9 32,202 32,207.9 C26.4,207.9 21.1,207.9 15.9,207.9 C15.9,202.6 15.9,197.2 15.9,191.8 z" fill="#FFFFFF"/>
    <path d="M63.9,159.8 C74.6,159.8 85.3,159.8 96,159.8 C96,165.2 96,170.5 96,175.9 C85.6,175.9 75.1,175.9 63.9,175.9 C63.9,170.3 63.9,165.1 63.9,159.8 z" fill="#FFFFFF"/>
    <path d="M160.1,79.8 C160.1,90.5 160.1,101.2 160.1,111.9 C155,111.9 149.9,111.9 144.4,111.9 C144.4,101.2 144.4,90.9 144.4,79.8 C149.6,79.8 154.8,79.8 160.1,79.8 z" fill="#FFFFFF"/>
    <path d="M95.9,160 C95.9,154.6 95.9,149.3 95.9,143.9 C101,143.9 106.1,143.9 111.6,143.9 C111.6,149.3 111.6,154.3 111.6,160 C106.4,160 101.2,160 95.9,160 z" fill="#FFFFFF"/>
    <path d="M95.9,192 C95.9,186.6 95.9,181.3 95.9,175.9 C101,175.9 106.1,175.9 111.6,175.9 C111.6,181.3 111.6,186.3 111.6,192 C106.4,192 101.2,192 95.9,192 z" fill="#FFFFFF"/>
    <path d="M223.9,111.8 C229.3,111.8 234.6,111.8 240,111.8 C240,117.2 240,122.5 240,127.9 C234.9,127.9 229.8,127.9 223.9,127.9 C223.9,122.3 223.9,117.1 223.9,111.8 z" fill="#FFFFFF"/>
    <path d="M207.9,336 C207.9,330.6 207.9,325.2 207.9,319.8 C213,319.8 218.1,319.8 223.8,319.8 C223.8,314.5 223.8,309.5 223.8,304.1 C229.4,304.1 234.4,304.1 240.1,304.1 C240.1,314.8 240.1,325.4 240.1,335.9 C229.4,336 218.6,336 207.9,336 z" fill="#000000"/>
    <path d="M208.1,320 C202.7,320 197.3,320 191.9,320 C191.9,314.9 191.9,309.7 191.9,304.2 C197.3,304.2 202.3,304.2 208.1,304.2 C208.1,309.5 208.1,314.7 208.1,320 z" fill="#000000"/>
    <path d="M303.9,288.2 C303.9,293.5 303.9,298.3 303.9,303.5 C298.8,303.5 293.7,303.5 288.3,303.5 C288.3,298.6 288.3,293.6 288.3,288.2 C293.4,288.2 298.4,288.2 303.9,288.2 z" fill="#000000"/>
    <path d="M32.3,32.1 C48.3,32.1 63.9,32.1 79.7,32.1 C79.7,47.9 79.7,63.5 79.7,79.5 C64.1,79.5 48.3,79.5 32.3,79.5 C32.3,63.9 32.3,48.2 32.3,32.1 z" fill="#000000"/>
    <path d="M320.2,79.6 C320.2,63.8 320.2,48.2 320.2,32.2 C335.9,32.2 351.6,32.2 367.7,32.2 C367.7,47.8 367.7,63.6 367.7,79.6 C351.9,79.6 336.2,79.6 320.2,79.6 z" fill="#000000"/>
    <path d="M32.2,367.6 C32.2,351.6 32.2,336 32.2,320.2 C48,320.2 63.6,320.2 79.6,320.2 C79.6,335.8 79.6,351.6 79.6,367.6 C64,367.6 48.3,367.6 32.2,367.6 z" fill="#000000"/>
  </g>
</svg>
