<?xml version="1.0" encoding="UTF-8"?>
<!DOCTYPE svg PUBLIC "-//W3C//DTD SVG 1.1//EN" "http://www.w3.org/Graphics/SVG/1.1/DTD/svg11.dtd">
<svg version="1.1" xmlns="http://www.w3.org/2000/svg" xmlns:xlink="http://www.w3.org/1999/xlink" x="0" y="0" width="706" height="706" viewBox="0, 0, 706, 706">
  <g id="Layer_2">
    <g>
      <path d="M3.396,2.771 L702.563,2.771 L702.563,704.104 L3.396,704.104 L3.396,2.771 z" fill="#F4F5F4"/>
      <path d="M3.396,2.771 L702.563,2.771 L702.563,704.104 L3.396,704.104 L3.396,2.771 z" fill-opacity="0" stroke="#000000" stroke-width="3"/>
    </g>
    <g>
      <path d="M140.078,346.744 L153.396,346.744 L135.737,408.041 L123.227,408.041 L115.653,372.194 L113.44,360.342 L111.228,372.194 L103.654,408.041 L91.484,408.041 L73.698,346.744 L87.612,346.744 L95.909,381.842 L97.696,391.615 L99.526,382.05 L106.59,346.744 L120.419,346.744 L127.865,381.842 L129.78,391.615 L131.695,382.216 z" fill="#000000"/>
      <path d="M200.032,394.734 Q199.564,398.767 195.735,402.926 Q189.778,409.538 179.055,409.538 Q170.204,409.538 163.438,403.965 Q156.673,398.393 156.673,385.834 Q156.673,374.066 162.779,367.786 Q168.885,361.507 178.629,361.507 Q184.416,361.507 189.054,363.628 Q193.692,365.749 196.713,370.323 Q199.437,374.357 200.245,379.68 Q200.713,382.799 200.628,388.662 L168.885,388.662 Q169.14,395.482 173.268,398.227 Q175.778,399.932 179.31,399.932 Q183.054,399.932 185.395,397.852 Q186.671,396.73 187.65,394.734 z M188.033,380.844 Q187.735,376.145 185.118,373.712 Q182.501,371.279 178.629,371.279 Q174.417,371.279 172.098,373.858 Q169.778,376.436 169.183,380.844 z" fill="#000000"/>
      <path d="M234.754,367.62 Q239.563,361.632 251.264,361.632 Q258.881,361.632 264.796,364.584 Q270.71,367.537 270.71,375.729 L270.71,396.522 Q270.71,398.684 270.795,401.761 Q270.923,404.09 271.519,404.922 Q272.114,405.754 273.306,406.294 L273.306,408.041 L260.115,408.041 Q259.562,406.669 259.349,405.463 Q259.136,404.257 259.009,402.718 Q256.498,405.379 253.222,407.251 Q249.307,409.455 244.371,409.455 Q238.073,409.455 233.967,405.941 Q229.861,402.427 229.861,395.981 Q229.861,387.622 236.456,383.88 Q240.073,381.842 247.094,380.969 L251.222,380.47 Q254.583,380.054 256.03,379.43 Q258.626,378.349 258.626,376.062 Q258.626,373.275 256.647,372.215 Q254.668,371.155 250.839,371.155 Q246.541,371.155 244.754,373.234 Q243.477,374.773 243.052,377.392 L231.35,377.392 Q231.733,371.446 234.754,367.62 z M243.775,399.474 Q245.477,400.847 247.945,400.847 Q251.86,400.847 255.158,398.601 Q258.455,396.355 258.583,390.409 L258.583,386.001 Q257.434,386.708 256.264,387.144 Q255.094,387.581 253.051,387.955 L250.328,388.454 Q246.499,389.119 244.839,390.076 Q242.031,391.698 242.031,395.108 Q242.031,398.143 243.775,399.474 z" fill="#000000"/>
      <path d="M320.325,367.578 Q325.942,373.442 325.942,384.795 Q325.942,396.771 320.431,403.051 Q314.921,409.33 306.241,409.33 Q300.709,409.33 297.049,406.627 Q295.05,405.13 293.135,402.26 L293.135,425.881 L281.135,425.881 L281.135,362.713 L292.752,362.713 L292.752,369.408 Q294.709,366.455 296.922,364.75 Q300.964,361.715 306.538,361.715 Q314.666,361.715 320.325,367.578 z M313.432,385.377 Q313.432,380.137 310.985,376.103 Q308.538,372.069 303.049,372.069 Q296.454,372.069 293.986,378.183 Q292.709,381.426 292.709,386.416 Q292.709,394.318 297.007,397.52 Q299.56,399.391 303.049,399.391 Q308.113,399.391 310.772,395.565 Q313.432,391.739 313.432,385.377 z" fill="#000000"/>
      <path d="M373.387,368.452 Q379.259,375.646 379.259,385.46 Q379.259,395.44 373.387,402.531 Q367.515,409.621 355.558,409.621 Q343.601,409.621 337.729,402.531 Q331.857,395.44 331.857,385.46 Q331.857,375.646 337.729,368.452 Q343.601,361.257 355.558,361.257 Q367.515,361.257 373.387,368.452 z M355.515,371.279 Q350.196,371.279 347.324,374.96 Q344.452,378.64 344.452,385.46 Q344.452,392.28 347.324,395.981 Q350.196,399.682 355.515,399.682 Q360.834,399.682 363.685,395.981 Q366.536,392.28 366.536,385.46 Q366.536,378.64 363.685,374.96 Q360.834,371.279 355.515,371.279 z" fill="#000000"/>
      <path d="M388.194,346.744 L400.322,346.744 L400.322,408.041 L388.194,408.041 z" fill="#000000"/>
      <path d="M450.83,368.452 Q456.702,375.646 456.702,385.46 Q456.702,395.44 450.83,402.531 Q444.958,409.621 433.001,409.621 Q421.044,409.621 415.172,402.531 Q409.3,395.44 409.3,385.46 Q409.3,375.646 415.172,368.452 Q421.044,361.257 433.001,361.257 Q444.958,361.257 450.83,368.452 z M432.958,371.279 Q427.64,371.279 424.767,374.96 Q421.895,378.64 421.895,385.46 Q421.895,392.28 424.767,395.981 Q427.64,399.682 432.958,399.682 Q438.277,399.682 441.128,395.981 Q443.979,392.28 443.979,385.46 Q443.979,378.64 441.128,374.96 Q438.277,371.279 432.958,371.279 z" fill="#000000"/>
      <path d="M478.488,415.984 Q480.446,417.605 485.084,417.605 Q491.637,417.605 493.849,413.322 Q495.296,410.578 495.296,404.09 L495.296,401.179 Q493.552,404.09 491.552,405.546 Q487.935,408.249 482.148,408.249 Q473.212,408.249 467.872,402.115 Q462.532,395.981 462.532,385.502 Q462.532,375.396 467.68,368.514 Q472.829,361.632 482.275,361.632 Q485.765,361.632 488.36,362.671 Q492.786,364.459 495.509,369.242 L495.509,362.713 L507.296,362.713 L507.296,405.712 Q507.296,414.487 504.275,418.936 Q499.083,426.588 484.361,426.588 Q475.467,426.588 469.85,423.178 Q464.234,419.768 463.638,412.99 L476.829,412.99 Q477.34,415.069 478.488,415.984 z M476.446,392.571 Q478.914,398.31 485.297,398.31 Q489.552,398.31 492.488,395.17 Q495.424,392.03 495.424,385.169 Q495.424,378.723 492.637,375.355 Q489.85,371.986 485.169,371.986 Q478.786,371.986 476.361,377.85 Q475.084,380.969 475.084,385.543 Q475.084,389.494 476.446,392.571 z" fill="#000000"/>
      <path d="M531.082,362.713 L531.082,408.041 L518.785,408.041 L518.785,362.713 z M531.082,346.37 L531.082,357.307 L518.785,357.307 L518.785,346.37 z" fill="#000000"/>
      <path d="M578.612,408.041 L538.571,408.041 L538.571,398.809 L562.357,372.361 L540.188,372.361 L540.188,362.713 L577.803,362.713 L577.803,372.569 L554.272,398.31 L578.612,398.31 z" fill="#000000"/>
      <path d="M626.099,394.734 Q625.631,398.767 621.801,402.926 Q615.844,409.538 605.121,409.538 Q596.271,409.538 589.505,403.965 Q582.739,398.393 582.739,385.834 Q582.739,374.066 588.845,367.786 Q594.951,361.507 604.696,361.507 Q610.483,361.507 615.121,363.628 Q619.759,365.749 622.78,370.323 Q625.503,374.357 626.312,379.68 Q626.78,382.799 626.695,388.662 L594.951,388.662 Q595.207,395.482 599.334,398.227 Q601.845,399.932 605.377,399.932 Q609.121,399.932 611.461,397.852 Q612.738,396.73 613.717,394.734 z M614.1,380.844 Q613.802,376.145 611.185,373.712 Q608.568,371.279 604.696,371.279 Q600.483,371.279 598.164,373.858 Q595.845,376.436 595.249,380.844 z" fill="#000000"/>
      <path d="M232.946,448.393 L232.946,458.04 Q231.925,457.916 229.521,457.853 Q227.116,457.791 226.202,458.893 Q225.287,459.995 225.287,461.326 L225.287,465.151 L233.244,465.151 L233.244,473.51 L225.287,473.51 L225.287,510.064 L213.202,510.064 L213.202,473.51 L206.436,473.51 L206.436,465.151 L213.074,465.151 L213.074,462.24 Q213.074,454.963 215.585,452.218 Q218.223,448.143 228.308,448.143 Q229.457,448.143 230.393,448.205 Q231.329,448.268 232.946,448.393 z" fill="#000000"/>
      <path d="M278.901,470.474 Q284.773,477.669 284.773,487.483 Q284.773,497.463 278.901,504.554 Q273.029,511.644 261.072,511.644 Q249.115,511.644 243.243,504.554 Q237.371,497.463 237.371,487.483 Q237.371,477.669 243.243,470.474 Q249.115,463.28 261.072,463.28 Q273.029,463.28 278.901,470.474 z M261.03,473.302 Q255.711,473.302 252.839,476.982 Q249.966,480.663 249.966,487.483 Q249.966,494.303 252.839,498.004 Q255.711,501.705 261.03,501.705 Q266.349,501.705 269.2,498.004 Q272.051,494.303 272.051,487.483 Q272.051,480.663 269.2,476.982 Q266.349,473.302 261.03,473.302 z" fill="#000000"/>
      <path d="M316.772,475.673 Q309.453,475.673 306.943,480.33 Q305.539,482.95 305.539,488.398 L305.539,510.064 L293.326,510.064 L293.326,464.736 L304.9,464.736 L304.9,472.637 Q307.709,468.104 309.794,466.441 Q313.198,463.654 318.644,463.654 Q318.985,463.654 319.219,463.675 Q319.453,463.696 320.261,463.737 L320.261,475.88 Q319.112,475.756 318.219,475.714 Q317.325,475.673 316.772,475.673 z" fill="#000000"/>
      <path d="M353.324,469.643 Q358.132,463.654 369.834,463.654 Q377.45,463.654 383.365,466.607 Q389.28,469.559 389.28,477.752 L389.28,498.544 Q389.28,500.707 389.365,503.784 Q389.492,506.113 390.088,506.945 Q390.684,507.776 391.875,508.317 L391.875,510.064 L378.684,510.064 Q378.131,508.691 377.918,507.485 Q377.706,506.279 377.578,504.741 Q375.067,507.402 371.791,509.273 Q367.876,511.478 362.94,511.478 Q356.643,511.478 352.536,507.964 Q348.43,504.45 348.43,498.004 Q348.43,489.645 355.026,485.902 Q358.643,483.865 365.664,482.992 L369.791,482.492 Q373.153,482.077 374.599,481.453 Q377.195,480.372 377.195,478.084 Q377.195,475.298 375.216,474.238 Q373.238,473.177 369.408,473.177 Q365.11,473.177 363.323,475.257 Q362.047,476.795 361.621,479.415 L349.92,479.415 Q350.302,473.468 353.324,469.643 z M362.345,501.497 Q364.047,502.869 366.515,502.869 Q370.429,502.869 373.727,500.624 Q377.025,498.378 377.152,492.431 L377.152,488.023 Q376.004,488.73 374.833,489.167 Q373.663,489.604 371.621,489.978 L368.897,490.477 Q365.068,491.142 363.408,492.099 Q360.6,493.721 360.6,497.131 Q360.6,500.166 362.345,501.497 z" fill="#000000"/>
      <path d="M421.874,473.51 Q415.704,473.51 413.406,478.625 Q412.215,481.328 412.215,485.528 L412.215,510.064 L400.13,510.064 L400.13,464.819 L411.832,464.819 L411.832,471.431 Q414.172,467.938 416.257,466.399 Q420.002,463.654 425.746,463.654 Q432.937,463.654 437.511,467.335 Q442.086,471.015 442.086,479.54 L442.086,510.064 L429.661,510.064 L429.661,482.492 Q429.661,478.916 428.682,477.003 Q426.895,473.51 421.874,473.51 z" fill="#000000"/>
      <path d="M472.127,498.17 L481.701,464.736 L494.594,464.736 L478.68,509.315 Q474.084,522.207 471.404,525.305 Q468.723,528.403 460.681,528.403 Q459.064,528.403 458.085,528.382 Q457.106,528.361 455.149,528.236 L455.149,518.755 L456.681,518.838 Q458.468,518.921 460.085,518.713 Q461.702,518.505 462.808,517.757 Q463.872,517.05 464.787,514.804 Q465.702,512.559 465.531,512.06 L448.511,464.736 L462,464.736 z" fill="#000000"/>
      <path d="M66.251,566.758 L66.251,612.086 L53.954,612.086 L53.954,566.758 z M66.251,550.415 L66.251,561.352 L53.954,561.352 L53.954,550.415 z" fill="#000000"/>
      <path d="M99.824,575.533 Q93.654,575.533 91.356,580.648 Q90.165,583.351 90.165,587.551 L90.165,612.086 L78.08,612.086 L78.08,566.841 L89.782,566.841 L89.782,573.454 Q92.122,569.96 94.207,568.422 Q97.952,565.677 103.696,565.677 Q110.887,565.677 115.462,569.357 Q120.036,573.038 120.036,581.563 L120.036,612.086 L107.611,612.086 L107.611,584.515 Q107.611,580.939 106.632,579.026 Q104.845,575.533 99.824,575.533 z" fill="#000000"/>
      <path d="M171.353,583.018 L158.928,583.018 Q158.587,580.482 157.183,578.444 Q155.141,575.699 150.843,575.699 Q144.716,575.699 142.461,581.646 Q141.269,584.806 141.269,590.046 Q141.269,595.036 142.461,598.072 Q144.631,603.728 150.63,603.728 Q154.886,603.728 156.673,601.482 Q158.46,599.237 158.843,595.66 L171.225,595.66 Q170.8,601.066 167.225,605.89 Q161.524,613.667 150.333,613.667 Q139.142,613.667 133.865,607.179 Q128.589,600.692 128.589,590.337 Q128.589,578.652 134.418,572.164 Q140.248,565.677 150.503,565.677 Q159.226,565.677 164.779,569.503 Q170.332,573.329 171.353,583.018 z" fill="#000000"/>
      <path d="M218.372,572.497 Q224.244,579.691 224.244,589.506 Q224.244,599.486 218.372,606.576 Q212.5,613.667 200.543,613.667 Q188.586,613.667 182.714,606.576 Q176.842,599.486 176.842,589.506 Q176.842,579.691 182.714,572.497 Q188.586,565.303 200.543,565.303 Q212.5,565.303 218.372,572.497 z M200.501,575.325 Q195.182,575.325 192.309,579.005 Q189.437,582.686 189.437,589.506 Q189.437,596.326 192.309,600.027 Q195.182,603.728 200.501,603.728 Q205.819,603.728 208.67,600.027 Q211.521,596.326 211.521,589.506 Q211.521,582.686 208.67,579.005 Q205.819,575.325 200.501,575.325 z" fill="#000000"/>
      <path d="M254.753,575.533 Q248.584,575.533 246.286,580.648 Q245.094,583.351 245.094,587.551 L245.094,612.086 L233.01,612.086 L233.01,566.841 L244.711,566.841 L244.711,573.454 Q247.052,569.96 249.137,568.422 Q252.881,565.677 258.626,565.677 Q265.817,565.677 270.391,569.357 Q274.965,573.038 274.965,581.563 L274.965,612.086 L262.54,612.086 L262.54,584.515 Q262.54,580.939 261.562,579.026 Q259.775,575.533 254.753,575.533 z" fill="#000000"/>
      <path d="M281.603,566.758 L295.22,566.758 L304.879,600.193 L314.751,566.758 L327.772,566.758 L311.049,612.086 L298.241,612.086 z" fill="#000000"/>
      <path d="M374.323,598.779 Q373.855,602.813 370.025,606.971 Q364.068,613.583 353.345,613.583 Q344.494,613.583 337.729,608.011 Q330.963,602.439 330.963,589.88 Q330.963,578.111 337.069,571.832 Q343.175,565.552 352.919,565.552 Q358.706,565.552 363.344,567.673 Q367.983,569.794 371.004,574.368 Q373.727,578.402 374.535,583.725 Q375.004,586.844 374.918,592.708 L343.175,592.708 Q343.43,599.528 347.558,602.272 Q350.068,603.977 353.6,603.977 Q357.345,603.977 359.685,601.898 Q360.962,600.775 361.94,598.779 z M362.323,584.89 Q362.025,580.19 359.408,577.758 Q356.792,575.325 352.919,575.325 Q348.707,575.325 346.388,577.903 Q344.069,580.482 343.473,584.89 z" fill="#000000"/>
      <path d="M404.917,575.533 Q398.747,575.533 396.449,580.648 Q395.258,583.351 395.258,587.551 L395.258,612.086 L383.173,612.086 L383.173,566.841 L394.875,566.841 L394.875,573.454 Q397.215,569.96 399.3,568.422 Q403.045,565.677 408.789,565.677 Q415.98,565.677 420.555,569.357 Q425.129,573.038 425.129,581.563 L425.129,612.086 L412.704,612.086 L412.704,584.515 Q412.704,580.939 411.725,579.026 Q409.938,575.533 404.917,575.533 z" fill="#000000"/>
      <path d="M448.788,566.758 L448.788,612.086 L436.49,612.086 L436.49,566.758 z M448.788,550.415 L448.788,561.352 L436.49,561.352 L436.49,550.415 z" fill="#000000"/>
      <path d="M500.232,598.779 Q499.764,602.813 495.934,606.971 Q489.977,613.583 479.254,613.583 Q470.404,613.583 463.638,608.011 Q456.872,602.439 456.872,589.88 Q456.872,578.111 462.978,571.832 Q469.085,565.552 478.829,565.552 Q484.616,565.552 489.254,567.673 Q493.892,569.794 496.913,574.368 Q499.636,578.402 500.445,583.725 Q500.913,586.844 500.828,592.708 L469.085,592.708 Q469.34,599.528 473.467,602.272 Q475.978,603.977 479.51,603.977 Q483.254,603.977 485.594,601.898 Q486.871,600.775 487.85,598.779 z M488.233,584.89 Q487.935,580.19 485.318,577.758 Q482.701,575.325 478.829,575.325 Q474.616,575.325 472.297,577.903 Q469.978,580.482 469.382,584.89 z" fill="#000000"/>
      <path d="M530.827,575.533 Q524.657,575.533 522.359,580.648 Q521.167,583.351 521.167,587.551 L521.167,612.086 L509.083,612.086 L509.083,566.841 L520.784,566.841 L520.784,573.454 Q523.125,569.96 525.21,568.422 Q528.954,565.677 534.699,565.677 Q541.89,565.677 546.464,569.357 Q551.039,573.038 551.039,581.563 L551.039,612.086 L538.614,612.086 L538.614,584.515 Q538.614,580.939 537.635,579.026 Q535.848,575.533 530.827,575.533 z" fill="#000000"/>
      <path d="M602.355,583.018 L589.93,583.018 Q589.59,580.482 588.186,578.444 Q586.143,575.699 581.846,575.699 Q575.718,575.699 573.463,581.646 Q572.272,584.806 572.272,590.046 Q572.272,595.036 573.463,598.072 Q575.633,603.728 581.633,603.728 Q585.888,603.728 587.675,601.482 Q589.462,599.237 589.845,595.66 L602.228,595.66 Q601.802,601.066 598.228,605.89 Q592.526,613.667 581.335,613.667 Q570.144,613.667 564.868,607.179 Q559.591,600.692 559.591,590.337 Q559.591,578.652 565.421,572.164 Q571.25,565.677 581.505,565.677 Q590.228,565.677 595.781,569.503 Q601.334,573.329 602.355,583.018 z" fill="#000000"/>
      <path d="M650.396,598.779 Q649.928,602.813 646.098,606.971 Q640.141,613.583 629.418,613.583 Q620.567,613.583 613.802,608.011 Q607.036,602.439 607.036,589.88 Q607.036,578.111 613.142,571.832 Q619.248,565.552 628.992,565.552 Q634.779,565.552 639.418,567.673 Q644.056,569.794 647.077,574.368 Q649.8,578.402 650.609,583.725 Q651.077,586.844 650.992,592.708 L619.248,592.708 Q619.504,599.528 623.631,602.272 Q626.142,603.977 629.673,603.977 Q633.418,603.977 635.758,601.898 Q637.035,600.775 638.013,598.779 z M638.396,584.89 Q638.099,580.19 635.482,577.758 Q632.865,575.325 628.992,575.325 Q624.78,575.325 622.461,577.903 Q620.142,580.482 619.546,584.89 z" fill="#000000"/>
    </g>
    <g>
      <path d="M3.5,2.833 L702.667,2.833 L702.667,256.833 L3.5,256.833 L3.5,2.833 z" fill="#FFF500"/>
      <path d="M3.5,2.833 L702.667,2.833 L702.667,256.833 L3.5,256.833 L3.5,2.833 z" fill-opacity="0" stroke="#000000" stroke-width="3"/>
    </g>
    <g>
      <path d="M31.839,180.801 L15.914,180.801 L15.914,94.399 L40.772,94.399 L55.642,162.336 L70.402,94.399 L94.982,94.399 L94.982,180.801 L79.057,180.801 L79.057,122.359 Q79.057,119.839 79.113,115.296 Q79.168,110.753 79.168,108.291 L63.688,180.801 L47.097,180.801 L31.728,108.291 Q31.728,110.753 31.783,115.296 Q31.839,119.839 31.839,122.359 z" fill="#000000"/>
      <path d="M111.85,123.825 Q118.12,115.384 133.379,115.384 Q143.311,115.384 151.023,119.546 Q158.736,123.707 158.736,135.255 L158.736,164.564 Q158.736,167.612 158.847,171.95 Q159.013,175.232 159.79,176.404 Q160.567,177.577 162.121,178.339 L162.121,180.801 L144.92,180.801 Q144.198,178.866 143.921,177.166 Q143.644,175.467 143.477,173.298 Q140.203,177.049 135.931,179.687 Q130.826,182.794 124.39,182.794 Q116.178,182.794 110.823,177.841 Q105.469,172.887 105.469,163.802 Q105.469,152.02 114.069,146.744 Q118.786,143.872 127.941,142.641 L133.323,141.937 Q137.707,141.351 139.593,140.472 Q142.978,138.948 142.978,135.724 Q142.978,131.797 140.398,130.302 Q137.818,128.807 132.824,128.807 Q127.22,128.807 124.889,131.738 Q123.225,133.907 122.67,137.6 L107.411,137.6 Q107.91,129.218 111.85,123.825 z M123.613,168.726 Q125.832,170.66 129.051,170.66 Q134.155,170.66 138.456,167.495 Q142.756,164.329 142.922,155.947 L142.922,149.734 Q141.424,150.73 139.898,151.346 Q138.372,151.961 135.709,152.489 L132.158,153.192 Q127.164,154.13 125,155.478 Q121.338,157.764 121.338,162.571 Q121.338,166.85 123.613,168.726 z" fill="#000000"/>
      <path d="M189.031,116.908 L189.031,180.801 L172.996,180.801 L172.996,116.908 z M189.031,93.871 L189.031,109.288 L172.996,109.288 L172.996,93.871 z" fill="#000000"/>
      <path d="M232.81,129.276 Q224.765,129.276 221.768,136.486 Q220.215,140.296 220.215,146.217 L220.215,180.801 L204.457,180.801 L204.457,117.025 L219.715,117.025 L219.715,126.345 Q222.767,121.421 225.486,119.253 Q230.369,115.384 237.859,115.384 Q247.237,115.384 253.201,120.571 Q259.166,125.759 259.166,137.776 L259.166,180.801 L242.964,180.801 L242.964,141.937 Q242.964,136.896 241.688,134.2 Q239.358,129.276 232.81,129.276 z" fill="#000000"/>
      <path d="M301.447,168.901 L301.447,181.387 L293.956,181.68 Q282.748,182.09 278.642,177.577 Q275.979,174.705 275.979,168.726 L275.979,129.393 L267.545,129.393 L267.545,117.494 L275.979,117.494 L275.979,99.674 L291.626,99.674 L291.626,117.494 L301.447,117.494 L301.447,129.393 L291.626,129.393 L291.626,163.157 Q291.626,167.084 292.569,168.051 Q293.512,169.019 298.34,169.019 Q299.061,169.019 299.865,168.989 Q300.67,168.96 301.447,168.901 z" fill="#000000"/>
      <path d="M363.37,162.043 Q362.759,167.729 357.765,173.591 Q349.997,182.911 336.015,182.911 Q324.474,182.911 315.651,175.056 Q306.829,167.202 306.829,149.499 Q306.829,132.91 314.791,124.059 Q322.754,115.208 335.46,115.208 Q343.006,115.208 349.054,118.197 Q355.102,121.187 359.042,127.635 Q362.593,133.321 363.647,140.824 Q364.257,145.22 364.146,153.485 L322.754,153.485 Q323.086,163.098 328.469,166.967 Q331.742,169.37 336.348,169.37 Q341.231,169.37 344.282,166.439 Q345.947,164.857 347.223,162.043 z M347.722,142.465 Q347.334,135.841 343.922,132.412 Q340.509,128.983 335.46,128.983 Q329.967,128.983 326.943,132.617 Q323.919,136.252 323.142,142.465 z" fill="#000000"/>
      <path d="M403.264,129.276 Q395.219,129.276 392.223,136.486 Q390.669,140.296 390.669,146.217 L390.669,180.801 L374.911,180.801 L374.911,117.025 L390.17,117.025 L390.17,126.345 Q393.221,121.421 395.94,119.253 Q400.823,115.384 408.314,115.384 Q417.691,115.384 423.656,120.571 Q429.62,125.759 429.62,137.776 L429.62,180.801 L413.418,180.801 L413.418,141.937 Q413.418,136.896 412.142,134.2 Q409.812,129.276 403.264,129.276 z" fill="#000000"/>
      <path d="M446.488,123.825 Q452.758,115.384 468.017,115.384 Q477.949,115.384 485.662,119.546 Q493.374,123.707 493.374,135.255 L493.374,164.564 Q493.374,167.612 493.485,171.95 Q493.652,175.232 494.428,176.404 Q495.205,177.577 496.759,178.339 L496.759,180.801 L479.558,180.801 Q478.837,178.866 478.559,177.166 Q478.282,175.467 478.115,173.298 Q474.842,177.049 470.569,179.687 Q465.465,182.794 459.028,182.794 Q450.816,182.794 445.462,177.841 Q440.107,172.887 440.107,163.802 Q440.107,152.02 448.708,146.744 Q453.424,143.872 462.579,142.641 L467.961,141.937 Q472.345,141.351 474.231,140.472 Q477.616,138.948 477.616,135.724 Q477.616,131.797 475.036,130.302 Q472.456,128.807 467.462,128.807 Q461.858,128.807 459.527,131.738 Q457.863,133.907 457.308,137.6 L442.049,137.6 Q442.549,129.218 446.488,123.825 z M458.251,168.726 Q460.471,170.66 463.689,170.66 Q468.794,170.66 473.094,167.495 Q477.394,164.329 477.561,155.947 L477.561,149.734 Q476.062,150.73 474.537,151.346 Q473.011,151.961 470.347,152.489 L466.796,153.192 Q461.802,154.13 459.638,155.478 Q455.976,157.764 455.976,162.571 Q455.976,166.85 458.251,168.726 z" fill="#000000"/>
      <path d="M535.877,129.276 Q527.831,129.276 524.835,136.486 Q523.281,140.296 523.281,146.217 L523.281,180.801 L507.523,180.801 L507.523,117.025 L522.782,117.025 L522.782,126.345 Q525.834,121.421 528.552,119.253 Q533.435,115.384 540.926,115.384 Q550.303,115.384 556.268,120.571 Q562.233,125.759 562.233,137.776 L562.233,180.801 L546.031,180.801 L546.031,141.937 Q546.031,136.896 544.755,134.2 Q542.424,129.276 535.877,129.276 z" fill="#000000"/>
      <path d="M629.149,139.827 L612.947,139.827 Q612.503,136.252 610.672,133.379 Q608.009,129.511 602.405,129.511 Q594.415,129.511 591.474,137.893 Q589.92,142.348 589.92,149.734 Q589.92,156.768 591.474,161.047 Q594.304,169.019 602.127,169.019 Q607.676,169.019 610.007,165.853 Q612.337,162.688 612.836,157.647 L628.983,157.647 Q628.428,165.267 623.767,172.067 Q616.332,183.028 601.739,183.028 Q587.146,183.028 580.266,173.884 Q573.385,164.74 573.385,150.144 Q573.385,133.672 580.987,124.528 Q588.589,115.384 601.961,115.384 Q613.336,115.384 620.577,120.777 Q627.818,126.169 629.149,139.827 z" fill="#000000"/>
      <path d="M691.793,162.043 Q691.183,167.729 686.189,173.591 Q678.421,182.911 664.439,182.911 Q652.897,182.911 644.075,175.056 Q635.253,167.202 635.253,149.499 Q635.253,132.91 643.215,124.059 Q651.177,115.208 663.884,115.208 Q671.43,115.208 677.478,118.197 Q683.526,121.187 687.466,127.635 Q691.017,133.321 692.071,140.824 Q692.681,145.22 692.57,153.485 L651.177,153.485 Q651.51,163.098 656.893,166.967 Q660.166,169.37 664.772,169.37 Q669.654,169.37 672.706,166.439 Q674.371,164.857 675.647,162.043 z M676.146,142.465 Q675.758,135.841 672.345,132.412 Q668.933,128.983 663.884,128.983 Q658.391,128.983 655.367,132.617 Q652.343,136.252 651.566,142.465 z" fill="#000000"/>
    </g>
  </g>
</svg>
