<?xml version="1.0" encoding="UTF-8"?>
<!DOCTYPE svg PUBLIC "-//W3C//DTD SVG 1.1//EN" "http://www.w3.org/Graphics/SVG/1.1/DTD/svg11.dtd">
<svg version="1.1" xmlns="http://www.w3.org/2000/svg" xmlns:xlink="http://www.w3.org/1999/xlink" x="0" y="0" width="512" height="512" viewBox="0, 0, 512, 512">
  <g id="Layer_1">
    <path d="M109.246,0.991 C126.661,1.384 142.161,8.713 154.88,20.328 C155.541,20.989 195.072,72.339 195.072,72.339 C219.438,97.937 219.373,138.169 194.923,163.688 L170.219,194.749 C197.831,261.841 251.044,315.162 318.08,342.909 L349.333,318.056 C374.855,293.626 415.072,293.569 440.661,317.928 C466.251,342.287 491.989,357.437 492.651,358.099 C518.391,383.91 518.391,425.684 492.651,451.496 L473.237,473.875 C298.517,641.149 -126.656,216.083 38.037,40.808 L62.571,19.475 C75.22,7.406 88.624,2.482 105.773,1.014 L109.246,0.991 z M109.783,43.739 C102.606,43.461 96.955,45.746 91.669,50.515 L67.136,71.848 C-53.227,216.573 315.221,564.584 442.048,444.733 L461.483,422.333 C470.95,413.564 471.752,398.865 463.296,389.117 C463.296,389.117 412.245,349.843 411.584,349.181 C402.436,340.111 387.687,340.111 378.539,349.181 C377.963,349.779 334.933,384.061 334.933,384.061 C329.034,388.757 321.094,389.99 314.048,387.304 C227.047,354.912 158.387,286.353 125.867,199.4 C122.965,192.253 124.148,184.096 128.96,178.067 C133.772,172.038 163.243,135.016 163.819,134.461 C172.889,125.313 172.889,110.564 163.819,101.416 C163.157,100.776 123.883,49.683 123.883,49.683 C119.002,45.503 115.903,44.721 109.783,43.739 z" fill="#000000"/>
  </g>
</svg>
