<?xml version="1.0" encoding="UTF-8"?>
<!DOCTYPE svg PUBLIC "-//W3C//DTD SVG 1.1//EN" "http://www.w3.org/Graphics/SVG/1.1/DTD/svg11.dtd">
<svg version="1.1" xmlns="http://www.w3.org/2000/svg" xmlns:xlink="http://www.w3.org/1999/xlink" x="0" y="0" width="24" height="24" viewBox="0, 0, 24, 24">
  <g id="Layer_1">
    <path d="M21,5 C19.89,4.65 18.67,4.5 17.5,4.5 C15.55,4.5 13.45,4.9 12,6 C10.55,4.9 8.45,4.5 6.5,4.5 C4.55,4.5 2.45,4.9 1,6 L1,20.65 C1,20.9 1.25,21.15 1.5,21.15 C1.6,21.15 1.65,21.1 1.75,21.1 C3.1,20.45 5.05,20 6.5,20 C8.45,20 10.55,20.4 12,21.5 C13.35,20.65 15.8,20 17.5,20 C19.15,20 20.85,20.3 22.25,21.05 C22.35,21.1 22.4,21.1 22.5,21.1 C22.75,21.1 23,20.85 23,20.6 L23,6 C22.4,5.55 21.75,5.25 21,5 z M21,18.5 C19.9,18.15 18.7,18 17.5,18 C15.8,18 13.35,18.65 12,19.5 L12,8 C13.35,7.15 15.8,6.5 17.5,6.5 C18.7,6.5 19.9,6.65 21,7 L21,18.5 z" fill="#000000"/>
    <path d="M17.5,10.5 C18.38,10.5 19.23,10.59 20,10.76 L20,9.24 C19.21,9.09 18.36,9 17.5,9 C15.8,9 14.26,9.29 13,9.83 L13,11.49 C14.13,10.85 15.7,10.5 17.5,10.5 z M13,12.49 L13,14.15 C14.13,13.51 15.7,13.16 17.5,13.16 C18.38,13.16 19.23,13.25 20,13.42 L20,11.9 C19.21,11.75 18.36,11.66 17.5,11.66 C15.8,11.66 14.26,11.96 13,12.49 z M17.5,14.33 C15.8,14.33 14.26,14.62 13,15.16 L13,16.82 C14.13,16.18 15.7,15.83 17.5,15.83 C18.38,15.83 19.23,15.92 20,16.09 L20,14.57 C19.21,14.41 18.36,14.33 17.5,14.33 z" fill="#000000"/>
  </g>
</svg>
