<?xml version="1.0" encoding="UTF-8"?>
<!DOCTYPE svg PUBLIC "-//W3C//DTD SVG 1.1//EN" "http://www.w3.org/Graphics/SVG/1.1/DTD/svg11.dtd">
<svg version="1.1" xmlns="http://www.w3.org/2000/svg" xmlns:xlink="http://www.w3.org/1999/xlink" x="0" y="0" width="512" height="512" viewBox="0, 0, 512, 512">
  <defs>
    <clipPath id="Clip_1">
      <path d="M-13.683,-6.397 L518.274,-6.397 L518.274,519.582 L-13.683,519.582 z"/>
    </clipPath>
  </defs>
  <g id="Layer_1">
    <g clip-path="url(#Clip_1)" id="Layer_1">
      <path d="M69.494,240.497 C82.213,241.169 86.089,242.963 85.722,248.647 C85.037,259.274 76.142,256.537 69.622,257.295 L69.622,289.612 C82.425,290.648 85.546,292.241 85.82,297.731 C86.097,303.322 83.182,304.97 69.576,306.817 L69.576,338.928 C76.114,339.647 85.163,337.052 85.536,346.819 C85.952,357.739 76.031,354.923 69.529,355.722 L69.529,388.17 C76.126,388.881 85.435,386.22 85.55,396.401 C85.669,406.967 75.959,404.037 69.656,405.056 L69.656,437.337 C82.262,438.092 86.072,439.842 85.72,445.47 C85.055,456.094 76.199,453.433 69.617,454.131 L69.617,486.367 L102.169,486.367 L102.169,27.787 L69.685,27.787 L69.685,43.657 C82.078,44.281 85.787,45.846 85.686,51.318 C85.481,62.454 76.228,59.622 69.634,60.494 L69.634,92.782 C82.377,93.721 86.037,95.379 85.719,100.902 C85.104,111.552 76.286,108.967 69.587,109.622 L69.587,142.068 C76.149,142.79 85.187,140.207 85.54,149.996 C85.934,160.924 75.98,158.037 69.541,158.868 L69.541,191.362 C76.209,191.932 85.45,189.413 85.548,199.578 C85.651,210.132 75.921,207.172 69.494,208.214 z M119.279,486.412 L450.464,486.412 L450.464,27.709 L119.279,27.709 z M52.682,454.307 C39.491,453.198 36.42,451.633 36.133,446.162 C35.838,440.506 38.821,438.82 52.409,437.082 L52.409,404.728 C49.802,404.728 47.115,404.86 44.445,404.7 C39.5,404.403 36.165,401.065 36.133,396.597 C36.101,392.116 39.415,388.714 44.334,388.396 C46.89,388.229 49.465,388.366 52.355,388.366 L52.355,355.703 C45.729,355.005 36.874,357.672 36.232,347.023 C35.892,341.4 39.65,339.679 52.301,338.902 L52.301,306.626 C45.997,305.602 36.286,308.557 36.399,297.977 C36.51,287.767 45.822,290.46 52.422,289.742 L52.422,257.285 C45.945,256.489 36.022,259.33 36.413,248.417 C36.762,238.61 45.814,241.234 52.366,240.496 L52.366,208.054 C45.685,207.38 36.852,210.008 36.233,199.348 C35.909,193.78 39.605,192.099 52.312,191.232 L52.312,158.956 C45.949,157.983 36.245,160.919 36.401,150.302 C36.55,140.151 45.819,142.752 52.433,142.139 L52.433,109.655 C45.913,108.844 35.988,111.678 36.417,100.742 C36.8,90.993 45.804,93.51 52.379,92.936 L52.379,60.75 C38.722,58.874 35.871,57.266 36.133,51.677 C36.392,46.141 39.569,44.52 52.682,43.536 C52.682,36.331 52.661,29.051 52.688,21.772 C52.717,13.739 55.435,11.041 63.593,11.039 C194.58,11.031 325.569,11.031 456.558,11.039 C464.694,11.041 467.456,13.759 467.456,21.786 C467.466,178.643 467.466,335.5 467.456,492.356 C467.456,500.417 464.701,503.171 456.616,503.171 C325.626,503.18 194.636,503.179 63.647,503.172 C55.467,503.172 52.707,500.469 52.69,492.481 C52.663,479.863 52.682,467.244 52.682,454.307" fill="#000000"/>
      <path d="M224.443,101.508 C229.934,117.664 229.934,117.664 246.137,117.664 C248.208,117.664 250.302,117.85 252.34,117.59 C253.534,117.437 255.19,116.875 255.69,115.979 C258.24,111.402 260.483,106.657 263.065,101.508 z M234.601,134.273 C233.949,143.458 233.342,152.284 232.692,161.107 C231.189,181.547 229.621,201.982 228.176,222.426 C227.722,228.859 231.101,232.337 237.641,232.482 C241.095,232.559 244.552,232.515 248.008,232.495 C256.378,232.447 259.323,229.033 258.678,220.65 C257.313,202.94 256.107,185.219 254.809,167.505 C254.002,156.48 253.148,145.457 252.301,134.273 z M218.594,84.61 L235.189,84.61 C235.189,76.824 235.11,69.041 235.215,61.261 C235.295,55.309 239.344,51.452 244.519,52.134 C248.922,52.714 251.686,56.067 251.75,61.275 C251.843,68.927 251.773,76.583 251.773,84.544 L268.368,84.544 C268.368,77.064 268.344,69.767 268.376,62.469 C268.405,55.919 271.337,52.2 276.479,52.084 C281.797,51.965 284.902,55.826 284.96,62.628 C284.961,62.798 284.943,62.972 284.963,63.14 C287.413,84.716 283.03,104.653 270.988,123.002 C269.225,125.689 268.831,129.775 269.052,133.132 C271.022,162.946 273.409,192.734 275.382,222.547 C276.346,237.097 265.216,248.586 250.464,248.878 C245.801,248.971 241.136,248.972 236.474,248.879 C221.732,248.583 210.63,237.085 211.58,222.526 C213.237,197.14 215.248,171.778 217.116,146.407 C217.516,140.956 218.015,135.513 218.291,130.059 C218.364,128.599 217.907,127.071 217.464,125.644 C217.116,124.518 216.524,123.428 215.857,122.444 C203.386,104.087 199.758,83.799 201.922,62.094 C202.551,55.792 205.306,51.96 210.487,52.084 C215.478,52.204 218.536,55.871 218.58,61.971 C218.636,69.437 218.594,76.905 218.594,84.61" fill="#000000"/>
      <path d="M325.607,167.053 C323.742,185.814 321.812,204.093 320.164,222.396 C319.543,229.291 322.79,232.388 329.876,232.489 C333.15,232.536 336.426,232.54 339.699,232.488 C346.731,232.377 349.815,229.269 349.306,222.29 C348.688,213.798 347.778,205.326 346.914,196.853 C345.9,186.928 344.8,177.012 343.733,167.053 z M342.906,70.151 C334.4,73.553 329.599,79.726 325.701,86.57 C317.281,101.348 313.55,117.607 310.845,134.172 C310.334,137.298 312.037,138.228 314.314,139.429 C319.335,142.08 325.691,143.316 326.719,150.095 L342.906,150.095 z M359.619,117.426 C357.73,146.253 361.594,181.387 365.585,216.514 C366.488,224.462 365.753,231.786 361.363,239.095 C353.322,252.48 315.954,252.756 308.015,238.872 C304.827,233.295 302.9,227.753 303.533,221.393 C305.464,202.032 307.189,182.646 309.473,163.326 C310.12,157.851 309.242,154.741 303.727,152.314 C292.391,147.323 292.525,146.972 294.109,134.749 C296.535,116.022 301.006,97.865 309.929,81.018 C314.882,71.667 321.011,62.969 330.609,58.005 C336.401,55.011 343.129,53.307 349.64,52.289 C356.13,51.276 359.566,55.021 359.595,61.623 C359.666,78.017 359.619,94.41 359.619,117.426" fill="#000000"/>
      <path d="M293.255,371.922 C293.255,400.8 293.257,429.677 293.251,458.555 C293.251,460.092 293.402,461.666 293.121,463.157 C292.29,467.568 289.546,470.253 284.967,470.257 C280.391,470.261 277.626,467.601 276.797,463.181 C276.517,461.69 276.668,460.114 276.668,458.577 C276.664,400.823 276.664,343.069 276.668,285.315 C276.668,283.777 276.517,282.203 276.792,280.71 C277.611,276.288 280.361,273.626 284.942,273.616 C289.53,273.606 292.275,276.28 293.117,280.688 C293.402,282.177 293.251,283.753 293.251,285.29 C293.257,314.167 293.255,343.045 293.255,371.922" fill="#000000"/>
      <path d="M173.299,289.916 C182.284,289.916 191.271,289.879 200.255,289.929 C206.428,289.965 210.137,292.994 210.254,297.933 C210.374,303.042 206.52,306.294 200.102,306.306 C181.959,306.343 163.816,306.346 145.672,306.303 C139.46,306.29 135.795,303.267 135.681,298.293 C135.562,293.151 139.369,289.96 145.825,289.927 C154.983,289.882 164.141,289.916 173.299,289.916" fill="#000000"/>
      <path d="M347.543,306.319 C338.385,306.319 329.227,306.353 320.069,306.308 C313.603,306.275 309.792,303.1 309.889,297.966 C309.984,292.989 313.649,289.945 319.844,289.931 C337.988,289.889 356.131,289.893 374.274,289.927 C380.731,289.94 384.559,293.138 384.462,298.257 C384.366,303.337 380.575,306.286 373.981,306.311 C365.169,306.345 356.355,306.319 347.543,306.319" fill="#000000"/>
      <path d="M172.835,355.534 C164.023,355.534 155.21,355.554 146.398,355.528 C139.483,355.507 135.593,352.456 135.681,347.2 C135.766,342.101 139.53,339.149 146.136,339.14 C164.107,339.112 182.077,339.108 200.048,339.142 C206.516,339.155 210.34,342.335 210.254,347.454 C210.169,352.537 206.375,355.501 199.791,355.526 C190.807,355.56 181.82,355.534 172.835,355.534" fill="#000000"/>
      <path d="M346.657,355.533 C337.672,355.533 328.686,355.581 319.701,355.516 C313.596,355.474 309.89,352.307 309.889,347.331 C309.887,342.334 313.565,339.164 319.694,339.149 C338.01,339.1 356.325,339.1 374.642,339.148 C380.74,339.164 384.458,342.357 384.462,347.322 C384.465,352.279 380.732,355.475 374.65,355.516 C365.319,355.579 355.987,355.533 346.657,355.533" fill="#000000"/>
      <path d="M172.97,388.345 C182.128,388.345 191.286,388.3 200.445,388.362 C206.539,388.403 210.258,391.581 210.254,396.547 C210.25,401.503 206.518,404.714 200.431,404.729 C182.116,404.778 163.799,404.78 145.483,404.729 C139.378,404.712 135.676,401.515 135.682,396.535 C135.686,391.538 139.361,388.403 145.495,388.362 C154.653,388.3 163.812,388.345 172.97,388.345" fill="#000000"/>
      <path d="M347.064,404.748 C338.079,404.748 329.094,404.781 320.107,404.737 C313.621,404.706 309.817,401.565 309.889,396.435 C309.96,391.448 313.624,388.376 319.805,388.361 C338.122,388.317 356.438,388.311 374.753,388.365 C380.81,388.383 384.531,391.667 384.461,396.648 C384.392,401.588 380.664,404.695 374.539,404.732 C365.38,404.789 356.222,404.747 347.064,404.748" fill="#000000"/>
      <path d="M173.01,437.56 C182.169,437.56 191.327,437.514 200.485,437.577 C206.564,437.619 210.285,440.83 210.253,445.802 C210.223,450.755 206.495,453.929 200.391,453.945 C182.075,453.992 163.758,453.995 145.443,453.942 C139.346,453.925 135.649,450.699 135.681,445.709 C135.713,440.714 139.381,437.615 145.536,437.575 C154.694,437.517 163.852,437.56 173.01,437.56" fill="#000000"/>
      <path d="M346.895,453.962 C337.91,453.962 328.924,453.999 319.939,453.949 C313.705,453.914 310.041,450.957 309.89,445.995 C309.73,440.857 313.555,437.586 319.973,437.572 C338.118,437.534 356.262,437.535 374.403,437.572 C380.601,437.586 384.307,440.588 384.462,445.517 C384.621,450.626 380.755,453.916 374.37,453.95 C365.212,453.999 356.054,453.962 346.895,453.962" fill="#000000"/>
      <path d="M243.44,289.964 C246.377,289.963 249.329,289.773 252.246,290.006 C256.844,290.371 260.005,293.8 260.028,298.076 C260.05,302.335 256.893,305.977 252.32,306.199 C246.46,306.481 240.567,306.474 234.706,306.204 C230.108,305.993 226.953,302.419 226.933,298.149 C226.912,293.871 230.054,290.393 234.634,290.012 C237.55,289.769 240.503,289.967 243.44,289.964" fill="#000000"/>
      <path d="M417.273,306.296 C414.682,306.3 412.082,306.426 409.501,306.274 C404.542,305.983 401.202,302.683 401.141,298.218 C401.08,293.739 404.381,290.188 409.288,289.992 C414.808,289.772 420.348,289.79 425.868,289.976 C430.817,290.144 434.172,293.551 434.236,298.007 C434.298,302.466 430.976,305.942 426.08,306.258 C423.157,306.446 420.21,306.292 417.273,306.296" fill="#000000"/>
      <path d="M243.15,355.497 C240.387,355.493 237.609,355.663 234.862,355.455 C230.234,355.105 227.037,351.78 226.933,347.517 C226.823,343.045 230.119,339.411 234.994,339.215 C240.686,338.986 246.402,338.984 252.093,339.225 C256.717,339.422 259.921,342.874 260.028,347.136 C260.138,351.588 256.821,355.133 251.958,355.466 C249.037,355.664 246.087,355.501 243.15,355.497" fill="#000000"/>
      <path d="M417.415,355.497 C414.651,355.497 411.874,355.664 409.125,355.46 C404.286,355.1 400.988,351.51 401.142,347.06 C401.287,342.791 404.495,339.405 409.146,339.219 C414.838,338.99 420.554,338.989 426.245,339.221 C430.884,339.41 434.099,342.822 434.236,347.081 C434.378,351.524 431.063,355.118 426.221,355.46 C423.301,355.667 420.352,355.499 417.415,355.497" fill="#000000"/>
      <path d="M243.588,388.371 C246.353,388.371 249.126,388.223 251.878,388.402 C256.777,388.723 260.093,392.183 260.027,396.651 C259.965,400.918 256.784,404.439 252.171,404.641 C246.31,404.897 240.417,404.916 234.559,404.62 C230.002,404.389 226.872,400.694 226.934,396.43 C226.995,392.146 230.167,388.891 234.779,388.391 C235.121,388.353 235.469,388.354 235.814,388.354 C238.406,388.352 240.996,388.353 243.588,388.353 z" fill="#000000"/>
      <path d="M417.507,404.716 C414.743,404.716 411.967,404.874 409.217,404.682 C404.344,404.342 401.04,400.829 401.142,396.365 C401.238,392.091 404.424,388.641 409.054,388.442 C414.746,388.196 420.462,388.201 426.152,388.427 C431.029,388.622 434.337,392.253 434.236,396.717 C434.139,400.969 430.921,404.219 426.316,404.704 C425.974,404.741 425.626,404.739 425.281,404.739 C422.689,404.742 420.099,404.741 417.507,404.741 z" fill="#000000"/>
      <path d="M243.947,453.912 C240.838,453.909 237.711,454.114 234.623,453.86 C230.051,453.483 226.905,449.975 226.932,445.708 C226.96,441.425 230.112,437.876 234.718,437.671 C240.579,437.406 246.471,437.398 252.33,437.677 C256.905,437.897 260.055,441.533 260.027,445.803 C260,450.067 256.829,453.491 252.235,453.873 C249.491,454.101 246.712,453.914 243.947,453.912" fill="#000000"/>
      <path d="M418.274,437.583 C420.866,437.583 423.466,437.443 426.045,437.612 C430.956,437.934 434.278,441.355 434.235,445.826 C434.195,450.091 431.024,453.646 426.421,453.851 C420.558,454.114 414.666,454.127 408.807,453.838 C404.241,453.612 401.102,449.949 401.142,445.685 C401.182,441.401 404.347,438.123 408.947,437.608 C409.289,437.569 409.636,437.569 409.981,437.569 C412.746,437.567 415.51,437.568 418.274,437.568 z" fill="#000000"/>
    </g>
  </g>
</svg>
