<?xml version="1.0" encoding="UTF-8"?>
<!DOCTYPE svg PUBLIC "-//W3C//DTD SVG 1.1//EN" "http://www.w3.org/Graphics/SVG/1.1/DTD/svg11.dtd">
<svg version="1.1" xmlns="http://www.w3.org/2000/svg" xmlns:xlink="http://www.w3.org/1999/xlink" x="0" y="0" width="512" height="512" viewBox="0, 0, 512, 512">
  <defs>
    <clipPath id="Clip_1">
      <path d="M4.189,1.352 L509.363,1.352 L509.363,509.286 L4.189,509.286 z"/>
    </clipPath>
  </defs>
  <g id="Layer_1">
    <g clip-path="url(#Clip_1)" id="Isolation_Mode">
      <path d="M343.538,490.201 L381.723,490.201 C375.172,484.194 368.785,478.336 362.868,472.907 C356.939,478.214 350.58,483.902 343.538,490.201 M489.407,63.885 C489.407,54.065 489.323,44.244 489.425,34.427 C489.592,18.354 487.323,19.648 474.247,19.836 C463.423,19.994 462.236,20.999 462.23,31.495 C462.217,52.098 462.367,72.701 462.185,93.301 C462.027,111.444 464.92,108.512 478.562,108.513 C487.653,108.515 489.353,106.997 489.392,98.543 C489.447,86.99 489.406,75.438 489.407,63.885 M290.738,86.418 L289.839,84.928 L285.071,84.928 C209.614,84.928 134.157,84.928 58.7,84.931 C57.467,84.931 56.225,84.892 55.002,85.002 C47.136,85.707 42.211,90.301 41.606,97.694 C41.37,100.568 41.41,103.479 41.566,106.363 C42.023,114.74 47.146,119.594 56.065,119.601 C121.036,119.669 186.008,119.655 250.979,119.578 C252.865,119.577 255.297,119.131 256.55,117.997 C268.063,107.583 279.37,96.971 290.738,86.418 M396.047,476.569 C396.617,476.334 397.189,476.099 397.76,475.864 L397.76,471.446 C397.76,405.132 397.776,338.816 397.7,272.502 C397.697,269.665 397.168,266.734 396.314,264.004 C385.381,229.11 374.35,194.24 363.325,159.37 C362.733,157.499 361.958,155.68 360.688,152.287 C350.962,186.213 341.683,218.336 332.596,250.507 C330.927,256.413 328.985,262.511 328.963,268.526 C328.705,335.805 328.8,403.084 328.8,470.363 L328.8,475.883 L330.505,476.852 C336.653,470.758 342.612,464.481 349.027,458.645 C352.235,455.724 353.526,452.782 353.513,448.561 C353.365,393.427 353.414,338.293 353.419,283.158 C353.419,281.231 353.327,279.289 353.549,277.382 C354.126,272.457 357.384,269.642 362.406,269.238 C367.474,268.832 371.174,271.262 372.539,275.958 C373.172,278.137 373.143,280.527 373.144,282.821 C373.174,338.341 373.146,393.861 373.245,449.382 C373.25,451.7 373.639,454.659 375.144,456.226 C381.854,463.226 389.036,469.825 396.047,476.569 M442.231,39.373 L434.442,39.373 C385.919,39.373 337.382,39.998 288.876,39.091 C267.026,38.681 247.55,43.768 228.921,53.55 C221.393,57.504 213.81,61.368 206.252,65.273 C206.424,65.652 206.597,66.032 206.768,66.411 L213.508,66.411 C246.201,66.411 278.893,66.439 311.584,66.383 C316.999,66.374 322.045,66.915 324.481,72.255 C326.945,77.66 323.693,81.321 319.854,84.902 C301.786,101.763 283.787,118.691 265.806,135.634 C259.425,141.647 257.453,148.874 260.382,156.878 C263.171,164.499 269.341,168.694 277.753,169.821 C284.252,170.693 289.793,168.407 294.873,164.742 C310.02,153.814 325.452,143.216 340.307,131.952 C348.862,125.466 357.691,122.337 368.965,122.749 C386.224,123.378 399.906,110.939 401.616,94.853 C402.67,84.939 404.844,83.091 415.63,83.06 C424.421,83.036 433.212,83.056 442.231,83.056 z M62.499,138.336 C56.141,158.5 49.761,178.402 43.601,198.362 C38.013,216.468 31.211,234.392 27.643,252.853 C24.479,269.231 24.184,286.233 24.087,302.967 C23.745,361.197 24.07,419.432 24.065,477.663 C24.065,487.658 27.101,490.7 37.992,490.702 C126.032,490.71 214.074,490.707 302.114,490.707 L309.049,490.707 C309.049,487.518 309.047,485.227 309.049,482.938 C309.11,410.432 309.154,337.93 309.294,265.425 C309.301,262.007 309.781,258.495 310.706,255.19 C315.292,238.808 320.128,222.486 324.827,206.128 C329.453,190.024 334.02,173.905 338.862,156.915 C337.105,157.945 336.215,158.379 335.428,158.94 C325.119,166.292 315.017,173.916 304.485,180.977 C278.325,198.517 242.953,183.667 239.72,153.78 C239.177,148.763 240.106,143.604 240.361,138.336 z M42.476,136.208 C20.278,125.715 18.272,104.797 24.303,86.535 C28.504,73.81 41.426,66.485 57.117,66.44 C89.416,66.349 121.716,66.565 154.009,66.252 C159.069,66.204 164.569,64.879 169.074,62.702 C190.25,52.463 211.081,41.596 232.175,31.201 C245.848,24.466 260.558,21.003 276.028,20.972 C329.308,20.869 382.59,20.886 435.87,20.858 C438.317,20.856 440.763,20.858 443.042,20.858 C449.69,5.085 455.585,1.353 473.392,1.352 C475.86,1.352 478.328,1.352 480.796,1.353 C497.71,1.358 508.513,10.246 508.902,26.29 C509.515,51.539 509.52,76.82 508.898,102.069 C508.503,118.138 497.702,127.007 480.74,127.03 C477.243,127.035 473.746,127.049 470.249,127.027 C455.01,126.935 445.184,119.048 442.678,104.904 C442.516,103.992 442.396,103.074 442.175,101.618 C435.616,101.618 429.285,101.517 422.965,101.721 C421.955,101.754 420.392,102.986 420.098,103.938 C413.957,123.879 399.873,135.996 378.163,141.063 C383.757,158.874 389.237,176.387 394.756,193.89 C401.799,216.227 408.935,238.539 415.866,260.907 C416.882,264.182 417.441,267.705 417.444,271.117 C417.531,345.94 417.516,420.764 417.507,495.588 C417.505,506.361 414.352,509.289 402.806,509.287 C281.02,509.268 159.232,509.248 37.446,509.219 C16.204,509.214 4.276,497.975 4.267,477.98 C4.243,410.87 4.079,343.759 4.314,276.649 C4.383,257.008 10.293,238.202 16.082,219.518 C24.444,192.532 33.209,165.654 41.797,138.729 C42.028,138.002 42.196,137.259 42.476,136.208" fill="#000000"/>
    </g>
  </g>
</svg>
