<?xml version="1.0" encoding="UTF-8"?>
<!DOCTYPE svg PUBLIC "-//W3C//DTD SVG 1.1//EN" "http://www.w3.org/Graphics/SVG/1.1/DTD/svg11.dtd">
<svg version="1.1" xmlns="http://www.w3.org/2000/svg" xmlns:xlink="http://www.w3.org/1999/xlink" x="0" y="0" width="938" height="965" viewBox="0, 0, 938, 965">
  <defs>
    <clipPath id="Clip_1">
      <path d="M0.06,0.3 L937.4,0.3 L937.4,964.94 L0.06,964.94 z"/>
    </clipPath>
  </defs>
  <g id="Layer_1">
    <path d="M571.7,476 L571.7,476 C565.6,487.8 549.8,489.3 534.3,480.8 C523.8,475 523.9,460.3 525.1,451.3 C525.7,446.4 527.5,441.8 530.2,437.9 C533.9,432.6 540.2,425.6 547.4,425.4 C559.1,425 569.2,431 574.9,441.7 C580.6,452.4 577.8,464.2 571.7,476 z M455.4,461.3 L455.4,461.3 C447.1,469.9 436.1,469.1 424.5,464.7 C412.9,460.4 407.7,444.5 412.1,425.4 C415.4,411.2 430.8,409.1 438.5,408.9 C441.4,408.8 444.3,409.5 447,410.9 C452.5,413.7 461.7,419.6 463.6,428.7 C466.3,441.7 463.7,452.7 455.4,461.3 z M582.3,0.3 L582.3,0.3 L552.7,318.1 L502.2,50.2 L343.7,88.2 L394.2,356.1 L165.7,410.8 L206.1,624.8 L607.8,721 L699.7,488.5 L743.4,19.5 L582.3,0.3" fill="#7B7B7B"/>
    <path d="M672.3,835.2 C658,835.2 646,841.7 638.4,853.7 L635,838 L602.3,838 L607.6,862.3 L607.6,962.3 L639.4,962.3 L639.4,883.1 C643.7,874.9 651.8,869.9 662.3,869.9 C668.8,869.9 674.7,871.6 680.2,875.4 L695.3,841.4 C688.3,837.1 680.2,835.2 672.3,835.2" fill="#000000"/>
    <g clip-path="url(#Clip_1)">
      <path d="M127.7,964.7 L127.7,964.7" fill="#3DC3C0"/>
      <path d="M744.6,931.5 L744.6,931.5 C726.2,931.5 712.6,919.2 712.6,900.2 C712.6,880.9 726.2,868.9 744.6,868.9 C763.2,868.9 776.6,880.9 776.6,900.2 C776.7,919.3 763.3,931.5 744.6,931.5 z M744.6,835.4 C708.5,835.4 681.7,861.7 681.7,900.2 C681.7,938.7 708.5,965 744.5,965 C780.6,965 807.3,938.8 807.3,900.2 C807.5,861.7 780.7,835.4 744.6,835.4" fill="#000000"/>
      <path d="M874.6,931.5 C856.2,931.5 842.6,919.2 842.6,900.2 C842.6,880.9 856.2,868.9 874.6,868.9 C893.2,868.9 906.6,880.9 906.6,900.2 C906.6,919.3 893.3,931.5 874.6,931.5 z M874.6,835.4 C838.5,835.4 811.7,861.7 811.7,900.2 C811.7,938.7 838.5,965 874.5,965 C910.6,965 937.4,938.8 937.4,900.2 C937.5,861.7 910.7,835.4 874.6,835.4" fill="#000000"/>
      <path d="M62.8,931.5 C44.4,931.5 30.8,919.2 30.8,900.2 C30.8,880.9 44.4,868.9 62.8,868.9 C81.4,868.9 94.8,880.9 94.8,900.2 C94.9,919.3 81.5,931.5 62.8,931.5 z M126.4,782.9 L94.6,782.9 L94.6,853 C85,841.9 71.9,835.4 56.4,835.4 C24.6,835.4 -0,861.6 -0,900.2 C-0,938.7 24.6,965 56.4,965 C72.2,965 85.8,958.3 95.4,946.7 L98.7,962.4 L131.9,962.4 L126.4,936.6 L126.4,782.9" fill="#000000"/>
      <path d="M416.4,938.8 L392,838.1 L357.9,838.1 L391.1,962.4 L442.2,962.4 L475.4,838.1 L440.8,838.1 L416.4,938.8" fill="#000000"/>
      <path d="M504.8,888.9 C508.4,874.7 519.1,867 535.4,867 C551.9,867 562.7,874.7 566,888.9 L504.8,888.9 z M535.4,835.4 C499.6,835.4 473.3,861.4 473.3,900.2 C473.3,939.7 499.4,965 539.7,965 C557.4,965 574.8,960.2 589.4,950.8 L577.2,923.3 C565.7,929.3 553.1,932.9 540.2,932.9 C523.5,932.9 511.8,926.4 506.7,914.4 L596.1,914.4 C597.1,909.8 597.5,905.3 597.5,899.7 C597.5,861.2 571,835.4 535.4,835.4" fill="#000000"/>
    </g>
    <path d="M167.7,888.9 C171.3,874.7 182,867 198.3,867 C214.8,867 225.5,874.7 228.9,888.9 L167.7,888.9 z M198.9,835.1 C163.1,835.1 136.8,861.1 136.8,899.9 C136.8,939.4 162.8,964.7 203.2,964.7 C220.9,964.7 238.3,959.9 252.9,950.5 L240.7,923 C229.2,929 216.6,932.6 203.7,932.6 C187,932.6 175.3,926.1 170.2,914.1 L259.6,914.1 C260.6,909.5 261,905 261,899.4 C261,860.9 234.5,835.1 198.9,835.1" fill="#000000"/>
    <path d="M335.9,780.5 C324.4,780.5 315.8,789.2 315.8,800.7 C315.8,812.2 324.4,820.9 335.9,820.9 C347.1,820.9 355.7,812.2 355.7,800.7 C355.7,789.2 347.1,780.5 335.9,780.5" fill="#000000"/>
    <path d="M319.9,838.1 L351.7,838.1 L351.7,962.4 L319.9,962.4 z" fill="#000000"/>
    <path d="M270.4,962.4 L302.2,962.4 L302.2,782.9 L270.4,782.9 z" fill="#000000"/>
  </g>
</svg>
