<?xml version="1.0" encoding="UTF-8"?>
<!DOCTYPE svg PUBLIC "-//W3C//DTD SVG 1.1//EN" "http://www.w3.org/Graphics/SVG/1.1/DTD/svg11.dtd">
<svg version="1.1" xmlns="http://www.w3.org/2000/svg" xmlns:xlink="http://www.w3.org/1999/xlink" x="0" y="0" width="359" height="359" viewBox="0, 0, 359, 359">
  <g id="Layer_1">
    <path d="M13.713,2.791 L345.287,2.791 C351.756,2.791 357,8.611 357,15.791 L357,344.791 C357,351.971 351.756,357.791 345.287,357.791 L13.713,357.791 C7.244,357.791 2,351.971 2,344.791 L2,15.791 C2,8.611 7.244,2.791 13.713,2.791 z" fill="#7B7B7B"/>
  </g>
  <g id="Layer_2">
    <g>
      <path d="M179.637,324.901 Q137.917,324.901 96.197,324.901 C56.837,324.901 27.897,303.401 16.537,265.711 C13.317,255.031 13.147,244.071 14.167,233.041 C16.107,211.841 21.937,191.661 29.497,171.821 C43.287,135.641 62.667,103.051 90.047,75.481 C106.727,58.691 125.937,45.871 149.047,39.801 C184.507,30.511 217.447,36.631 247.387,57.481 C276.127,77.481 296.567,104.901 312.907,135.351 C326.777,161.221 337.527,188.411 342.767,217.481 C346.677,239.141 347.357,260.611 336.657,280.831 C321.577,309.361 297.897,324.441 265.517,324.831 C236.927,325.171 208.277,324.891 179.637,324.901 z M179.017,245.231 C202.667,245.231 226.317,245.431 249.967,245.081 C255.407,245.001 256.417,246.691 256.327,251.691 C256.027,269.331 256.197,286.991 256.237,304.641 C256.237,306.421 255.337,308.641 258.767,308.851 C289.197,310.451 311.677,296.251 323.457,271.191 C331.067,254.981 330.167,238.021 326.897,221.191 C318.993,180.023 301.569,141.274 276.017,108.041 C262.697,90.591 247.447,75.141 228.017,64.321 C189.807,43.101 142.917,49.061 108.637,80.271 C70.387,115.111 47.987,159.341 34.737,208.601 C30.537,224.231 28.107,240.321 31.027,256.531 C35.617,282.051 57.657,310.431 98.377,308.851 C101.837,308.721 102.827,307.921 102.797,304.421 C102.617,286.271 102.847,268.121 102.597,249.971 C102.547,245.881 103.807,245.081 107.597,245.101 C131.387,245.291 155.207,245.231 179.017,245.231 z" fill="#020404"/>
      <path d="M179.017,245.231 C155.207,245.231 131.387,245.311 107.567,245.141 C103.767,245.141 102.507,245.921 102.567,250.011 C102.817,268.161 102.567,286.311 102.767,304.461 C102.767,307.961 101.767,308.761 98.347,308.891 C57.627,310.471 35.587,282.091 30.997,256.571 C28.077,240.361 30.507,224.271 34.707,208.641 C47.957,159.381 70.357,115.151 108.607,80.311 C142.887,49.101 189.777,43.141 227.987,64.361 C247.457,75.181 262.707,90.631 275.987,108.081 C301.55,141.311 318.984,180.06 326.897,221.231 C330.167,238.021 331.067,254.981 323.457,271.231 C311.677,296.231 289.197,310.431 258.767,308.831 C255.337,308.651 256.247,306.401 256.237,304.621 C256.237,286.971 256.027,269.311 256.327,251.671 C256.417,246.671 255.407,244.981 249.967,245.061 C226.317,245.411 202.667,245.231 179.017,245.231 z M136.527,176.031 C136.627,160.811 124.117,149.611 110.867,153.031 C101.427,155.491 94.597,165.441 94.867,176.331 C95.137,187.221 102.327,196.861 111.867,198.881 C124.527,201.571 136.407,190.531 136.527,176.031 z M263.997,175.701 C263.897,159.961 250.487,148.851 237.107,153.421 C228.307,156.421 222.377,165.651 222.467,176.191 C222.557,186.481 228.467,195.331 237.347,198.261 C250.707,202.701 264.077,191.381 263.967,175.701 z" fill="#FDFDFD"/>
      <path d="M136.527,176.031 C136.437,190.531 124.527,201.571 111.907,198.911 C102.317,196.911 95.127,187.381 94.907,176.361 C94.687,165.341 101.477,155.521 110.907,153.061 C124.087,149.611 136.597,160.811 136.527,176.031 z" fill="#020404"/>
      <path d="M263.967,175.701 C264.077,191.381 250.707,202.701 237.317,198.261 C228.527,195.331 222.527,186.481 222.437,176.231 C222.347,165.691 228.277,156.471 237.077,153.461 C250.457,148.851 263.867,159.961 263.967,175.701 z" fill="#020404"/>
    </g>
  </g>
</svg>
