<?xml version="1.0" encoding="UTF-8"?>
<!DOCTYPE svg PUBLIC "-//W3C//DTD SVG 1.1//EN" "http://www.w3.org/Graphics/SVG/1.1/DTD/svg11.dtd">
<svg version="1.1" xmlns="http://www.w3.org/2000/svg" xmlns:xlink="http://www.w3.org/1999/xlink" x="0" y="0" width="1724" height="1724" viewBox="0, 0, 1724, 1724">
  <defs>
    <clipPath id="Clip_1">
      <path d="M362.661,13.219 L1362.661,13.219 L1362.661,1198.771 L362.661,1198.771 z"/>
    </clipPath>
  </defs>
  <g id="Layer_1">
    <g>
      <path d="M152.652,1310.828 L75.411,1310.828 C50.434,1310.828 50.434,1310.828 45.166,1345.335 C39.913,1379.824 39.987,1381.047 62.923,1381.047 L108.868,1381.047 L82.751,1557.319 C76.447,1596.701 61.887,1623.887 16.978,1639.856 C5.525,1643.525 2.418,1648.399 2.418,1654.602 C3.217,1664.526 5.717,1674.153 9.742,1682.906 C16.993,1703.872 21.21,1707.628 27.41,1707.628 C34.856,1706.786 42.219,1705.113 49.398,1702.632 C112.996,1678.014 139.113,1620.113 149.545,1551.099 L178.769,1352.761 C183.933,1310.828 183.933,1310.828 152.652,1310.828" fill="#000000"/>
      <path d="M414.575,1310.828 C383.294,1310.828 383.294,1310.828 379.062,1341.666 L356.511,1501.847 C350.222,1548.671 339.791,1575.735 301.17,1575.735 C262.565,1575.735 250.076,1548.653 256.365,1506.721 L278.264,1353.984 C284.553,1310.828 283.429,1310.828 251.112,1310.828 C218.78,1310.828 218.78,1310.828 214.563,1340.443 L191.628,1500.641 C178.103,1591.826 226.105,1648.399 293.949,1648.399 C370.05,1648.399 408.656,1607.795 421.16,1511.736 L444.169,1352.761 C449.348,1310.828 447.276,1310.828 414.96,1310.828" fill="#000000"/>
      <path d="M557.47,1573.288 C582.566,1572.064 596.09,1558.542 596.09,1545.002 C596.09,1527.705 578.334,1521.59 554.363,1512.94 C507.397,1495.643 464.648,1476.006 464.648,1416.882 C464.648,1346.645 513.7,1308.382 575.227,1308.382 C599.976,1308.172 624.718,1309.432 649.36,1312.156 C665.992,1314.601 670.224,1320.718 664.956,1351.538 C659.688,1382.375 653.488,1384.822 638.928,1383.599 C621.171,1382.375 598.162,1379.824 571.098,1379.824 C539.817,1379.824 530.407,1393.47 530.407,1405.787 C530.407,1421.756 542.91,1430.422 572.134,1440.294 C626.336,1458.709 661.849,1484.672 661.849,1540.127 C661.849,1605.471 621.171,1643.63 555.413,1646.058 C524.001,1647.366 492.553,1645.325 461.452,1639.961 C440.514,1636.187 439.478,1636.187 444.731,1600.474 C449.91,1568.518 449.91,1565.969 469.738,1568.518 C498.785,1572.851 528.098,1574.476 557.381,1573.411" fill="#000000"/>
      <path d="M898.705,1310.828 L722.353,1310.828 C697.36,1310.828 697.36,1310.828 692.108,1346.645 C686.841,1382.497 687.965,1382.375 709.865,1382.375 L767.277,1382.375 L734.856,1603.357 C728.642,1646.39 729.678,1646.39 762.01,1646.39 C792.255,1646.39 793.291,1646.39 797.522,1615.675 L830.86,1382.707 L886.201,1382.707 C911.209,1382.707 911.209,1382.707 916.462,1346.995 C921.715,1311.265 921.626,1311.178 898.705,1311.178" fill="#000000"/>
      <path d="M1209.665,1381.502 C1234.672,1381.502 1234.672,1381.502 1239.925,1345.772 C1245.178,1310.06 1245.103,1310.06 1222.169,1310.06 L1095.906,1310.06 C1050.996,1310.06 1052.105,1310.06 1044.797,1363.086 L1012.479,1586.044 C1004.104,1643.962 1005.14,1643.962 1050.063,1643.962 L1173.22,1643.962 C1199.337,1643.962 1198.212,1643.962 1203.465,1609.456 C1208.732,1574.966 1208.644,1573.744 1185.709,1573.744 L1079.17,1573.744 L1087.545,1509.623 L1176.224,1509.623 C1200.283,1509.623 1200.283,1509.623 1204.412,1476.338 C1208.556,1443.054 1208.556,1441.849 1176.224,1441.849 L1097.962,1441.849 L1106.322,1381.397 z" fill="#000000"/>
      <path d="M1397.188,1309.605 C1447.365,1309.605 1447.365,1309.605 1453.564,1351.538 L1453.564,1351.555 L1491.045,1601.575 C1497.349,1642.285 1494.256,1644.73 1459.779,1644.73 C1429.52,1644.73 1428.484,1644.73 1424.266,1611.447 L1419.087,1567.069 L1316.781,1567.069 L1300.148,1611.447 C1287.646,1644.73 1287.646,1644.73 1257.311,1644.73 C1218.779,1644.73 1215.599,1641.08 1231.283,1604.126 L1336.697,1344.112 C1351.257,1309.605 1350.223,1309.605 1397.188,1309.605 z M1392.023,1384.821 C1386.859,1384.821 1386.859,1384.821 1383.678,1393.47 L1342.986,1499.418 L1410.816,1499.418 L1398.328,1394.692 C1397.292,1384.821 1397.203,1384.821 1392.023,1384.821 z" fill="#000000"/>
      <path d="M1703.191,1310.828 L1525.818,1310.828 C1500.722,1310.828 1500.722,1310.828 1495.558,1346.645 C1490.379,1382.497 1491.326,1382.375 1513.226,1382.375 L1570.639,1382.375 L1538.307,1603.357 C1532.018,1646.39 1533.04,1646.39 1565.461,1646.39 C1595.706,1646.39 1596.742,1646.39 1600.884,1615.675 L1634.326,1382.707 L1689.563,1382.707 C1714.644,1382.707 1714.644,1382.707 1719.824,1346.995 C1724.988,1311.265 1726.111,1311.178 1703.191,1311.178" fill="#000000"/>
    </g>
    <g clip-path="url(#Clip_1)" id="Layer_1">
      <path d="M829.031,24.666 C848.382,9.402 873.615,9.402 892.968,24.666 C942.253,61.273 989.538,101.507 1034.542,145.129 C1079.546,188.753 1046.799,155.163 1047.134,138.166 C1045.915,116.22 1047.013,94.179 1050.404,72.553 C1054.118,60.994 1063.47,53.322 1073.939,53.247 C1084.41,53.17 1129.534,56.531 1164.838,62.124 C1180.625,64.602 1192.925,79.516 1194.604,98.214 C1196.285,116.915 1217.316,276.994 1222.415,341.452 C1222.415,341.452 1226.793,374.288 1267.041,429.869 C1267.041,429.869 1348.77,565.016 1358.274,590.86 C1358.274,590.86 1377.225,637.592 1336.359,643.947 C1336.359,643.947 1261.787,652.826 1254.603,654.771 C1244.555,656.186 1237.3,666.807 1238.251,678.699 C1239.203,690.594 1234.337,989.708 1215.05,1139.116 C1215.05,1139.116 1209.977,1198.406 1182.348,1197.038 C1182.348,1197.038 1105.663,1194.149 1087.845,1194.727 C1087.845,1194.727 1080.171,1194.727 1081.304,1182.564 C1081.304,1182.564 1120.368,697.612 1093.896,452.459 C1093.896,452.459 1092.737,420.807 1072.317,413.845 C1072.317,413.845 1053.674,404.966 1035.856,433.153 C958.522,560.986 916.19,713.711 914.547,870.795 C912.903,1027.88 912.408,948.023 922.401,967.301 C922.401,967.301 928.58,980.829 960.331,983.901 L1000.526,990.286 C1000.526,990.286 1007.891,990.286 1007.221,1001.839 C1007.221,1001.839 998.079,1144.135 995.479,1169.429 C995.298,1175.207 994.32,1180.862 992.518,1186.214 C992.518,1186.214 991.051,1191.048 978.458,1190.47 C978.458,1190.47 801.247,1188.949 781.29,1190.47 C781.29,1190.47 772.947,1190.47 771.17,1185.271 C769.367,1180.041 758.886,1001.658 759.222,976.392 C758.895,971.14 761.369,966.203 765.428,964.019 C792.826,943.61 810.875,909.597 814.481,871.587 C816.644,844.527 816.954,817.376 815.459,790.286 C815.459,790.286 822,517.525 823.648,473.681 C823.648,473.681 824.936,458.814 808.585,456.137 C800.418,453.873 792.236,459.823 790.276,469.455 L790.276,470.975 C790.276,472.525 778.843,650.91 780.954,721.935 C780.954,721.935 784.894,768.455 757.6,769.427 C757.6,769.427 731.102,774.079 729.79,735.283 C729.79,735.283 731.746,560.364 738.287,473.895 C738.338,464.01 732.059,455.676 723.737,454.587 C715.081,453.167 707.015,460.06 705.454,470.216 C705.352,470.715 705.352,471.236 705.454,471.735 C705.557,472.234 693.997,639.142 696.108,727.56 C696.108,727.56 699.378,770.43 670.434,768.85 C670.434,768.85 646.229,772.134 644.942,734.098 C644.942,734.098 651.483,494.539 653.286,476.023 C652.854,466.582 646.696,458.899 638.736,457.871 L637.088,457.871 C628.613,457.034 621.007,463.995 619.578,473.895 C619.528,474.471 619.528,475.052 619.578,475.628 C619.63,476.204 608.815,762.099 610.284,846.262 C610.284,846.262 609.304,932.761 663.405,967.879 C663.405,967.879 671.414,973.289 671.593,981.59 C671.593,981.59 677.646,1133.521 683.181,1182.564 C683.181,1182.564 685.163,1194.332 676.332,1194.332 L540.139,1198.771 C525.321,1198.668 513.132,1184.957 512.33,1167.484 C494.682,1006.505 486.277,844.304 487.172,681.983 C488.158,669.558 481.145,658.21 470.821,655.532 C460.496,652.854 401.167,648.023 384.325,643.004 C375.538,640.308 368.33,632.9 364.86,622.993 C361.389,613.088 362.055,601.832 366.661,592.593 C479.821,362.089 638.449,167.259 829.055,24.666 z" fill="#000000"/>
    </g>
  </g>
</svg>
