<?xml version="1.0" encoding="UTF-8"?>
<!DOCTYPE svg PUBLIC "-//W3C//DTD SVG 1.1//EN" "http://www.w3.org/Graphics/SVG/1.1/DTD/svg11.dtd">
<svg version="1.1" xmlns="http://www.w3.org/2000/svg" xmlns:xlink="http://www.w3.org/1999/xlink" x="0" y="0" width="409" height="409" viewBox="0, 0, 409, 409">
  <g id="Layer_1">
    <path d="M14.645,1 L394.688,1 C401.856,1 407.667,7.764 407.667,16.109 L407.667,391.891 C407.667,400.236 401.856,407 394.688,407 L14.645,407 C7.477,407 1.667,400.236 1.667,391.891 L1.667,16.109 C1.667,7.764 7.477,1 14.645,1 z" fill="#000000"/>
  </g>
  <g id="Layer_2">
    <g>
      <path d="M296.008,338.391 C295.721,338.35 295.438,338.483 295.288,338.731 C291.698,338.401 288.998,340.731 286.028,342.071 C272.608,348.071 258.638,351.991 244.278,355.251 C224.648,359.711 204.918,359.921 185.208,358.381 C163.618,356.602 142.515,351.008 122.878,341.861 C98.938,330.861 77.488,316.281 59.248,297.141 C46.008,283.251 34.178,268.201 26.248,250.691 C14.638,225.071 15.158,199.321 28.188,174.161 C32.088,166.651 36.338,159.331 40.648,152.041 C44.488,145.531 44.558,139.431 40.488,132.871 C36.921,127.254 33.888,121.314 31.428,115.131 C21.766,90.532 33.711,62.74 58.208,52.821 C65.32,50.004 72.919,48.624 80.568,48.761 C164.508,48.881 248.458,48.761 332.398,48.881 C355.828,48.881 371.938,62.021 379.048,83.881 C383.518,97.661 381.388,110.801 374.268,123.261 C373.073,125.64 371.758,127.956 370.328,130.201 C363.938,139.061 365.718,147.131 371.328,155.821 C379.328,168.081 386.588,180.821 389.478,195.481 C392.698,211.811 391.968,227.881 386.198,243.601 C379.628,261.511 368.628,276.601 356.248,290.811 C340.583,308.77 321.754,323.701 300.698,334.861 C298.948,335.811 296.978,336.441 296.008,338.391 z M300.588,319.251 L300.678,319.251 C302.368,319.251 303.868,318.921 304.508,317.061 L304.508,317.061 C308.797,315.8 312.454,312.969 314.748,309.131 L316.428,307.851 C318.308,308.351 319.598,307.231 320.918,306.221 C329.231,299.841 336.91,292.675 343.848,284.821 C346.178,282.191 349.728,280.181 349.908,276.001 C350.219,275.966 350.455,275.704 350.458,275.391 C353.278,275.141 353.948,272.511 355.348,270.791 C359.748,265.401 363.188,259.341 366.928,253.491 C375.201,240.854 379.123,225.861 378.098,210.791 C377.548,202.101 377.168,193.131 371.748,185.561 C371.878,185.282 371.763,184.95 371.488,184.811 C370.178,178.111 365.718,172.961 362.748,167.081 C358.658,159.011 352.748,151.841 352.748,142.001 C352.748,134.211 356.118,127.871 360.048,121.681 C363.668,115.991 366.608,109.971 367.548,103.351 C370.548,82.151 354.188,61.991 332.018,62.011 Q205.658,62.131 79.278,62.011 C76.449,62.049 73.628,62.303 70.838,62.771 C55.358,65.181 41.068,80.431 41.348,97.421 C41.528,108.341 46.398,117.291 51.868,126.001 C58.598,136.721 58.178,147.201 52.528,158.061 C47.628,167.451 41.528,176.121 37.348,185.971 C29.628,204.131 29.908,222.211 36.348,240.441 C41.348,254.611 50.558,266.331 59.778,277.861 C64.248,283.441 68.668,289.381 75.158,293.041 L75.298,293.121 C75.228,293.956 75.609,294.765 76.298,295.241 C84.415,303.078 93.288,310.093 102.788,316.181 C129.388,332.771 158.248,342.741 189.678,345.341 C207.558,346.811 225.138,345.491 242.678,342.341 C243.918,342.121 245.468,342.131 245.588,340.261 L251.398,339.631 C252.878,339.631 254.478,339.911 255.808,339.451 C263.608,336.731 271.558,334.281 279.058,330.851 C285.058,328.101 291.798,326.381 296.528,321.211 L296.738,321.091 C298.296,321.48 299.912,320.708 300.588,319.251 z" fill="#FFFFFF"/>
      <path d="M333.078,268.601 C328.948,274.971 321.878,278.431 317.328,284.381 L317.068,284.441 L317.188,284.661 C316.898,284.901 316.618,285.151 316.338,285.401 C315.168,285.171 314.768,285.891 314.548,286.841 L314.318,286.981 C314.076,286.922 313.82,286.983 313.631,287.146 C313.443,287.309 313.345,287.553 313.368,287.801 L313.298,287.881 C313.05,287.848 312.799,287.927 312.616,288.098 C312.432,288.268 312.334,288.511 312.348,288.761 L312.238,288.821 C311.146,288.723 310.178,289.521 310.068,290.611 L301.348,296.911 C294.348,300.721 287.418,304.491 280.478,308.331 C267.858,315.331 254.228,319.641 240.248,322.741 C220.538,327.101 200.468,326.241 180.638,324.481 C163.018,322.911 146.328,316.961 130.338,309.151 C112.848,300.601 97.638,288.991 83.558,275.731 C81.558,273.821 80.558,270.911 77.688,269.831 L77.588,269.751 C77.638,269.474 77.549,269.189 77.35,268.989 C77.15,268.79 76.866,268.701 76.588,268.751 L76.588,268.751 C76.602,268.488 76.498,268.232 76.305,268.053 C76.112,267.873 75.849,267.788 75.588,267.821 L75.588,267.731 C75.658,267.111 75.378,266.791 74.748,266.801 L74.548,266.611 C74.678,266.031 74.548,265.711 73.838,265.811 L73.698,265.521 C68.428,256.911 62.078,249.021 57.108,240.171 C49.108,225.931 47.478,211.221 53.778,196.171 C60.378,180.401 69.948,166.171 78.368,151.351 Q88.728,133.161 99.238,115.051 C106.028,103.441 115.758,95.051 127.748,88.981 C140.098,82.791 153.218,80.981 166.848,81.091 C193.998,81.251 221.148,80.811 248.288,81.221 C276.228,81.651 297.668,94.081 311.968,118.221 Q330.348,149.221 348.238,180.561 C354.298,191.141 359.328,202.181 359.038,214.811 C358.878,222.001 357.798,229.021 354.498,235.541 C353.828,236.871 352.978,238.161 353.278,239.771 L353.278,239.861 C350.908,241.501 350.068,244.021 349.378,246.631 C348.078,247.251 347.688,248.541 347.148,249.711 C345.998,251.461 343.948,252.571 343.478,254.821 C343.227,254.984 343.088,255.274 343.118,255.571 C339.428,259.661 335.548,263.591 333.078,268.601 z M135.688,250.311 L140.688,250.311 C142.518,250.311 144.348,250.411 146.178,250.381 C151.618,250.271 152.178,249.321 150.948,244.031 C148.704,235.095 149.514,225.665 153.248,217.241 C158.978,204.151 169.198,195.761 182.068,190.411 C186.068,188.741 187.368,187.001 184.718,183.091 C182.398,179.661 180.528,175.931 178.398,172.361 C171.398,160.611 162.488,151.531 148.308,148.481 C135.538,145.741 116.768,152.051 109.568,162.801 C103.199,172.152 97.472,181.924 92.428,192.051 C82.648,212.151 90.428,233.961 108.178,244.991 C116.648,250.221 126.178,250.241 135.688,250.311 z M268.548,250.821 C277.458,250.011 286.918,250.701 295.968,246.611 C316.058,237.511 325.478,211.341 314.688,192.161 C309.818,183.511 305.088,174.761 300.148,166.161 C288.688,146.161 252.078,137.791 232.768,165.901 C229.648,170.441 227.598,175.561 224.568,180.111 C219.778,187.331 219.818,187.351 227.438,191.111 C247.168,200.831 259.198,217.321 257.438,239.951 C257.188,243.261 252.958,247.091 257.238,249.951 C260.328,251.971 264.428,250.321 268.548,250.821 z M205.548,299.571 C214.498,298.921 225.748,298.011 235.128,290.571 C236.428,289.571 238.888,288.441 237.578,286.331 C236.578,284.691 234.488,286.071 232.968,286.441 C223.328,288.801 214.158,288.441 205.968,282.011 C204.742,280.786 202.767,280.751 201.498,281.931 C193.298,288.061 184.238,288.931 174.548,286.401 C173.028,286.001 170.678,284.471 169.708,286.781 C168.868,288.781 171.038,289.901 172.488,290.981 C181.658,297.711 192.248,299.191 205.568,299.571 z M205.088,223.221 C200.478,222.811 196.248,223.771 192.088,224.861 C182.998,227.211 175.268,237.991 183.698,247.291 C188.64,252.698 194.513,257.172 201.038,260.501 C203.04,261.497 205.43,261.296 207.238,259.981 C212.948,256.261 218.738,252.591 223.458,247.631 C229.238,241.561 227.818,230.631 220.628,227.051 C215.748,224.651 210.688,222.141 205.108,223.221 z" fill="#FFFFFF"/>
      <path d="M82.418,278.941 L82.238,278.671 L82.508,278.851 L82.418,278.941 z" fill="#FFFFFF"/>
      <path d="M313.368,287.801 C313.345,287.553 313.443,287.309 313.631,287.146 C313.82,286.983 314.076,286.922 314.318,286.981 z" fill="#FFFFFF"/>
      <path d="M312.348,288.761 C312.334,288.511 312.432,288.268 312.616,288.098 C312.799,287.927 313.05,287.848 313.298,287.881 z" fill="#FFFFFF"/>
      <path d="M317.188,284.661 L317.068,284.441 L317.328,284.381 L317.188,284.661 z" fill="#FFFFFF"/>
      <path d="M74.568,266.611 C74.328,266.351 74.088,266.081 73.858,265.811 C74.518,265.711 74.698,266.051 74.568,266.611 z" fill="#FFFFFF"/>
      <path d="M75.608,267.731 L74.768,266.801 C75.428,266.791 75.678,267.111 75.608,267.731 z" fill="#FFFFFF"/>
      <path d="M160.648,169.191 C166.998,169.131 171.488,173.891 171.588,180.771 C171.668,186.891 166.648,191.571 159.888,191.681 C153.888,191.781 148.808,186.401 148.838,179.951 C148.868,173.771 153.828,169.251 160.648,169.191 z" fill="#FFFFFF"/>
      <path d="M246.428,191.231 C239.348,191.231 235.428,187.531 235.498,180.731 C235.568,173.931 239.868,169.281 246.498,169.161 C253.128,169.041 257.568,173.291 257.688,180.221 C257.838,186.991 253.538,191.201 246.428,191.231 z" fill="#FFFFFF"/>
      <path d="M301.428,194.941 L302.128,193.721 L302.628,194.231 L301.408,194.931 z" fill="#FFFFFF"/>
    </g>
  </g>
</svg>
