<?xml version="1.0" encoding="UTF-8"?>
<!DOCTYPE svg PUBLIC "-//W3C//DTD SVG 1.1//EN" "http://www.w3.org/Graphics/SVG/1.1/DTD/svg11.dtd">
<svg version="1.1" xmlns="http://www.w3.org/2000/svg" xmlns:xlink="http://www.w3.org/1999/xlink" x="0" y="0" width="1179" height="1179" viewBox="0, 0, 1179, 1179">
  <g id="Layer_1">
    <path d="M1155.704,178.465 C1118.489,178.465 1092.092,207.01 1092.092,250.828 L1092.092,411.561 L1035.283,411.561 L1035.283,128.644 L1091.411,128.644 L1091.411,163.191 C1105.51,139.874 1131.398,125.883 1159.038,126.643 L1179.448,126.643 L1179.448,178.465 z M996.027,270.103 C996.027,185.734 934.796,122.641 851.929,122.641 C812.385,122.905 774.58,138.617 746.892,166.297 C719.205,193.977 703.922,231.339 704.43,270.103 C704.43,354.404 770.764,418.164 857.304,418.164 C906.361,419.072 952.802,396.533 981.807,357.739 L940.579,328.127 C921.379,354.395 890.265,369.77 857.304,369.277 C809.512,369.056 769.046,334.657 762.056,288.31 L996.163,288.31 z M763.28,244.158 C773.417,201.007 808.591,171.795 851.249,171.795 C893.907,171.795 929.013,201.007 938.538,244.158 z M524.479,122.641 C486.132,122.673 449.389,137.729 422.427,164.459 L422.427,23 L365.618,23 L365.618,411.561 L421.747,411.561 L421.747,375.68 C448.938,402.645 485.937,417.926 524.615,418.164 C579.229,419.301 630.199,391.39 657.846,345.204 C685.494,299.019 685.494,241.786 657.846,195.601 C630.199,149.416 579.229,121.504 524.615,122.641 z M520.397,368.41 C479.9,368.599 443.29,344.812 427.69,308.176 C412.091,271.54 420.586,229.297 449.203,201.206 C477.819,173.115 520.899,164.73 558.293,179.972 C595.686,195.214 620.001,231.07 619.863,270.769 C619.9,296.629 609.427,321.437 590.762,339.71 C572.097,357.982 546.776,368.214 520.397,368.143 z M156.412,365.742 C211.247,365.742 253.837,324.525 253.837,262.766 L253.837,23 L312.687,23 L312.687,411.561 L254.517,411.561 L254.517,374.813 C227.054,402.637 189.17,418.229 149.676,417.964 C65.109,417.964 0,357.539 0,265.901 L0,23 L59.938,23 L59.938,263.1 C59.938,325.192 100.759,365.742 156.412,365.742 z" fill="#000000"/>
    <path d="M0.881,760.171 L278.938,760.171 L278.938,826.865 L75.991,826.865 L75.991,921.571 L273.291,921.571 L273.291,985.998 L75.991,985.998 L75.991,1082.304 L278.938,1082.304 L278.938,1148.999 L0.881,1148.999 z M1046.845,1156.002 C1132.092,1156.002 1180.125,1115.985 1180.125,1061.029 C1180.125,1021.879 1151.686,992.667 1092.156,979.995 L1029.224,967.39 C992.689,960.721 981.191,954.051 981.191,940.712 C981.191,923.438 998.812,912.834 1031.265,912.834 C1066.439,912.834 1092.496,922.105 1099.299,953.984 L1173.049,953.984 C1169.035,893.959 1125.017,854.343 1035.755,854.343 C958.604,854.343 904.448,885.556 904.448,946.048 C904.448,987.865 934.247,1015.076 998.54,1028.349 L1068.888,1044.289 C1096.646,1049.624 1104.062,1056.96 1104.062,1068.232 C1104.062,1086.173 1083.107,1097.444 1049.226,1097.444 C1006.636,1097.444 982.28,1088.173 972.823,1056.294 L898.665,1056.294 C909.483,1116.185 954.794,1156.002 1046.845,1156.002 z M877.234,1148.732 L797.43,1148.732 C747.356,1148.732 719.598,1118.186 719.598,1079.637 L719.598,926.907 L663.47,926.907 L663.47,861.813 L719.87,861.813 L719.87,780.112 L794.028,780.112 L794.028,861.813 L877.234,861.813 L877.234,926.907 L794.028,926.907 L794.028,1061.029 C794.028,1076.302 804.846,1083.638 821.786,1083.638 L877.234,1083.638 z M557.472,861.946 L557.472,887.824 C531.362,866.187 498.249,854.366 464.06,854.476 C408.345,853.328 356.352,881.809 328.15,928.927 C299.949,976.046 299.949,1034.432 328.15,1081.551 C356.352,1128.669 408.345,1157.15 464.06,1156.002 C498.255,1156.147 531.38,1144.322 557.472,1122.654 L557.472,1148.598 L631.425,1148.598 L631.425,861.813 z M470.183,1093.042 C433.902,1093.448 400.963,1072.332 386.797,1039.585 C372.632,1006.839 380.044,968.948 405.563,943.662 C431.082,918.377 469.653,910.705 503.207,924.24 C536.761,937.775 558.654,969.837 558.628,1005.406 C558.846,1028.562 549.606,1050.842 532.966,1067.279 C516.326,1083.717 493.67,1092.945 470.047,1092.909 z" fill="#000000"/>
  </g>
</svg>
